<?xml version="1.0" standalone="no"?>
<!DOCTYPE svg PUBLIC "-//W3C//DTD SVG 1.1//EN" "http://www.w3.org/Graphics/SVG/1.1/DTD/svg11.dtd" >
<svg xmlns="http://www.w3.org/2000/svg" xmlns:xlink="http://www.w3.org/1999/xlink" version="1.1">
<metadata>
Created by FontForge 20170731 at Wed Sep  4 12:18:13 2013
 By Aleksey,,,
Indieferdie
</metadata>
<defs>
<font id="Engine-Regular" horiz-adv-x="718" >
  <font-face 
    font-family="Engine"
    font-weight="400"
    font-stretch="normal"
    units-per-em="2048"
    panose-1="0 0 5 0 0 0 0 0 0 0"
    ascent="1638"
    descent="-410"
    x-height="1077"
    cap-height="1475"
    bbox="-240 -469.889 1413 1994.86"
    underline-thickness="102"
    underline-position="-357"
    unicode-range="U+000D-E000"
  />
<missing-glyph horiz-adv-x="748" 
d="M68 0v1365h544v-1365h-544zM136 68h408v1229h-408v-1229z" />
    <glyph glyph-name=".notdef" horiz-adv-x="748" 
d="M68 0v1365h544v-1365h-544zM136 68h408v1229h-408v-1229z" />
    <glyph glyph-name="glyph1" horiz-adv-x="387" 
 />
    <glyph glyph-name="glyph1" horiz-adv-x="387" 
 />
    <glyph glyph-name="uni000D" unicode="&#xd;" horiz-adv-x="1069" 
 />
    <glyph glyph-name="space" unicode=" " horiz-adv-x="1001" 
 />
    <glyph glyph-name="exclam" unicode="!" horiz-adv-x="468" 
d="M111 129q-6 -25 5.5 -46.5t35.5 -27.5l41 -12q14 -6 32 -6q41 0 56 37q4 7 4 17t-2 19.5t-2 10.5q-1 1 -2.5 4t-2.5 4q-6 6 -8 10l-43 43q-16 19 -41 19q-24 0 -40.5 -14t-18.5 -35q-12 -12 -14 -23zM123 352q1 -25 19.5 -41t43.5 -14t41 20t15 43q-35 582 34 1070
q2 25 -12.5 44.5t-38.5 22.5q-25 3 -43.5 -11.5t-23.5 -39.5q-70 -502 -35 -1094z" />
    <glyph glyph-name="quotedbl" unicode="&#x22;" horiz-adv-x="665" 
d="M80 920q0 -25 17 -42.5t42 -17.5t42.5 17.5t17.5 42.5q0 288 6 487q0 25 -17 43t-41 18q-25 0 -43 -16.5t-18 -40.5q-6 -205 -6 -491zM356 948q0 -25 17.5 -42t42.5 -17t42 17t17 42q0 28 4 236q2 104 2 235q0 25 -17 42.5t-42 17.5t-42.5 -17.5t-17.5 -42.5
q0 -131 -2 -235q-4 -208 -4 -236z" />
    <glyph glyph-name="numbersign" unicode="#" horiz-adv-x="800" 
d="M-43 852q4 -25 25.5 -38t44.5 -7q33 7 108 20l6 -196l-84 -19q-23 -6 -35 -27t-6 -44q6 -25 27.5 -37t46.5 -6q16 5 55 14q5 -375 5 -428q0 -25 17 -42t42 -17t42 17t17 42q0 212 -6 446l100 11q21 -293 21 -475q0 -25 17 -42.5t42 -17.5t42.5 17.5t17.5 42.5
q0 180 -21 485q7 1 23 2.5t23.5 2.5t19.5 3.5t18.5 5.5t13.5 7.5t11 11.5q14 19 11 44t-21 38q-5 3 -11 5.5t-11 3.5t-13 1.5t-12.5 0.5t-14 -1t-14 -1.5t-16 -2t-15.5 -2.5l-8 94l-6 94q65 0 96 -2q24 -1 41.5 15.5t19.5 41.5q1 25 -15.5 42.5t-41.5 19.5q-35 2 -106 2
q-12 279 2 473q1 25 -15 43t-41 20t-43.5 -14t-19.5 -41q-14 -200 -2 -485l-84 -8q-3 57 -12 163q-11 111 -13 156.5t2 151.5q2 25 -13.5 44.5t-39.5 20.5q-25 2 -44.5 -13.5t-20.5 -39.5q-8 -87 8 -293q14 -183 14 -203v-4q-43 -6 -129 -26q-25 -4 -38 -25.5t-7 -44.5z
M254 846l86 8l6 -98l8 -97l-94 -10z" />
    <glyph glyph-name="dollar" unicode="$" horiz-adv-x="733" 
d="M-12.5 1010.5q-2.5 -130.5 10.5 -179.5q17 -77 60 -116.5t112 -52.5l35 -7q3 -145 -6 -559l-2 2q-48 42 -62 107t-22 239q-1 25 -20 41.5t-44 14.5q-25 -1 -41 -20t-14 -44q12 -194 26 -254q23 -104 95 -170q45 -38 84 -51q-2 -59 -2 -166q0 -25 17 -42t42 -17t42 17
t17 42v158q38 6 76 24q63 33 104.5 94t45.5 132q3 77 -1.5 152.5t-19 153t-46.5 137t-79 85.5q-35 20 -71 27q-2 18 -2 51l-19 393q-3 42 -8 162q48 -14 72 -45q8 -10 14 -23t10 -22.5t8.5 -28.5t6 -27.5l6 -34t6.5 -34.5q12 -70 24 -87q7 -11 19 -18q21 -12 45 -6
q23 6 35 27.5t6 44.5q-6 22 -12 61l-6 30t-5.5 26t-3.5 14q-22 99 -63.5 154.5t-130.5 83.5l-33 6q0 71 2 104q0 25 -16.5 43.5t-40.5 18.5q-25 0 -43.5 -17t-18.5 -41q-2 -39 -2 -120q-35 -15 -63 -46q-65 -65 -99 -192q-22 -94 -24.5 -224.5zM106 1010q0 106 20 189
t52 126l6 -129l19 -391v-29q-4 2 -10 2q-36 6 -53 22t-23 52q-14 54 -11 158zM317 76q9 456 7 559l14 -6q45 -25 67.5 -154.5t16.5 -267.5q-1 -37 -25 -70.5t-61 -52.5q-3 -1 -9.5 -4t-9.5 -4z" />
    <glyph glyph-name="percent" unicode="%" horiz-adv-x="923" 
d="M-34 1182.5q-4 -104.5 7 -193.5q14 -99 35 -131q43 -64 98 -67q44 -2 75 19.5t46.5 63t22 87t6.5 102.5q0 76 -10.5 162t-22.5 127q-3 12 -14 24q-3 21 -19 37l-2 2l-12 19q-29 39 -74 39q-84 -3 -114 -119q-18 -67 -22 -171.5zM83 1176.5q2 92.5 19 146.5q2 2 2 8l2 -2
q0 -7 3 -10q9 -36 18.5 -112.5t9.5 -143.5q0 -88 -14 -131l-8 -19q-7 7 -9 11l-4 18q-7 30 -10 62q-11 80 -9 172.5zM131 25q-6 -25 8 -45t39 -25q23 -6 43 7.5t25 37.5q12 62 59 238q43 155 61 247.5t72 434.5q55 344 92 510q6 23 -7 44t-36 27q-25 5 -46 -8.5t-25 -38.5
q-44 -193 -94 -510q-33 -213 -72 -438q-13 -71 -60 -238q-39 -137 -59 -243zM451 301q1 -18 2 -53t2 -51q3 -54 16 -74q36 -54 98 -66q105 -14 144 99q25 64 26 161.5t-22 325.5q0 4 -2 6q3 21 -2 37q-38 83 -72 113q-31 26 -65.5 24.5t-59.5 -30.5q-43 -51 -57 -220
q-11 -144 -8 -272zM549 705l14 6l4 -6h-18zM569 305q-2 114 9 258q3 63 12 103l8 -19v-16q23 -242 23 -293q-3 -91 -19 -141q-7 -18 -12 -23v2q-4 0 -12 4q-1 3 -2.5 13.5t-2.5 13.5q-1 15 -2 48t-2 50z" />
    <glyph glyph-name="ampersand" unicode="&#x26;" horiz-adv-x="741" 
d="M33 195q0 -117 104 -136q142 -27 244 105l61 -158q7 -23 29 -33t47 -2q23 7 33 29t2 47q-16 47 -78 201l-20 47q36 84 51 131q27 80 31 84q8 25 -1 48t-32 30q-25 8 -48 -1t-30 -32q-8 -19 -33 -92q-34 105 -92 313q15 35 27 62q21 44 57 127q71 172 51 282
q-11 44 -41 101q-38 71 -87.5 127t-100.5 73q-82 30 -128 -24.5t-44 -145.5q10 -127 74 -354l65 -242l-4 -14q-43 -117 -94 -313q-29 -119 -37 -185q-9 -46 -6 -75zM152 180v15q-3 18 4 59q24 153 77 324q65 -208 93 -277l-4 -10q-74 -132 -160 -117q-8 4 -10 6zM154 1382
q0 21 2 31v14l2 3q5 8 10 8q22 -8 59 -52q34 -39 61 -89t29 -70q15 -81 -41 -217l-24 -58l-29 105q-31 106 -53 209q-12 57 -16 116z" />
    <glyph glyph-name="quotesingle" unicode="'" horiz-adv-x="419" 
d="M109 862q-2 -25 14 -43.5t41 -19.5q25 -2 43.5 14t19.5 41q9 134 6 408q-2 86 -2 180q0 25 -17 42t-42 17t-42 -17t-17 -42q0 -96 2 -180q3 -268 -6 -400z" />
    <glyph glyph-name="parenleft" unicode="(" horiz-adv-x="411" 
d="M-72 557q-6 -286 41.5 -531t147.5 -411q12 -20 37 -26.5t45 5.5t26 37t-6 45q-91 151 -134.5 379.5t-37.5 497.5q6 252 52 492.5t120 408.5q11 23 2.5 47t-31.5 33t-46.5 0.5t-30.5 -31.5q-81 -179 -130 -430.5t-55 -515.5z" />
    <glyph glyph-name="parenright" unicode=")" horiz-adv-x="468" 
d="M-68 1531.5q-3 -24.5 11 -44.5q16 -19 34 -51q32 -63 46 -113l16 -61q8 -24 16 -68l17 -68q56 -255 77 -418t17 -343q-12 -360 -199 -738q-11 -23 -3.5 -46.5t30.5 -33.5q23 -11 46.5 -3.5t33.5 30.5q199 402 211 786q4 193 -19 377.5t-80 417.5q-4 33 -30 135
q-21 82 -45 140q-30 72 -74 131q-17 19 -40 22t-42 -12q-20 -15 -23 -39.5z" />
    <glyph glyph-name="asterisk" unicode="*" horiz-adv-x="690" 
d="M29.5 1157.5q1.5 -24.5 21.5 -39.5q12 -9 34 -11.5t36.5 -0.5t44.5 6q-39 -79 -60 -131q-8 -26 1.5 -48.5t33.5 -29.5q24 -8 46.5 1t29.5 32q0 -24 18.5 -40.5t43.5 -16.5t40 18q15 17 16 49.5t-5 71.5l47 -57q18 -19 41.5 -21.5t42.5 14.5t21 41t-15 43l-86 105
q24 4 80 16q20 3 37 27q12 21 7 45t-26 37q-8 5 -16.5 7t-20 0.5t-16.5 -2t-20.5 -4.5t-18.5 -5q57 101 72 131q11 20 3.5 44t-28.5 36q-22 11 -46 3.5t-36 -30.5l-59 -109v7q-4 145 -4 147q-1 25 -20 41t-44 14q-25 -1 -41 -19.5t-14 -43.5q1 -14 2 -45.5t2 -48.5l-18 22
q-18 19 -40.5 21t-41.5 -15q-20 -17 -22.5 -40.5t14.5 -43.5l88 -106q-2 0 -13.5 -0.5t-15 -1t-13.5 -1t-14.5 -1.5t-13 -2t-13 -3t-10.5 -4.5t-10.5 -6t-7.5 -7.5q-15 -20 -13.5 -44.5z" />
    <glyph glyph-name="plus" unicode="+" horiz-adv-x="737" 
d="M-27 537q5 -25 25 -38t45 -7q52 11 150 14q8 -211 8 -371q0 -25 17 -42t42 -17t42 17t17 42q0 160 -8 371q124 0 197 20q25 6 37 26.5t6 45.5t-26.5 37t-45.5 6q-69 -16 -172 -16q-6 211 -6 342q0 25 -17 42t-42 17t-42.5 -17t-17.5 -42q0 -131 6 -342q-94 -3 -170 -19
q-25 -5 -38 -24.5t-7 -44.5z" />
    <glyph glyph-name="comma" unicode="," horiz-adv-x="458" 
d="M49 -201q0 -25 17.5 -42t42.5 -17t41 16q198 192 81 434q-11 21 -33 29t-44 -2q-22 -11 -30.5 -34t1.5 -46q80 -164 -57 -295q-19 -19 -19 -43z" />
    <glyph glyph-name="hyphen" unicode="-" horiz-adv-x="739" 
d="M20 563q1 -25 20 -41t44 -14l414 12q24 0 40.5 18.5t16.5 43.5q0 24 -18 40.5t-43 16.5l-418 -12q-25 -1 -41.5 -20t-14.5 -44z" />
    <glyph glyph-name="period" unicode="." horiz-adv-x="479" 
d="M106 160q3 -82 37 -125q48 -59 115 -23q26 18 34 51.5t-5 57.5q-18 46 -74 76q-18 24 -49 24q-24 0 -41 -18t-17 -43z" />
    <glyph glyph-name="slash" unicode="/" horiz-adv-x="479" 
d="M-33 76q-6 -24 6.5 -45t36.5 -27t45 6.5t27 36.5q69 269 121 694q67 556 92 691q4 25 -10 44.5t-39 24.5q-25 4 -45 -10t-25 -39q-16 -96 -90 -696q-53 -424 -119 -680z" />
    <glyph glyph-name="zero" unicode="0" horiz-adv-x="819" 
d="M25 762q0 -272 51.5 -478.5t150.5 -260.5q93 -48 165 -28t124 97q71 106 92 268q20 158 25 306.5t-7 297t-54 268.5t-113 187l-6 4q-9 24 -37 33q-7 0 -23 8q-47 15 -59 17q-37 5 -82 -8q-78 -26 -130.5 -133t-74.5 -253t-22 -325zM143 762q0 245 45 412q43 166 101 184
q3 1 8 1q19 4 37 -1q2 -1 6 -2q15 -5 27 -8q3 -8 10 -15q73 -69 107.5 -230t32.5 -343t-28 -383q-18 -140 -71 -217q-27 -42 -57.5 -50.5t-75.5 15.5q-59 35 -99 213q-43 185 -43 424zM254 512q1 -25 19.5 -41t43.5 -14t41 20t15 43q-7 112 2 385q0 25 -17 43.5t-41 18.5
q-25 0 -43 -17t-18 -41q-9 -279 -2 -397z" />
    <glyph glyph-name="one" unicode="1" horiz-adv-x="444" 
d="M-4 1077q-8 -24 1.5 -46.5t33.5 -29.5q24 -8 46 1.5t29 33.5l17 43q0 -65 14 -512q9 -327 -8 -530q-2 -25 14 -44t41 -20q25 -2 44 14.5t20 41.5q17 202 8 542q-14 454 -14 537q0 16 2 39v143l-6 113q-1 11 -5 27.5t-4 19.5q-7 18 -12 25q-14 26 -42.5 32t-53.5 -16
q-12 -12 -15 -23l-4 -8q-1 -2 -2 -7.5t-2 -8.5l-10 -43q-14 -52 -14 -64q-22 -109 -78 -260z" />
    <glyph glyph-name="two" unicode="2" horiz-adv-x="684" 
d="M8 1128q2 -51 2 -84q0 -25 17.5 -42t42.5 -17t42 17t17 42q0 33 -2 84q-3 171 6 238q3 20 10 39q13 0 31 2q56 7 83.5 -29.5t33.5 -122.5q3 -67 -47 -241q-41 -149 -113 -371q-72 -242 -92 -362q-38 -195 27 -271q24 -28 73.5 -37.5t126.5 -9.5q62 0 105 2t69 2
q25 0 42.5 17.5t17.5 42.5t-17.5 42t-42.5 17q-26 0 -67 -2q-43 -2 -107 -2q-56 0 -90 6q-4 1 -11.5 2t-10.5 2q-9 15 -9 45q-2 37 11 123q23 127 90 350l49 164q43 135 60.5 192.5t38 152.5t16.5 145q-4 61 -20 110.5t-45 87.5t-77 55t-110 9q-70 -11 -100 -39t-42 -101
q-11 -78 -8 -258z" />
    <glyph glyph-name="three" unicode="3" horiz-adv-x="634" 
d="M-2 324q0 -54 0.5 -79.5t4 -64.5t10.5 -61t20 -47.5t33 -46.5q37 -37 73 -48q73 -21 146 21q91 52 135 147q11 32 20 72q11 54 11 160q0 8 -1 19.5t-2 29.5t-2 31l-4 57q-6 121 -39 188q-18 40 -45 64q41 47 52 84q32 91 35.5 218t-21.5 220q-19 75 -64.5 131t-105.5 74
q-72 20 -131 -20t-90 -132q-17 -49 -21 -124.5t4 -112.5q1 -25 20 -41t44 -14q25 1 41 19.5t14 43.5q-9 138 8 193q17 51 45 69q16 10 33 4q26 -8 51 -40.5t37 -77.5q20 -79 17.5 -187t-27.5 -186q-9 -27 -66 -78q-8 0 -28 -4q-7 0 -15 -2q-38 -3 -67 -23q-33 -26 -25.5 -71
t49.5 -58q51 -14 121 35q16 -9 27 -35q26 -57 29 -141q0 -2 4 -68t4 -133q-3 -69 -23 -114q-25 -60 -76.5 -89.5t-80.5 0.5q-23 23 -29 66t-6 152q0 25 -17.5 42t-42.5 17t-42 -17t-17 -42z" />
    <glyph glyph-name="four" unicode="4" horiz-adv-x="620" 
d="M-18 682q-9 -47 14 -80q18 -27 84 -43q105 -19 194 -16q31 0 41 2q-9 -335 -2 -510q0 -24 18.5 -41t43.5 -17q24 0 40.5 18.5t16.5 43.5q-4 184 2 516q6 392 -4 524v68q-3 121 -14 225q-1 11 -8 45l-7 21q-10 21 -22 30q-26 22 -61 11.5t-42 -47.5q-2 -22 7 -62
q2 -6 2 -12q2 -28 12 -103q3 -17 10 -92q7 -180 4 -291q-3 -99 -12 -161q-3 -27 -10 -49h-17q-69 -3 -168 14h-2q4 20 4 24q4 123 7 332q3 284 10 383q2 25 -14 44t-41 20q-25 2 -44 -14.5t-20 -41.5q-7 -171 -10 -385q-3 -251 -6 -333v-5z" />
    <glyph glyph-name="five" unicode="5" horiz-adv-x="661" 
d="M-6 1317q-2 -129 2 -387q0 -50 2 -66q0 -14 2 -20v-8q0 -7 2 -9l12 -22q27 -35 92 -35q24 0 82 6q52 6 74 6q25 0 29 -4q16 -9 31 -57q18 -65 26 -131q16 -151 8 -246q-16 -205 -127 -227q-10 0 -20 -2q-13 13 -21 37q-15 41 -24 104q-17 112 -17 205q0 25 -17 42t-42 17
t-42 -17t-17 -42q0 -229 49 -352q29 -74 69 -97.5t107 -9.5q194 34 221 334q7 107 -6 230.5t-35 191.5q-25 81 -65 112t-105 31q-32 0 -90 -6q-44 -6 -57 -6q-2 12 -2 43q-4 258 -2 383v41q9 0 71 4l142 6q24 1 39.5 21t13.5 45q-1 24 -21 39.5t-45 13.5h-22q-8 -1 -26 -2
t-27 -2q-23 -2 -60 -2l-84 -6q-18 -3 -31 -3q-4 -2 -10 -2q-8 0 -10 -2q-11 0 -24.5 -15t-18.5 -30q0 -8 -2 -12q0 -15 -2 -25q-2 -16 -2 -67z" />
    <glyph glyph-name="six" unicode="6" horiz-adv-x="720" 
d="M3 693.5q6 -245.5 38 -412.5q46 -220 137 -267q142 -79 244 29q65 69 93 210.5t20 299.5q-7 142 -41 209.5t-103 93.5q-64 27 -143.5 13.5t-128.5 -66.5q2 185 22 348.5t54 214.5q10 17 21 21t42 4q53 0 82.5 -45.5t34.5 -128.5q2 -25 20 -41t43 -15t41.5 20t14.5 44
q-5 78 -29.5 140t-78 103.5t-128.5 40.5q-58 0 -95.5 -16t-66.5 -61q-49 -75 -76 -295q-23 -198 -17 -443.5zM125 569q22 12 31 37q25 83 46 111.5t70 34.5q81 12 109.5 -33.5t34.5 -173.5q8 -134 -14 -254t-68 -168q-39 -34 -76.5 -17t-58.5 64q-25 63 -41 135
q-25 134 -33 264z" />
    <glyph glyph-name="seven" unicode="7" horiz-adv-x="663" 
d="M-12 1362q0 -25 17 -42t42 -17q37 0 203 30l104 21h6q0 -37 -8 -84l-20 -107q-12 -58 -19 -78q-17 -103 -41 -215q-34 -156 -41 -221q-21 -173 -26 -207q-12 -77 -41.5 -178t-67.5 -176q-11 -23 -3.5 -46.5t30.5 -33.5q23 -11 46.5 -3.5t33.5 30.5q38 75 78 207
q10 38 18 70.5t12.5 55t10 59t8 54.5t9.5 70.5t11 81.5q8 76 37 213q42 198 45 219q0 9 14 72q35 175 33 231q-4 87 -65 109q-6 2 -23 2h-6q-8 0 -14 -2l-37 -7l-107 -20q-164 -29 -180 -29q-25 0 -42 -17t-17 -42z" />
    <glyph glyph-name="eight" unicode="8" horiz-adv-x="659" 
d="M20 1112q11 -88 41.5 -146t90.5 -130q-58 -92 -76 -146q-76 -198 -41 -450l2 -19l8 -53q2 -10 8 -29l10 -30q5 -23 29 -58q15 -23 45 -49q122 -71 225 6q91 70 109 178q12 88 -13 241.5t-75 281.5q-23 62 -82 133q84 119 113 170q63 121 53.5 223.5t-94.5 194.5q2 2 2 6
q2 25 -13.5 44.5t-39.5 20.5q-120 9 -191 -47q-70 -56 -97 -147.5t-14 -194.5zM136 1205.5q4 41.5 14.5 77.5t38 63.5t67.5 33.5q85 -76 94 -157q5 -60 -25 -122t-102 -165q-35 43 -55.5 84t-28.5 108q-7 36 -3 77.5zM154 256q-31 225 32 393q13 35 45 88q27 -37 41 -73
q45 -111 68 -249.5t12 -207.5q-11 -67 -57.5 -102t-87.5 -5q-22 13 -33.5 49t-19.5 107z" />
    <glyph glyph-name="nine" unicode="9" horiz-adv-x="724" 
d="M-23.5 910.5q-1.5 -93.5 26 -167.5t83.5 -98q40 -15 89.5 -12.5t86.5 16.5q100 43 158 150q-11 -225 -96 -405t-238 -271q-20 -12 -26 -37t6 -45t36.5 -26.5t44.5 5.5q120 75 199 183q144 188 186 502q31 301 -63 536l-2 6q-9 49 -61 172l-15 25q-2 2 -5 5.5t-5.5 6
t-5.5 4.5l-4 4q-19 29 -52 29q-78 0 -143.5 -55t-107 -139.5t-66.5 -192.5q-24 -102 -25.5 -195.5zM100 850q-12 104 18 233.5t87 210.5q43 59 78 72q1 -1 2.5 -4l3 -6t2.5 -6q3 -9 18 -39l25 -51q5 -15 20 -50q25 -147 -9.5 -279t-127.5 -171q-12 -5 -43 -7.5t-39 -0.5
q-26 12 -35 98z" />
    <glyph glyph-name="colon" unicode=":" horiz-adv-x="571" 
d="M147 971q7 -83 60.5 -121.5t109.5 -5.5q27 18 37 47q13 40 -12.5 73.5t-83.5 45.5q-20 29 -57 26q-24 -1 -40 -20.5t-14 -44.5zM180 190q0 -95 23 -149q18 -34 47 -47q37 -14 74 5t55 71q33 101 -60 145q-3 1 -7.5 2t-6.5 2q-8 2 -12 6l-8 4q-18 21 -45 21
q-25 0 -42.5 -17.5t-17.5 -42.5z" />
    <glyph glyph-name="semicolon" unicode=";" horiz-adv-x="557" 
d="M135 967q8 -83 58 -124.5t106 -6.5q27 19 36.5 48t-3.5 62q-21 46 -94 68q-21 21 -50 18q-24 -1 -39.5 -20.5t-13.5 -44.5zM154 174q0 -111 55 -151q22 -14 37 -17q0 -8 -2 -12q-7 -22 -39 -57q-17 -20 -17 -43q0 -24 18.5 -41t43.5 -17t41 19q46 48 61.5 90.5
t20.5 117.5q0 11 -4 27q8 32 -4 68q-26 69 -132 75h-20q-25 0 -42 -17t-17 -42z" />
    <glyph glyph-name="less" unicode="&#x3c;" horiz-adv-x="591" 
d="M-35 526q3 -47 51 -120q34 -60 123 -183.5t152 -195.5q18 -19 41.5 -21.5t42.5 14.5t21 41t-15 43q-59 67 -138 178t-126 185q-26 47 -27 49t-2 5.5t-2 4.5l2 6q3 6 31 52l98 149l180 252q13 19 9 43.5t-23 38.5q-20 14 -45.5 9t-38.5 -25l-178 -250q-70 -98 -103 -154
q-6 -12 -12.5 -23t-13 -21.5t-8.5 -14.5q-19 -44 -19 -62z" />
    <glyph glyph-name="equal" unicode="=" horiz-adv-x="757" 
d="M33 487q0 -25 17 -42t42 -17q269 0 367 10q25 5 40.5 24.5t12.5 43.5q-3 23 -22.5 38t-43.5 13q-92 -10 -354 -10q-25 0 -42 -17.5t-17 -42.5zM43 721q1 -24 20 -40.5t43 -14.5q69 5 205 10q131 6 213 18q24 5 38.5 25.5t10.5 44.5q-5 24 -25 38.5t-44 10.5
q-77 -12 -199 -18q-112 -4 -207 -11q-24 -1 -40.5 -20t-14.5 -43z" />
    <glyph glyph-name="greater" unicode="&#x3e;" horiz-adv-x="622" 
d="M-36 90q3 -24 22 -39t43 -13t41 21l200 258q59 79 111 158q26 41 39 64q43 82 -23 135q-4 2 -10 8l-4 4h-2q-2 0 -4 2q-67 71 -148 172l-147 178q-17 19 -41 21t-43 -15q-19 -18 -21 -41t15 -42l145 -177q99 -120 154 -178q10 -10 20 -18q-10 -20 -28 -47
q-72 -104 -109 -152l-199 -256q-14 -19 -11 -43z" />
    <glyph glyph-name="question" unicode="?" horiz-adv-x="745" 
d="M31 1024q-6 -23 7 -44.5t38 -25.5q23 -6 44 7t25 38q13 69 21 207q6 118 33 170q24 52 73 43q112 -21 152 -231q7 -38 11 -75.5t5 -81t1 -71t-1.5 -81.5t-1.5 -76q-3 -57 -14 -70q-2 -2 -21 -6l-79 -4q-23 -2 -55 -15t-56 -32q-61 -52 -55 -178q5 -52 10 -84q6 -47 6 -60
q1 -25 20 -41t44 -14q25 1 41 19.5t14 43.5l-8 68q-5 42 -7.5 66.5t0 53t13.5 36.5q18 18 47 18q24 0 78 4q67 8 102 53.5t39 137.5l4 196q2 108 -22.5 225.5t-71.5 192.5q-29 47 -76 79.5t-98 43.5q-63 11 -117 -16.5t-84 -89.5q-36 -73 -45 -216q-9 -153 -16 -190z
M135 168q1 -8 2 -25t2 -24q17 -97 86 -109q36 -7 66 12t49 52q25 49 17.5 84t-33 54.5t-58.5 20.5h-24l-2 3q-20 23 -50 20q-25 -1 -41 -19.5t-14 -43.5v-25z" />
    <glyph glyph-name="at" unicode="@" horiz-adv-x="892" 
d="M-27 565q0 -134 25 -250q37 -151 129.5 -230.5t245.5 -66.5q66 8 166 39q50 17 61 19q24 6 36.5 26.5t6.5 44.5t-27 36.5t-45 6.5q-42 -9 -98 -26q-85 -25 -108 -27q-106 -10 -165 41.5t-85 163.5q-25 106 -25 227q0 68 2 123v103v75q-3 64 0 91q0 75 14 157
q34 161 156 199q50 17 115 14q49 -3 71.5 -14t42 -46.5t41.5 -115.5q35 -125 50.5 -280t3.5 -267q-3 -49 -17 -90q-7 -23 -23.5 -33.5t-25.5 -5.5q-16 2 -43 80l6 39q17 128 9 340q-4 134 -19 199q-10 44 -27 59l-8 6q-4 20 -21 32.5t-38 12.5h-27q-38 0 -63 -6
q-36 -8 -76 -37q-56 -46 -82 -180q-23 -114 -24 -255.5t22 -248.5q28 -138 104 -168q118 -44 189 56q30 -33 61 -41q66 -21 135 24q73 44 87 205q11 115 -5 295q-18 174 -58 312.5t-93 185.5q-36 34 -95 49.5t-118 12.5t-111 -19q-187 -58 -233 -289q-13 -58 -15 -94
q-6 -78 -4 -181v-73v-99q-3 -85 0 -131zM226.5 767q1.5 129 21.5 232q21 96 39 111q21 18 53 18v-8l-6 -100q-14 -311 22 -463q-13 -56 -31.5 -80t-48.5 -14l-10 14q-14 27 -22 68q-19 93 -17.5 222z" />
    <glyph glyph-name="A" unicode="A" horiz-adv-x="735" 
d="M20 1184q3 -70 3 -76q0 -160 14 -557l8 -254q4 -55 4 -103q0 -91 -14 -153q-6 -25 6 -45.5t37 -26.5q8 -2 16 -2q16 0 30 8q20 12 26 37q19 72 19 176q0 52 -5 113q-3 34 -12 358q6 -2 16 -2q30 0 135 -6q66 -3 109 -6q7 -233 8 -268q2 -36 2 -64.5t-2 -50.5
q-1 -26 -1 -51q0 -102 13 -195q5 -25 25 -39q16 -11 34 -11q5 0 11 1q25 5 39 25q11 16 11 34q0 5 -1 11q-12 85 -13 182q0 19 1 39q2 26 1.5 57t-1.5 66q-15 550 -56 827q-11 74 -32.5 132t-57.5 103.5t-91 67.5q-42 17 -93 17q-16 0 -33 -2q-69 -6 -98.5 -29t-46.5 -92
q-12 -50 -12 -168q0 -25 1 -53zM139 1188q-1 36 -1 65q0 89 7 125q2 14 11 27q14 0 32 2q9 1 17 1q65 0 101 -48q42 -54 59 -168q30 -217 41 -428q-234 12 -238 12q-9 0 -21 -4q-6 194 -6 336q0 33 -2 80z" />
    <glyph glyph-name="B" unicode="B" horiz-adv-x="909" 
d="M98 1303v-58q0 -233 27 -596q1 -17 3 -41.5t5.5 -61t5.5 -63.5q3 -33 8.5 -86t6.5 -71q8 -101 8 -177q0 -85 -10 -139q-1 -25 13.5 -42.5t39.5 -22.5q16 -33 54 -33h7q180 25 309 117q70 48 110 128t40 181q0 265 -229 377q52 42 86 100t46 121q9 50 9 101q0 13 -1 26
q-3 64 -20 125q-35 121 -132.5 203t-229.5 88q-6 0 -12 2q-5 1 -10.5 1.5t-9 1t-5.5 1.5h-13q-37 0 -63 -15q-35 -20 -39 -79q-4 -46 -4 -88zM217 1300q0 48 2 64h2q20 -4 29 -4q136 -6 211 -122q56 -87 56 -195q0 -38 -7 -78q-9 -57 -39 -103q-31 -48 -67 -68t-107 -26h-39
q-16 0 -22 -2q-19 357 -19 499v35zM244 643q19 -3 41 0q14 2 24 2q81 -6 150 -43q74 -40 110.5 -102.5t36.5 -161.5q0 -127 -87.5 -203t-244.5 -102q6 51 6 111q0 22 -1 46q-3 113 -21 306q-2 26 -7.5 77.5t-6.5 69.5z" />
    <glyph glyph-name="C" unicode="C" horiz-adv-x="921" 
d="M137 909q3 -210 29.5 -433.5t66.5 -305.5q58 -119 164 -166q54 -24 100 -24q17 0 35 4q60 14 100 56t66 112q39 113 39 317q0 25 -17 42t-42 17t-42.5 -17t-17.5 -42q0 -187 -32 -279q-24 -62 -54 -80q-13 -8 -31 -8q-23 0 -55 13q-64 26 -106 108q-34 68 -57 277.5
t-25 410.5q0 37 -1 72q0 155 9 272q12 107 60 145q28 22 61 23q24 0 51 -12q76 -32 124 -127q41 -83 41 -191q0 -16 -1 -32q-2 -25 14 -44t41 -20q25 -2 44 14.5t20 41.5q1 21 1 42q0 137 -58 249q-67 128 -179 178q-52 22 -100 22q-65 0 -121 -40q-98 -70 -117 -236
q-11 -121 -11 -282q0 -38 1 -77z" />
    <glyph glyph-name="D" unicode="D" horiz-adv-x="876" 
d="M104 1196q1 -15 4.5 -39.5t4.5 -34.5q2 -23 2 -41q2 -8 8 -123l10 -139l17 -276v-133q2 -44 2 -79t-2 -61q-4 -130 -19 -245q-3 -25 12 -43q12 -18 33.5 -23.5t32.5 0.5q19 -19 41 -19q11 0 24 5q134 56 229.5 154.5t137.5 219.5q41 117 50 253q2 37 2 73q0 97 -17 189
q-23 140 -71.5 262.5t-145.5 246.5q-121 158 -232 158q-31 0 -61 -12q-50 -22 -62 -103q-6 -43 -6 -90.5t6 -99.5zM221 1368q1 2 2 7t2 7q16 0 45 -16q39 -24 95 -96q95 -121 135 -230q75 -209 75 -405q0 -79 -12 -156q-22 -136 -101 -244.5t-206 -168.5q12 137 12 259v35
q-2 59 -2 144q0 2 -14 303l-10 154q-9 123 -9 129l-4 40l-6 70q-5 64 -5 109q0 35 3 59z" />
    <glyph glyph-name="E" unicode="E" horiz-adv-x="741" 
d="M104 1223v-31q0 -161 17 -567q8 -159 8 -195v-43q-1 -11 -2 -38.5t-2 -41.5q-4 -132 -4 -207q1 -8 2 -25t2 -24q0 -33 16 -51q26 -31 95 -35q32 -1 64 -1q64 0 130 5l68 4q25 0 42 17.5t17 42.5t-17 42t-42 17l-70 -4q-70 -5 -128 -5q-29 0 -56 1h-2q0 10 -2 18
q0 65 4 205q1 15 2 43t2 41v43l-10 223h8q45 3 90 5.5t66.5 4t27.5 1.5q25 0 42 17t17 42t-17 42t-42 17q-7 0 -192 -10h-5l-6 156q-4 157 -4 242v49q0 75 2 100q0 17 4 29v4q6 6 17 8q27 6 69 6q78 -3 148 -24q24 -6 45.5 5t28.5 35q6 24 -5.5 45.5t-35.5 28.5
q-90 26 -177 29h-14q-144 0 -184 -82q-17 -38 -17 -184z" />
    <glyph glyph-name="F" unicode="F" horiz-adv-x="716" 
d="M84 1241q2 -70 16 -258q3 -42 31 -346l6 -90q5 -124 5 -225q0 -195 -19 -304q-4 -24 10 -43t39 -24q7 -2 14 -2q16 0 30 10q20 14 26 39q19 117 19 320q0 105 -5 233q-1 6 -4 46t-6 75q121 0 198 6q25 2 41 20t15 43t-20 41.5t-44 14.5q-74 -6 -200 -6l-17 200
q-14 189 -15 256q-2 26 -2 47.5t2 38.5v21q3 1 8.5 4t8.5 4q22 7 82 10q28 1 56 1q55 0 108 -5q25 -2 44.5 13.5t20.5 39.5v6q0 22 -14 39q-16 20 -39 21q-66 6 -120 6q-33 0 -62 -2q-160 -4 -201 -82q-12 -25 -12 -125v-43z" />
    <glyph glyph-name="G" unicode="G" horiz-adv-x="776" 
d="M92 557q0 202 6 399q2 63 2 119q1 82 4 131t14 106t34 96.5t61 66.5q35 24 88 26h10q48 0 97 -17q54 -20 100 -73t63 -129q13 -54 13 -134q0 -55 -6 -122q-1 -24 -21 -39.5t-45 -13.5q-24 1 -39.5 20.5t-13.5 44.5q6 62 6 112q0 77 -13 124q-22 77 -104 102
q-22 7 -38.5 7t-26.5 -7q-36 -25 -49 -94t-15 -207q0 -56 -2 -119q-6 -196 -6 -397q10 -389 53 -455q12 -20 46 -35q28 -12 57 -12q7 0 14 1q37 3 51 32q0 9 2 23l10 69q21 242 21 389q1 20 1 36t-1 28q0 12 -2 14l2 -14q-14 5 -29 2q-18 -6 -39 -6q-33 -2 -58 19
q-17 15 -17 39q0 12 4 26q10 32 41 43q6 4 26 8q28 4 53 4q36 0 50 -2q4 -1 11.5 -2t10.5 -2q21 -6 37 -19q24 -27 27 -69q2 -6 2 -21v-12q9 -110 9 -280q0 -46 -1 -97q0 -68 -2 -160q-4 -184 -4 -208q0 -25 -17.5 -42.5t-42.5 -17.5t-42 17.5t-17 42.5v63q-40 -22 -90 -22
q-35 0 -75 11q-98 25 -140 93q-60 100 -70 514z" />
    <glyph glyph-name="H" unicode="H" horiz-adv-x="843" 
d="M109 1401q8 -30 14 -72q8 -68 10 -139q1 -13 1.5 -30t1 -27.5t1.5 -16.5q13 -241 17 -342v-700q0 -25 17 -42.5t42 -17.5t42 17.5t17 42.5q0 542 -2 620q140 6 256 21q15 -335 15 -633q0 -25 17 -42t42 -17t42 17t17 42q0 549 -59 1370q-2 25 -20 41q-16 14 -38 14h-5
q-25 -2 -41 -20t-15 -43q24 -349 39 -610q-114 -15 -252 -21q-3 167 -12 311q0 12 -8 152q-5 83 -25 154q-6 24 -26.5 36.5t-44.5 6.5t-36 -27q-8 -14 -9 -30q0 -7 2 -15z" />
    <glyph glyph-name="I" unicode="I" 
d="M-47 18q0 -25 16.5 -43t40.5 -18q14 -1 29 -1q76 0 186 13q6 -2 15 -2q14 0 26 6q156 17 209 17q25 0 42.5 17t17.5 42t-17.5 42.5t-42.5 17.5q-61 0 -178 -13q-5 91 -10 135q-12 137 -15 197q-3 0 -3 117t3 352v475q109 0 154 2q24 0 40.5 18.5t16.5 43.5q0 24 -18 40.5
t-43 16.5q-41 -2 -391 -2q-25 0 -42.5 -17t-17.5 -42t17.5 -42.5t42.5 -17.5h123v-4q0 -168 -2 -297t-2 -350q0 -288 18 -500q3 -29 5 -56.5t3 -50.5t2 -30q-91 -8 -144 -9q-11 0 -20 1q-25 0 -43 -17t-18 -41z" />
    <glyph glyph-name="J" unicode="J" horiz-adv-x="651" 
d="M25 350q0 -102 24 -184q27 -82 81 -136.5t118 -60.5q12 -2 23 -2q61 0 106 47q53 54 72 154q14 87 14 242v57q-1 44 -1 75.5t1 49.5q3 41 3 146t-3 274q-6 338 -6 420q0 25 -17.5 42t-42.5 17t-42 -17t-17 -42q0 -84 6 -418q3 -168 3 -272t-3 -146q-2 -40 -2 -75t2 -66
q1 -33 1 -62q0 -134 -15 -205q-3 -25 -13 -49q-14 -37 -30 -45q-12 -8 -25 -8q-26 2 -54 33t-44 84q-21 65 -21 149q0 51 2 90v84q0 25 -17 42.5t-42 17.5t-42 -17.5t-17 -42.5v-77q-2 -41 -2 -99z" />
    <glyph glyph-name="K" unicode="K" horiz-adv-x="706" 
d="M55 1448q4 -122 15 -414q20 -617 20 -946q0 -25 17.5 -42t42.5 -17t42 17t17 42q0 278 -12 668q114 -91 160 -261.5t46 -461.5q0 -25 17.5 -42.5t42.5 -17.5t42 17.5t17 42.5q0 320 -58.5 520.5t-213.5 310.5q102 102 163.5 267t61.5 317q0 25 -17 42t-42 17t-42.5 -17
t-17.5 -42q0 -120 -46 -253t-120 -220q-4 118 -8 228t-5 171t-3 78q0 24 -18 40.5t-43 16.5q-24 0 -41 -18t-17 -43z" />
    <glyph glyph-name="L" unicode="L" horiz-adv-x="710" 
d="M74 1452q-1 -45 -1 -100q0 -182 15 -469q21 -399 21 -561q0 -6 -3 -70q-3 -47 -3 -87q0 -76 12 -126q17 -64 49 -84q30 -18 80 -18h10q32 0 162 10q11 1 23 2t18.5 1.5t9.5 0.5q25 0 42 17t17 42t-17 42.5t-42 17.5q-4 0 -12 -0.5t-22.5 -1.5t-26.5 -2l-80 -7
q-62 -4 -74 -4h-16q-1 1 -5 13q-9 38 -9 98q0 36 3 80q2 45 2 76q0 184 -20 567q-15 287 -15 463q0 53 1 96q0 25 -17 43t-41 18q-25 0 -43 -16.5t-18 -40.5z" />
    <glyph glyph-name="M" unicode="M" horiz-adv-x="985" 
d="M14 1417l13 -45q0 -147 28 -667q19 -341 19 -551q0 -67 -2 -121q0 -25 16.5 -43.5t40.5 -18.5q25 0 43 17t18 41q2 63 2 141q0 216 -18 543l-10 178q82 -305 129 -522q5 -28 35 -142l32 -133v-28q4 -29 11 -41q18 -34 53 -38.5t57 17.5q23 33 31 62q29 101 45 256
q34 297 84 577q10 -375 41 -870q2 -25 20 -41t43 -15t41 20q15 17 15 39v5q-47 711 -47 1382q0 25 -17.5 42.5t-42.5 17.5q-40 0 -55 -37q-15 -12 -18 -33l-76 -373q-49 -257 -107 -702q-2 -11 -6 -45l-24 104q-49 245 -177 697q-73 244 -86 299q0 14 -6 26l-10 35
q-5 23 -27 35q-14 8 -30 8q-8 0 -15 -2q-25 -5 -37 -27q-8 -14 -8 -31q0 -8 2 -16z" />
    <glyph glyph-name="N" unicode="N" horiz-adv-x="768" 
d="M63 1327q4 -4 7 -16l2 -11l2 -6v-63q1 -12 4.5 -77.5t7 -133t4.5 -102.5q6 -187 6 -351q0 -311 -22 -544q-2 -25 13.5 -45t39.5 -21h6q22 -1 39 13q20 16 21 40q22 241 22 556q0 167 -6 356q0 25 -2 39q46 -181 98 -443q21 -114 47 -223q1 -6 4 -17.5t9 -33t10 -39.5
q17 -81 22 -113v-31q-3 -23 6 -41q18 -43 66 -43q45 0 66 46q7 18 10 43q12 70 12 258q0 203 14 542q13 390 13 543q0 25 -17.5 42t-42.5 17t-42 -17t-17 -42q0 -177 -12 -500q-13 -353 -13 -456l-61 292q-50 238 -109 426l-41 119q-13 40 -28 74q-13 26 -15 29l-12 16
q-19 19 -45 20.5t-47 -16.5q-24 -21 -24 -53q0 -15 5 -33z" />
    <glyph glyph-name="O" unicode="O" horiz-adv-x="757" 
d="M158 1268q-15 -111 -15 -288q0 -237 27 -593q2 -14 2 -76q0 -69 2 -92q12 -126 84 -186q75 -61 139 -61h11q68 6 108 79q44 75 47 228l4 131q6 209 6 436q-3 447 -69 555q-8 15 -29 33q-1 20 -15.5 34t-35.5 19q-9 1 -27.5 4t-25 4t-20.5 3t-20 2q-7 0 -17 1h-6
q-6 0 -10 -1q-6 -1 -14.5 -3t-16 -5t-15.5 -7q-40 -23 -61 -77t-33 -140zM262 942v54q0 149 14 257q9 63 21 101q6 15 12 24q5 2 13 2t20 -2q12 0 18 -2l5 -4q10 -10 28 -24l8 -9q51 -85 54 -493q0 -228 -6 -434l-5 -133q-3 -115 -30 -170q-10 -16 -19 -19h-3q-17 0 -56 33
q-22 18 -32.5 53.5t-11.5 59t-1 75.5q0 70 -2 84q-24 317 -27 547z" />
    <glyph glyph-name="P" unicode="P" horiz-adv-x="720" 
d="M59 1358q1 -31 21 -283q33 -434 33 -745q0 -179 -11 -318q-1 -25 15 -43t41 -20h5q23 0 39 14q18 16 19 41q13 157 13 361q0 97 -3 204q226 64 285 215q22 59 22 152q0 22 -2 46q-6 126 -42 241q-44 146 -128 226q-62 59 -140 59q-27 0 -56 -7q-76 -15 -100 -59
q-9 -12 -9 -29q-2 -4 -2 -16v-39zM178 1362v20l17 4q11 2 22 2q44 0 80 -38q49 -53 82 -157.5t39 -215.5q2 -29 2 -55q0 -23 -2 -43q-4 -43 -20.5 -76t-58 -60.5t-114.5 -50.5q-12 210 -26 391q-18 202 -21 279z" />
    <glyph glyph-name="Q" unicode="Q" horiz-adv-x="841" 
d="M115 1212q-3 -58 -3 -154q0 -130 6 -328q9 -346 21 -480q17 -179 47 -221q32 -42 86 -65q49 -20 91 -20h8q46 2 82 17q47 -67 104 -121q18 -16 40 -16h3q24 1 41 20q16 16 16 38q0 26 -18 44q-58 52 -104 125q10 25 18 47q22 74 25 224q2 68 2 143q0 186 -11 412
q-17 442 -82 538q-39 58 -77 72q-49 12 -81 12q-34 0 -48 -14q-80 -17 -120 -82t-46 -191zM233 1204q6 101 29 136q19 29 65 29q8 0 17 -1q13 -3 29 4q3 -5 16 -22q21 -30 39 -166q14 -108 23 -312q10 -207 10 -392q0 -79 -2 -154q-1 -20 -1.5 -44.5t-1 -40.5t-1.5 -26
l-9 25q-7 24 -29 34.5t-46 4.5q-24 -7 -34.5 -29.5t-4.5 -46.5q25 -74 59 -140q-7 -1 -14 -1t-15 1q-56 9 -81 37v2q0 2 -4 16t-5 23q-7 32 -14 119q-13 151 -22 477q-6 188 -6 314q0 93 3 153z" />
    <glyph glyph-name="R" unicode="R" horiz-adv-x="909" 
d="M102 1378v-17q0 -77 15 -220l6 -80q7 -162 10 -369q1 -59 1.5 -135t1 -118t1.5 -66l4 -86q2 -47 2 -99q0 -88 -12 -161q-6 -25 8 -45t39 -25q7 -2 14 -2q15 -1 29 9q20 14 25 38q16 67 16 188q0 54 -2 103l-4 84q-1 31 -2 105t-2 112q56 12 123 45l63 -162
q49 -119 82 -209q2 -8 25 -78q37 -124 67 -184q11 -20 34.5 -28t45.5 2q22 12 30 34q3 10 3 19q0 13 -6 26l-31 72l-29 92l-28 82q-26 82 -80 217q-59 138 -76 189q56 53 86 127q29 68 37 154q2 26 3 52q1 60 -13 120q-18 86 -57.5 158.5t-110.5 119.5t-162 51q-6 0 -12 2
q-10 2 -23 2q-8 1 -16 1q-32 0 -53 -11q-14 -8 -23.5 -20t-15 -28.5t-8 -28.5t-5.5 -32zM221 1368q0 8 2 10l6 -2q10 -2 25 -2q80 -5 127 -42t70 -115q30 -105 30 -189q0 -78 -26 -140q-53 -128 -205 -173q-3 250 -8 350q0 13 -9 84q-12 118 -12 192v27z" />
    <glyph glyph-name="S" unicode="S" horiz-adv-x="749" 
d="M119 1034v-16q0 -114 41 -180q14 -25 37 -45q29 -32 84 -56q8 -4 25.5 -10t31 -10t14.5 -4q33 -13 51 -31q14 -15 21.5 -41t8.5 -44t1 -50q-2 -33 -2 -68l6 -86q6 -70 6 -148v-40q-8 -67 -30 -95t-67 -28h-3q-28 0 -37.5 5t-21.5 26q-30 53 -33 170v108q1 17 1 34
q0 35 -3 73q-1 24 -21 39.5t-45 13.5q-24 -1 -39.5 -21t-13.5 -45q3 -33 3 -63q0 -15 -1 -29v-112q3 -151 49 -230q28 -48 64.5 -67t93.5 -21h12q94 0 144 59q54 63 65 171q3 39 2 81q0 65 -6 134q-6 65 -6 75q0 29 2 60q0 53 -2 71q-11 88 -49.5 135.5t-108.5 73.5l-35 13
l-32 12l-23 12q-21 7 -41 39q-24 36 -26 103q-1 16 0 31q0 48 6 85q6 64 6 84q6 140 47 184q15 15 41 0q52 -32 86 -124q25 -68 25 -141q0 -26 -3 -52q-1 -25 14 -42.5t40 -20.5q24 -3 42 11.5t23 39.5q3 29 3 58q0 103 -37 198q-47 122 -130 174q-35 27 -81 27h-14
q-55 -4 -95 -46q-71 -77 -80 -262q0 -14 -6 -78q-4 -78 -4 -94z" />
    <glyph glyph-name="T" unicode="T" horiz-adv-x="770" 
d="M-2 1409q0 -25 17 -42t42 -17q76 0 152 8q4 -285 14 -643q10 -485 10 -664q0 -25 17.5 -42t42.5 -17t42 17t17 42q0 228 -12 668q-12 439 -12 651q118 14 198 14q25 0 42.5 17.5t17.5 42.5t-17.5 42t-42.5 17q-83 0 -239 -18q-173 -17 -230 -17q-25 0 -42 -17t-17 -42z
" />
    <glyph glyph-name="U" unicode="U" horiz-adv-x="688" 
d="M39 1430q41 -538 41 -1160q0 -20 -2 -34q-2 -16 -2 -27q-1 -12 -1 -24q0 -34 7 -60q21 -76 113 -129q49 -30 97 -36q14 -2 26 -1q32 0 62 11q41 16 70 62.5t39 117.5q6 40 9 102v76q5 209 5 323v35q-1 114 -7 358q-7 266 -7 359q0 25 -17 42t-42 17t-42 -17t-17 -42
q0 -131 6 -356q6 -243 7 -357v-35q0 -114 -5 -323v-80q-1 -46 -3.5 -74t-14 -60.5t-31.5 -39.5q-6 -2 -13 -1q-25 0 -63 22q-50 29 -57 59q-4 22 -2 43l4 69q0 627 -41 1168q-1 25 -20 41q-17 14 -39 14h-5q-25 -1 -41 -19q-14 -16 -14 -39v-5z" />
    <glyph glyph-name="V" unicode="V" horiz-adv-x="661" 
d="M6 1444q53 -278 98 -508l91 -447q41 -219 53 -337q2 -14 2 -84q0 -29 2 -37q2 -25 17 -41.5t40 -16.5h6q43 0 56 39q7 22 8 27t2 18.5t2 20.5q8 75 27 309q58 749 67 1059q0 25 -16.5 43t-40.5 18q-25 0 -43.5 -16.5t-18.5 -40.5q-9 -322 -55 -901l-82 418
q-76 380 -96 497q-6 25 -26 39q-16 11 -34 11q-5 0 -10 -1q-25 -5 -39 -25q-11 -15 -11 -34q0 -5 1 -10z" />
    <glyph glyph-name="W" unicode="W" horiz-adv-x="948" 
d="M6 1434q6 -91 37 -244q37 -197 48.5 -269.5t35.5 -277.5q19 -187 37 -307l33 -205l12 -84l6 -27v-6q0 -2 2 -4v-4q2 -2 2 -8q2 -2 6 -10l6 -6q14 -19 43 -19q35 0 60 31q9 12 18 33q3 8 5 13.5t4.5 14.5t4 15t4.5 21.5t5 27t7 39.5t9 51q29 186 41 336q1 -9 3.5 -22.5
t4 -23t2.5 -16.5q41 -244 47 -282l11 -60q3 -18 6 -39t4 -24v-4q0 -19 -4 -23v-8q0 -49 33 -70q15 -10 33 -10q8 0 14 1q26 5 43 28q8 12 10 20q6 11 14 41l25 107l14 71l13 68l4 37q41 206 49 444q6 170 6 439q-2 104 -2 206q0 25 -17.5 42.5t-42.5 17.5t-42 -17.5
t-17 -42.5q0 -104 2 -208q0 -265 -6 -431q-9 -236 -45 -430l-4 -20q-4 20 -29 168q-34 186 -69 467q-17 136 -27 241v62q0 16 2 26q0 21 2 35q0 15 1 42t1 34q-4 27 -20 43q-30 22 -59 13.5t-38 -31.5l-6 -15q-8 -24 -8 -85q0 -42 4 -101q0 -17 2 -27q0 -93 -4 -211
q-21 -437 -55 -678l-4 33q-25 170 -39 307q-24 212 -35.5 288t-48.5 265q-30 165 -35 230q-1 25 -20 41q-17 14 -39 14h-5q-25 -1 -41 -19q-14 -16 -14 -39v-5z" />
    <glyph glyph-name="X" unicode="X" horiz-adv-x="665" 
d="M-25 1432q12 -88 38.5 -180t80.5 -251q20 -59 60 -182l32 -102q-100 -431 -139 -654q-4 -25 10 -44.5t39 -24.5q6 -1 11 -1q19 0 34 11q20 14 25 39q28 166 86 432l113 -424q6 -23 27 -35t46 -6q23 6 35 28q8 14 8 30q0 8 -2 16l-80 301q-67 248 -92 336l2 8
q99 434 142 696q2 25 -13 45t-39 23q-25 3 -43.5 -11.5t-23.5 -39.5q-32 -222 -94 -494l-33 96q-33 93 -37 109l-29 92q-34 112 -45 203q-6 26 -24 40q-15 12 -35 12q-4 0 -8 -1q-24 -3 -39 -23q-13 -17 -13 -38v-6z" />
    <glyph glyph-name="Y" unicode="Y" horiz-adv-x="768" 
d="M12 1423q19 -73 78 -243q59 -164 82 -234l49 -147l31 -90l10 -31l2 -10q2 -2 2 -4q0 -3 2 -5t2 -4q23 -117 23 -296q0 -49 -2 -103q-1 -37 -1 -73q0 -73 5 -142q1 -25 19 -41q17 -14 39 -14h5q25 2 41 20t15 43q-4 70 -4 273q0 213 -19 333l17 19q27 39 45 86
q25 65 65 241q66 312 66 436q0 23 -15 40q-16 18 -41 20h-5q-22 0 -39 -14q-18 -16 -19 -41q-8 -142 -64 -416q-25 -130 -59 -217l-8 27l-47 147q-45 133 -84 238q-52 143 -76 231q-6 24 -27 36.5t-45 6.5t-37 -27q-8 -14 -8 -30q0 -7 2 -15z" />
    <glyph glyph-name="Z" unicode="Z" horiz-adv-x="681" 
d="M-18 1440v-6q0 -22 14 -39q16 -20 39 -21h17q40 0 165 2q51 2 94 2h29q2 2 4 2q4 0 2 -2q6 3 6 2q3 -14 -12 -41q-10 -22 -19.5 -42t-14 -30t-5.5 -12q-167 -531 -244 -893q-2 -2 -8 -30l-16 -68q-12 -55 -15 -71q-18 -79 -22 -109q-4 -32 -4 -41v-20q9 -47 51 -60l20 -6
q28 -4 50 -4q38 -4 112 -4q21 1 47 1q110 2 172 7q24 1 40 21q14 18 14 40v5q-1 24 -21 39.5t-45 13.5q-55 -6 -162 -8h-46q-71 0 -103 4h-6l18 96q7 26 17 72q15 61 16 65q6 27 6 33q86 387 244 881q0 4 33 69q20 48 20 88q0 13 -2 25q-10 57 -50 76.5t-106 19.5
q-51 0 -98 -2q-117 -2 -152 -2h-14q-25 3 -43 -12q-19 -13 -22 -41z" />
    <glyph glyph-name="bracketleft" unicode="[" horiz-adv-x="489" 
d="M6 1106l14 -141q9 -77 9 -123v-760l-6 -80q-17 -205 -15 -258q0 -23 4 -51q6 -38 25.5 -57t56.5 -25q25 -6 117 -8q25 0 43 16.5t18 40.5t-16 43q-19 21 -106 21q-17 0 -23 2v22q-2 47 14 244q6 71 6 90v760q0 43 -10 135l-12 137q-12 155 16 240q6 16 18.5 20t41.5 4
q52 4 53 4q25 5 39.5 24t11.5 44q-3 24 -22.5 38.5t-44.5 12.5q-1 0 -43 -4l-56 -6q-80 -18 -108 -96q-40 -107 -25 -289z" />
    <glyph glyph-name="backslash" unicode="\" horiz-adv-x="499" 
d="M-53 1464q2 -151 61 -409l37 -174q39 -221 72 -426q44 -291 82 -469q5 -25 24.5 -38t44.5 -7q25 5 38 24.5t7 44.5q-39 183 -82 467q-45 292 -71 424q-14 83 -35 180q-57 261 -59 387q0 24 -18.5 41t-43.5 17q-24 0 -40.5 -18.5t-16.5 -43.5z" />
    <glyph glyph-name="bracketright" unicode="]" horiz-adv-x="411" 
d="M-51 1423q0 24 18 41t43 17l29 -2h45l20 4q54 9 84 -25q10 -10 13 -22q2 -2 2 -9q2 -4 2 -16q1 -5 2 -18.5t2 -20.5q11 -98 16 -278q2 -164 2 -334q0 -115 -8 -336q-4 -97 -7 -210.5t-3 -125.5v-35q-2 -20 -2 -71q0 -22 -6 -187q0 -31 -2 -41q0 -10 -2 -14l-7 -25
q-30 -58 -96 -73l-76 -4q-25 -2 -43.5 14t-19.5 41q-2 25 14 43.5t41 19.5h39q21 0 23 2l8 4v2q2 8 2 35q6 171 6 187q0 51 2 71v35q0 11 3 123.5t7 208.5q9 246 9 334q0 89 -3 332l-8 170l-6 100h-10q-99 0 -117 20q-16 19 -16 43z" />
    <glyph glyph-name="asciicircum" unicode="^" horiz-adv-x="593" 
d="M29 649q-6 -25 6 -45t37 -26t45 6t26 37q28 117 37 221l8 100q0 1 4.5 42.5t6.5 74.5q3 82 6 100l12 -63q2 -14 74 -447q5 -25 24.5 -39t44.5 -10q25 5 39.5 25t10.5 45q-20 118 -39.5 231t-27.5 161.5t-9 55.5q-30 151 -58 244q-14 53 -34 86q-7 18 -23 33
q-27 27 -58 27t-52 -33q-9 -12 -9 -29q-1 -4 -2 -15.5t-2 -17.5q-6 -123 -6 -151q-2 -23 -2 -56q-2 -14 -2 -26q-3 -30 -6 -107q-6 -108 -17 -213q-12 -118 -34 -211z" />
    <glyph glyph-name="underscore" unicode="_" horiz-adv-x="1042" 
d="M-68 -213q1 -24 21 -39.5t45 -13.5q117 12 397 6q262 -6 412 16q25 5 39.5 24t11.5 44q-3 24 -22.5 38.5t-44.5 12.5q-126 -19 -394 -16q-300 3 -411 -6q-24 -1 -40 -21t-14 -45z" />
    <glyph glyph-name="grave" unicode="`" horiz-adv-x="534" 
d="M2.5 1469q-6.5 -24 5.5 -44q109 -179 236 -338q17 -20 41.5 -21.5t44.5 13.5q18 15 20 39.5t-12 42.5q-109 132 -227 326q-13 20 -37.5 26t-44.5 -6q-20 -14 -26.5 -38z" />
    <glyph glyph-name="a" unicode="a" horiz-adv-x="753" 
d="M16 641q-13 -91 -13 -179q0 -102 17 -198q32 -182 115 -241q56 -39 105 -39q17 0 33 5q63 18 106 95l12 25q16 -57 64 -86q6 -3 10 -7l6 -4q2 0 4 -2q19 -13 45 -10q25 5 39 25q11 16 11 34q0 5 -1 11q-1 7 -2.5 12t-4.5 10t-4.5 7t-8 6.5t-9 6t-13 7t-15.5 8.5h-2
q-6 17 -12 66q-13 88 -13 276q-2 117 -10 197v69l-6 121q-1 7 -2 20.5t-2 18.5q-1 3 -2 9t-2 9l-8 17q8 21 -0.5 43.5t-28.5 32.5q-66 31 -124 31q-95 0 -167 -85q-87 -104 -117 -311zM134 628q26 172 89 249q34 41 80 41q16 0 33 -5q-4 -10 -4 -33q0 -15 2 -36q2 -10 2 -19
q4 -68 16 -139l4 -29q-2 -155 -21.5 -299t-60.5 -219q-20 -31 -32 -35q-2 -1 -5 -2q-12 0 -32 15q-49 37 -70 184q-14 79 -14 162q0 81 13 165z" />
    <glyph glyph-name="b" unicode="b" horiz-adv-x="698" 
d="M0 1448q25 -791 25 -1374q0 -25 17 -42.5t42 -17.5t42 17.5t17 42.5v8q17 -27 33 -43q47 -47 100 -47q35 0 72 20q58 29 96.5 91t53.5 135q16 76 17 197q0 86 -9 196q-18 309 -96 387q-36 36 -86 51q-22 5 -45 5q-29 0 -59 -8q-52 -16 -89 -58q-3 214 -12 444
q0 24 -18.5 40.5t-43.5 16.5q-24 0 -40.5 -18t-16.5 -43zM162 784v4q11 46 20.5 73.5t29 55.5t46.5 35q13 4 24 4q22 0 38 -17q24 -25 42 -108q13 -63 23 -167q9 -106 11 -218q0 -10 1 -20q0 -99 -14 -164q-13 -50 -36.5 -90t-51.5 -53q-10 -4 -18 -4q-9 0 -15 6
q-25 25 -47 98q-41 139 -53 565z" />
    <glyph glyph-name="c" unicode="c" horiz-adv-x="600" 
d="M18 627q2 -55 2 -111q-3 -34 -3 -86q-1 -38 1 -88q4 -116 23 -184q12 -42 47 -90q77 -107 163 -107q13 0 25 2q67 11 104 77q36 64 36 167v6q0 14 -4 80q-1 13 -2 28.5t-1.5 24t-0.5 12.5q0 24 -18.5 41t-43.5 17q-24 0 -40.5 -18.5t-16.5 -43.5q0 -5 0.5 -14t1.5 -25.5
t2 -29.5q6 -41 6 -87v-14q-1 -54 -18 -82q-12 -20 -22.5 -22t-29.5 10q-25 17 -46 46t-27 54q-21 74 -21 203q0 56 4 123q0 58 -2 113q0 57 -1 111v9q0 49 9 101q10 57 33 96q19 31 53.5 20.5t51.5 -53.5q1 -4 8 -26q4 -12 4 -41q0 -13 -2 -27t-2 -37q-2 -25 14 -43.5
t41 -19.5q25 -2 44 14t20 41q4 27 4 54q0 62 -21 122q-13 46 -50.5 82.5t-82.5 50.5q-24 6 -47 6q-30 -1 -58 -11q-49 -18 -79 -70q-55 -93 -58 -254q-2 -24 -2 -55.5t2 -71.5z" />
    <glyph glyph-name="d" unicode="d" horiz-adv-x="661" 
d="M-14 369q10 -176 37 -238q38 -74 131 -117q47 -22 88 -22q67 0 116 59q1 -24 19 -39.5t43 -15.5q24 0 40.5 18t16.5 43q-11 317 -22 1016q0 15 -4 121q-3 55 -3 106q0 76 7 142q2 23 -13.5 42.5t-38.5 22.5h-8q-19 -1 -35 -13q-19 -16 -24 -40q-7 -71 -7 -154
q0 -55 3 -114q4 -110 4 -113v-33q-44 30 -86 40q-16 4 -31 3q-27 0 -53 -10q-42 -16 -74 -59q-62 -86 -88 -264q-19 -136 -20 -285q0 -48 2 -96zM104 375q-2 48 -2 94q0 127 16 247q22 162 68 224q18 22 34 24q1 0 3 1q15 0 37 -17q2 -2 2 -4q52 -101 64 -318q3 -59 4 -113
q0 -146 -23 -259q-15 -90 -39 -125q-7 -12 -20 -16q-5 -1 -10 -1q-16 0 -35 9q-52 24 -66 47t-22 78q-9 79 -11 129z" />
    <glyph glyph-name="e" unicode="e" horiz-adv-x="614" 
d="M12 346q6 -49 11 -80t13.5 -70.5t20 -65t29 -52t42 -44.5t56.5 -30q30 -12 61 -12q23 0 45 6q56 14 97 63q17 19 15 43t-21 41t-43 15t-41 -21q-22 -27 -50 -27q-12 0 -24 4q-42 16 -61 77q-36 107 -45 309q35 -2 92 -2q63 0 86 2q58 4 78 22q57 49 58 155q0 5 -1 11
q-2 92 -43 190.5t-100 145.5q-43 34 -89 36q-2 0 -4 -1l-88 -33q-62 -51 -90 -186q-22 -97 -22 -229q0 -119 18 -267zM115 621q0 118 18.5 204.5t50.5 112.5q5 5 8 5q2 0 3 -1q7 0 18 -8q36 -30 66.5 -105t31.5 -143q1 -8 1 -16q0 -32 -11 -47q-4 -2 -16 -2q-27 -3 -76 -3
q-38 0 -94 3z" />
    <glyph glyph-name="f" unicode="f" horiz-adv-x="632" 
d="M80 1137q0 -72 2 -121t2 -101v-286q0 -133 4 -285q2 -61 18 -278q1 -24 21 -40q18 -14 40 -14h5q24 1 39.5 21t13.5 45q-22 220 -22 576v87q3 0 108 11q25 5 39.5 23.5t11.5 43.5q-3 24 -22.5 38.5t-44.5 12.5q-85 -10 -92 -10v55q0 62 -2 109t-2 113q0 110 26 192
q10 29 21 35q7 4 18 -2q21 -6 40 -28.5t26 -51.5v-78q-2 -10 -2 -24v-13q0 -25 16.5 -43t40.5 -18q25 0 43 16.5t18 40.5v13q0 11 3 26v27q1 15 1 28q0 34 -6 54q-12 55 -50.5 100t-88.5 64q-27 10 -53 10q-32 0 -62 -17q-54 -29 -79 -102q-31 -92 -31 -229z" />
    <glyph glyph-name="g" unicode="g" horiz-adv-x="724" 
d="M33 594q-16 -153 -16 -255q0 -115 20 -167q25 -75 90.5 -127.5t144.5 -58.5q10 -1 19 -1q44 0 71 16q34 19 54 60q-2 -48 -10 -120q-23 -164 -81 -209q-37 -30 -115 -30q-42 0 -97 9q-24 4 -44.5 -10.5t-25.5 -38.5q-4 -24 10.5 -44.5t38.5 -25.5q61 -9 113 -9
q122 0 191 53q97 76 126 290q17 127 17 329q0 161 -11 370q-12 228 -13 250v30q0 44 1 148q3 23 -14 43q-17 19 -41 21h-5q-21 0 -38 -15q-12 -11 -17 -27.5t-5.5 -27t-0.5 -43.5l-2 2q-35 41 -78 59q-27 11 -54 11l-44 -8q-49 -16 -86 -67q-70 -94 -98 -407zM137 350
q0 232 47 457q20 93 41 125q19 22 38 22q6 0 13 -2q25 -10 46 -55q9 -45 18 -127q12 -132 12 -283q0 -155 -16 -270q-8 -52 -21 -88l-10 -25q-5 -2 -11 -2t-13 2q-40 3 -80 35q-40 30 -53 70q-11 37 -11 126v15z" />
    <glyph glyph-name="h" unicode="h" 
d="M43 1446q4 -101 14 -227q12 -155 14.5 -230t2.5 -237q-2 -80 -2 -143t2 -107q0 -23 2 -35q-1 -22 -1 -47q0 -58 5 -135v-45q2 -57 2 -119q0 -29 2 -37v-16q0 -5 4 -17q1 -2 10 -16q18 -21 45 -21q31 0 50 25q4 6 8 18q6 10 6 43q0 39 -2 66q-2 14 -2 45q-2 14 -2 39
q-2 10 -2 16l-2 23q-2 80 -2 178q0 313 61 430q17 30 32 40t36 5q2 0 6 -4l8 -14q16 -29 31 -84q25 -108 37 -283q10 -160 10 -518q0 -25 17 -42t42 -17t42.5 17t17.5 42q0 370 -11 543.5t-41 285.5q-18 69 -43 115q-36 61 -96 77q-19 5 -36 5q-41 0 -79 -25
q-21 -12 -39 -30q-4 99 -14 219q-10 123 -14 221q0 24 -18.5 40.5t-43.5 16.5q-24 0 -40.5 -18t-16.5 -43z" />
    <glyph glyph-name="i" unicode="i" horiz-adv-x="479" 
d="M57 1274v-6q0 -34 24 -58q22 -22 55 -23q5 0 11 1l21 -6q9 -1 18 -1q40 -1 67 25q33 32 40 78l2 20q1 31 -15 58q-20 35 -57 47q-15 5 -30 5q-23 0 -48 -12q-41 -20 -69 -71q-11 -14 -13 -26q-7 -11 -7 -23q0 -4 1 -8zM106 1014q9 -341 9 -991q0 -25 17 -42.5t42 -17.5
t42 17.5t17 42.5q0 687 -8 995q0 24 -18 40.5t-43 16.5q-24 0 -41 -18t-17 -43z" />
    <glyph glyph-name="j" unicode="j" horiz-adv-x="450" 
d="M-10 -371q6 -24 27 -35q14 -8 29 -8q8 0 17 2q71 21 88 33q23 17 50 66q52 94 61 286q3 63 3 126q0 77 -5 154q-8 141 -39 472q-18 205 -18 287q0 25 -17.5 42t-42.5 17t-42 -17t-17 -42q0 -88 18 -299q27 -276 33 -375q12 -152 12 -268q0 -236 -49 -326q-15 -26 -18 -29
q-4 0 -6 -2h-4q-1 -1 -3.5 -1.5t-6 -1t-5.5 -1.5l-24 -6q-24 -6 -35 -27q-8 -15 -8 -30q0 -8 2 -17zM84 1294h2v-4q0 -2 2 -6q0 -2 4 -14q12 -36 40 -52q21 -13 42 -13q8 0 16 2q30 6 50 30q23 30 23 73q0 38 -19 87q-27 58 -70 61q-5 1 -9 1q-26 0 -45 -21q-21 -23 -26 -66
q0 -6 -2 -10q-16 -17 -16 -37q0 -15 8 -31z" />
    <glyph glyph-name="k" unicode="k" horiz-adv-x="638" 
d="M23 -2q0 -25 17 -42t42 -17t42 17t17 42q0 170 6 584l48 30q79 -109 110 -235.5t31 -310.5q0 -25 17 -42.5t42 -17.5t42.5 17.5t17.5 42.5q0 207 -38 354t-136 276q88 114 106 293q2 25 -13.5 45t-39.5 21q-25 2 -45 -14t-21 -40q-18 -182 -118 -272q2 121 2 315
q0 141 4 207q0 123 -9 215q-1 24 -21 40q-17 14 -39 14h-5q-24 -1 -39.5 -21t-13.5 -45q8 -73 8 -201q-4 -70 -4 -209q0 -60 -4 -522q-6 -350 -6 -524z" />
    <glyph glyph-name="l" unicode="l" horiz-adv-x="387" 
d="M68 1415q12 -99 12 -269q0 -64 -2 -138q-4 -176 -4 -191q0 -128 6 -389q4 -348 4 -389q0 -25 17 -42t42 -17t42.5 17t17.5 42q0 41 -4 389q-6 261 -6 389q0 7 4 187q1 53 1 105q0 166 -12 318q0 24 -20 40q-17 14 -40 14h-5q-23 -1 -39 -21q-14 -18 -14 -39v-6z" />
    <glyph glyph-name="m" unicode="m" horiz-adv-x="897" 
d="M16 1012q-1 5 -1 10q1 18 13 34q16 20 40 25q5 1 10 1q16 0 32 -12q20 -14 25 -38l4 -33q45 87 121 87q19 0 39 -5q72 -18 109 -131q15 34 43 70q16 20 42 38t50 19q25 0 63 -12q37 -17 55 -64t31 -129q21 -175 21 -512q0 -119 -2 -182t-2 -112q0 -25 -17.5 -42.5
t-42.5 -17.5t-42 17.5t-17 42.5q0 49 2 112t2 180q0 358 -19 498q-9 57 -18 88q-1 2 -2 5.5t-2 4.5q-11 -7 -25 -30q-30 -53 -39 -107q-12 -68 -30 -328q2 -14 2 -45v-69q0 -102 -2 -217v-127q-3 -16 -13 -33q-20 -27 -47 -27q-10 0 -22 4q-35 11 -45 62q-1 5 -2 17t-2 18
q-2 23 -2 92q6 175 10 252l4 78q-3 283 -43 413q-13 39 -16 45l-7 9q-4 4 -4 6q-8 3 -12 -2q-12 -11 -20 -37q-18 -46 -29 -125q-5 -29 -14 -271q3 -37 8 -122q1 -38 1 -76q0 -112 -7 -213v-6q0 -7 2 -13v-18q2 -16 -2 -37q-11 -39 -47 -47q-8 -2 -16 -1q-26 0 -44 19
q-16 19 -16 35q0 7 -2 13q0 16 -2 26v82q0 48 4 244q0 73 2 112q-3 24 -6 74l-7 55q-19 187 -47 353z" />
    <glyph glyph-name="n" unicode="n" horiz-adv-x="749" 
d="M29 1028q28 -186 34 -602v-100v-34q0 -79 7 -169q2 -14 2 -35q2 -6 2 -12q0 -8 2 -10t2 -9q17 -34 55 -34q46 0 57 43q7 19 7 106v94q0 6 -4 150q-4 99 -4 167q0 59 3 94q11 111 50 187q21 41 69 80q39 30 51.5 23t30.5 -62q4 -12 10 -38t10.5 -46.5t4.5 -21.5
q24 -105 28 -233q1 -29 1 -59q0 -104 -9 -224q-12 -163 -12 -252q0 -25 17 -42.5t42 -17.5t42.5 17.5t17.5 42.5q0 72 12 241q7 116 7 215q0 207 -32 340q0 7 -2 13q-1 3 -2 9t-2 9t-2 8.5t-2 7.5l-14 66q-26 92 -82 129q-32 19 -66.5 19.5t-62 -11.5t-56 -35t-46.5 -43
t-35 -43l-13 93q-5 25 -25 39q-15 11 -32 11q-5 0 -10 -1q-25 -6 -40 -26q-12 -16 -12 -34q0 -5 1 -10z" />
    <glyph glyph-name="o" unicode="o" horiz-adv-x="651" 
d="M48 477q6 -179 28 -305q27 -165 96 -201q38 -22 100 -23h4q59 0 97 27q61 50 78 197q16 106 16 242v43q-2 155 -16 292.5t-37 192.5q-20 53 -41 74q-9 9 -30.5 22t-27.5 15q-18 24 -49 24h-33q-30 0 -40 -2q-49 -9 -87 -65q-36 -55 -51 -215q-9 -98 -9 -215q0 -50 2 -103
zM166 480q-1 48 -1 93q0 116 9 211q12 131 31 160q3 4 7 9t5 5h27q2 -2 4 -2l35 -22l8 -4l12 -33q16 -44 31 -170q16 -172 16 -306.5t-16 -230.5q-8 -53 -21 -90q-6 -22 -14 -30q-8 -2 -29 -2q-24 0 -39 6q-6 6 -14 26q-15 33 -24 95q-22 113 -27 285z" />
    <glyph glyph-name="p" unicode="p" horiz-adv-x="698" 
d="M43 1004q0 -91 2 -136q3 -139 16 -286l13 -152q4 -40 7 -85t3 -50q21 -259 21 -460q0 -130 -9 -236q-2 -25 14.5 -44t41.5 -20h5q22 0 39 14q18 16 19 41q8 103 8 236q0 95 -4 205q4 -8 10 -11q47 -39 96 -39q10 0 19 1q53 11 95.5 70t49.5 147q25 232 25 412q0 31 -1 60
q-5 200 -62 310q8 21 -1 42.5t-32 31.5l-19 10q-32 13 -63 22q-14 3 -28 3q-27 0 -56 -11q-53 -15 -88 -80l-2 -6v11q0 25 -17.5 42t-42.5 17t-42 -17t-17 -42zM219 568q-1 24 -1 46q0 138 22 238q10 48 28 90q11 22 24 27q5 2 12 2q8 0 18 -4q3 -10 8 -17q40 -51 54 -163
q12 -85 12 -182q0 -30 -2 -61q-4 -130 -23 -333q-3 -57 -35 -100q-11 -11 -12 -11q-6 0 -17 11q-28 25 -55 153q-29 137 -33 304z" />
    <glyph glyph-name="q" unicode="q" horiz-adv-x="837" 
d="M16 496q-1 -37 -1 -72q0 -85 8 -156q12 -101 50.5 -179t102.5 -101q43 -15 82 -15q35 0 66 13q64 25 108 96l2 6q0 -113 -2 -197q-64 0 -117 3q-25 0 -43 -17t-18 -41q0 -25 16.5 -43t40.5 -18q37 -2 121 -2v-156q0 -25 17.5 -42t42.5 -17t42 17t17 42v156h43q25 0 42 17
t17 42t-17 42t-42 17h-43q1 155 1 268q0 141 -2 217q-2 135 -15 359q-15 234 -15 334q0 25 -17 42t-42 17t-42.5 -17t-17.5 -42v-18q-10 10 -26 22q-16 33 -54 33h-6q-12 5 -24 5q-22 0 -41 -19l-17 -5q-38 -13 -81 -59q-53 -59 -90.5 -210.5t-45.5 -321.5zM135 492
q7 151 39 285t68 173q19 22 32 25q5 2 23 6q12 -6 16 -10q6 -3 23 -33q27 -53 45 -207q14 -104 14 -209q0 -65 -5 -130q-14 -170 -60 -249q-24 -37 -49 -47q-11 -5 -25 -5q-17 0 -39 7q-42 16 -63 119q-20 90 -20 214q0 29 1 61z" />
    <glyph glyph-name="r" unicode="r" horiz-adv-x="528" 
d="M10 1020q0 -24 15 -328q0 -28 4 -102l4 -146v-110q-1 -18 -1 -37q0 -38 3 -82q1 -6 2 -21t2 -22q4 -27 3.5 -33.5t-5.5 -27.5q-3 -14 -3 -26q0 -46 36 -67q19 -13 38 -13q9 0 17 3q47 16 47 84q0 2 -0.5 5.5t-1.5 10t-2 11.5v14v27q0 59 -4 227q0 42 -8 107l-9 94
q0 36 -4 114q0 40 2 58q7 98 37 137q23 30 65 30q13 0 27 -3q25 -4 45 10t25 39q1 6 1 11q0 18 -11 34q-14 20 -39 24q-24 4 -47 4q-70 0 -119 -36v14q0 24 -18 40.5t-43 16.5q-24 0 -41 -18t-17 -43z" />
    <glyph glyph-name="s" unicode="s" horiz-adv-x="622" 
d="M27 813q-1 -17 -1 -33q0 -76 16 -128q20 -62 56 -94t99 -54q58 -20 79 -41q36 -36 44 -149q2 -23 1 -43q0 -82 -24 -132q-23 -49 -61 -49q-4 0 -9 1q-44 6 -61 63q-4 13 -8 43q-6 49 -6 94v55q0 24 -18.5 40.5t-43.5 16.5q-24 0 -40.5 -18t-16.5 -43v-47q0 -43 2 -59
q0 -63 16 -119q20 -61 64 -99.5t100 -44.5q12 -2 23 -2q44 1 85 25q51 30 80 90q36 70 36 189q0 32 -3 67q-5 67 -19.5 112.5t-41.5 76t-58 48t-81 35.5q-49 17 -66 41q-18 25 -23 83q-3 36 -3 66q0 18 1 35q3 44 7 66q8 49 28.5 68.5t50.5 1.5q26 -15 37 -33t11.5 -42
t-0.5 -60q-3 -12 -3 -27q-2 -10 -2 -29q-2 -10 -2 -18q-2 -25 14.5 -44t41.5 -20t43 15t20 41q0 8 2 18q0 19 2 29q0 19 2 29q2 32 2 55t-2 37q-7 47 -35.5 87.5t-70.5 63.5q-35 25 -81 25q-9 0 -19 -1q-58 -6 -101 -48q-20 -20 -32 -43.5t-18 -62t-8 -58t-5 -76.5z" />
    <glyph glyph-name="t" unicode="t" horiz-adv-x="579" 
d="M10 952q0 -25 17.5 -42t42.5 -17q46 0 77 2q1 -25 5 -205q9 -420 30 -657q1 -23 21 -39q18 -14 39 -14h6q24 1 39.5 20.5t13.5 44.5q-22 231 -31 649q-1 36 -1.5 81t-1.5 74.5t-1 49.5q27 2 70 2q25 0 42 17.5t17 42.5t-17 42t-42 17q-47 0 -74 -2q-6 201 -20 334
q-1 24 -21 40q-18 14 -39 13h-6q-24 -1 -39.5 -21t-13.5 -45q14 -130 20 -325q-27 -2 -73 -2q-25 0 -42.5 -17.5t-17.5 -42.5z" />
    <glyph glyph-name="u" unicode="u" horiz-adv-x="653" 
d="M59 1047q17 -68 25 -359q1 -30 2 -90.5t2 -83.5q8 -183 29 -315q15 -71 33 -119q27 -68 84 -96q27 -13 54 -12q31 0 64 16q45 25 70 85t37 175q11 195 11 268t-9 268q-8 153 -8 260q0 25 -17.5 42.5t-42.5 17.5t-42 -17.5t-17 -42.5q0 -115 8 -266q9 -192 9 -260
t-11 -258q-8 -87 -27 -139q-10 -26 -18 -29l-21 6l-14 27q-15 34 -27 94q-6 33 -10.5 75t-7.5 75t-5 85.5t-3 78.5t-3 85.5t-1 75.5q0 12 -1 44.5t-1.5 46t-1.5 43t-1.5 44t-2 40t-2.5 40t-3 35.5t-4.5 34.5t-5.5 28t-6 25.5q-6 25 -27 37q-14 8 -30 8q-7 0 -15 -2
q-24 -6 -36 -26q-8 -14 -9 -30q0 -7 2 -15z" />
    <glyph glyph-name="v" unicode="v" horiz-adv-x="512" 
d="M-31 1008q9 -66 43 -213q4 -18 12.5 -58t10.5 -48t8 -36.5t7 -34t5.5 -28t5.5 -31.5t5 -32.5t6.5 -42.5t7.5 -50q16 -110 29 -160l18 -79q1 -2 2 -6t2 -5l12 -61q-2 0 -2 -4v-23q0 -23 6 -41q19 -42 63 -43h2q43 0 67 43q6 11 14 41q15 73 22 254q3 80 3 195q0 69 -1 151
q-1 35 -1 68q0 154 12 268v5q0 22 -14 40q-16 20 -40 21h-5q-21 0 -39 -14q-20 -16 -21 -40q-11 -115 -11 -274q0 -37 1 -76q2 -104 1.5 -167.5t-1.5 -86.5l-2 13q-1 11 -23 157l-45 211q-34 147 -41 203q-4 25 -24.5 39.5t-43.5 11.5q-24 -3 -38 -23q-13 -18 -13 -38v-6z
" />
    <glyph glyph-name="w" unicode="w" horiz-adv-x="761" 
d="M-2 1067q0 -155 43 -444l43 -318l14 -131l6 -65q4 -20 5 -23q0 -6 2 -8v-8l6 -13q9 -12 26 -22q17 -8 33 -8q21 0 41 14q16 11 24.5 27t22.5 55q24 80 35 231l23 -112l24 -125q3 -20 6 -25v-18v-6q0 -64 58 -80q13 -3 24 -3q51 0 74 66q12 31 16.5 67.5t10.5 151.5
l43 741q0 23 -15 40q-16 18 -41 20t-43.5 -14t-19.5 -41q-37 -611 -39 -664q-57 280 -70 463q-2 0 -2 53v56q0 79 -14 125q-3 13 -10 20q-6 11 -27 23q-12 5 -23 5q-20 0 -38 -16q-14 -11 -17 -24q-7 -11 -4 -41v-41l-8 -94q-7 -76 -14 -250q-1 -35 -2.5 -68t-3.5 -64
t-3 -42q-12 93 -20 149l-25 160q-22 167 -22 301q0 25 -17.5 42t-42.5 17t-42 -17t-17 -42z" />
    <glyph glyph-name="x" unicode="x" horiz-adv-x="626" 
d="M-2 1073q12 -64 31 -125q16 -66 39 -119l22 -61l21 -57l28 -82q-95 -309 -135 -598q-2 -25 12.5 -44t38.5 -22q25 -3 44.5 10.5t23.5 38.5q28 203 82 408l121 -428q6 -24 28 -36q14 -8 30 -7q8 0 17 2q23 6 34 28q7 14 7 29q0 8 -2 17l-53 190l-63 225l-60 187l33 100
l43 111q65 166 82 260q6 24 -7.5 44.5t-37.5 26.5q-6 1 -11 1q-19 0 -34 -11q-20 -14 -25 -37q-12 -61 -45 -153l-33 -82l-28 -80q-68 187 -84 285q-5 25 -25 39t-45 10q-25 -5 -39 -25q-11 -16 -11 -34q0 -5 1 -11z" />
    <glyph glyph-name="y" unicode="y" horiz-adv-x="671" 
d="M14 1006q135 -472 199 -758q34 -157 47 -193l2 -8q-36 -244 -98 -414q-8 -24 2 -46t33 -29q11 -4 22 -4q12 0 24 6q22 9 29 32q63 172 101 402q24 21 35 67q9 36 18 97q10 66 16 131q4 32 5 35q34 280 38 440q1 40 1 78q0 63 -3 119q-3 35 -12 51q-17 36 -55 38h-3
q-35 0 -59 -34q-9 -15 -12 -39l-4 -39q-7 -48 -10 -205q-3 -136 -11 -192l-18 -152q-68 290 -172 649q-6 24 -28 36q-14 7 -30 7q-8 0 -16 -2q-24 -6 -35 -27q-8 -15 -8 -30q0 -8 2 -16z" />
    <glyph glyph-name="z" unicode="z" horiz-adv-x="569" 
d="M-35 29q21 -56 86 -74q28 -10 67 -10q11 1 22 1q54 4 159 27q25 4 38.5 24.5t8.5 45.5q-6 25 -26.5 38t-45.5 7q-86 -18 -135 -22q-29 -2 -55 2q-2 2 -6 2l6 28q12 45 35 111q4 10 51 136t103.5 280.5t74.5 212.5q26 80 31 118q6 27 6 50q-3 65 -55 77h-25q-17 0 -29 -2
q-6 -1 -81 -8q-118 -14 -160 -14q-25 0 -42.5 -17.5t-17.5 -42.5t17.5 -42t42.5 -17q51 0 174 14l51 7l-24 -87q-13 -43 -113 -309l-117 -319q-30 -80 -37 -119q-8 -41 -8 -67q0 -19 4 -31z" />
    <glyph glyph-name="braceleft" unicode="{" horiz-adv-x="440" 
d="M-30 572.5q-6 -44.5 30 -70.5q11 -8 35 -15q2 -2 6 -2q2 0 4 -2q6 -14 12 -57q13 -88 13 -236v-88q-2 -35 -2 -65l-5 -88q-9 -144 -6 -232q0 -21 4 -49q5 -34 20.5 -55.5t49.5 -34.5q4 -2 12 -2q2 -2 7 -2q0 -2 2 -2t4 -2q20 -11 44 -3t36 30q11 22 3.5 44.5t-30.5 34.5
l-31 13q-2 8 -2 32q-3 41 0 113l6 113l4 90q0 30 2 65v91q0 53 -2 102q-3 180 -39 248q34 26 46 65q21 56 6 207l-9 100q-3 25 -6 52.5t-4 31.5q-4 65 -10 215q0 59 4 121q1 6 2 18t2 17l37 6q23 7 34 29t5 47q-7 23 -29 34t-47 5q-2 -2 -4 -2h-4l-18 -4q-42 -9 -62 -29
q-31 -34 -35 -110q-8 -92 6 -355q3 -20 9 -86l12 -102q9 -124 0 -154l-16 -16h-9q-21 3 -39 -4q-42 -12 -48 -56.5zM68 633q2 2 4 2l2 -2h-6z" />
    <glyph glyph-name="bar" unicode="|" horiz-adv-x="337" 
d="M-0.5 1112.5q-0.5 -63.5 10.5 -242.5q15 -208 16.5 -250.5t-1.5 -316.5q0 -180 10 -317q1 -24 20.5 -40t44.5 -14q24 1 40 21t14 45q-11 150 -11 303q3 271 2 322t-16 256q-11 181 -10.5 236t12.5 204q10 148 8 194q0 24 -18 41t-43 17q-24 0 -41 -18.5t-17 -43.5
q2 -50 -8 -180q-12 -153 -12.5 -216.5z" />
    <glyph glyph-name="braceright" unicode="}" horiz-adv-x="440" 
d="M-90 1448q1 -24 20.5 -39.5t44.5 -13.5q36 3 54 -15q32 -40 32 -153q0 -57 -2 -90q-2 -35 -2 -74q0 -1 -4 -119q-7 -101 -4 -166q3 -142 53 -209q3 -5 17 -14q-10 -13 -13 -23q-13 -33 -16 -92q-15 -167 12 -391l13 -82q16 -116 10 -155q-5 -45 -29.5 -69.5t-79.5 -31.5
q-25 -4 -38.5 -23t-10.5 -44q3 -24 22 -39t44 -13q189 33 211 207q3 66 0 90q-1 15 -6 53.5t-11 77t-6 41.5q-24 213 -12 371q2 32 8 55q0 3 2 5l6 6q35 37 29.5 77.5t-49.5 65.5l-12 6q-10 14 -13 27q-20 86 -8 260q4 110 4 129q0 28 2 65q4 127 -6 195q-13 93 -65 146.5
t-144 43.5q-24 -1 -39.5 -20.5t-13.5 -44.5z" />
    <glyph glyph-name="asciitilde" unicode="~" horiz-adv-x="768" 
d="M-2 350l2 -18q9 -44 51 -47q25 -2 45 13.5t21 39.5q8 112 19.5 149t45.5 54q21 11 29 8l12 -19q11 -26 19 -69q12 -59 22 -82q20 -42 65 -71.5t95 -32.5t94 28q8 6 14 15t8.5 14.5t6 18t4.5 14.5q2 11 16 122l17 154q2 25 -14 45t-40 21q-25 2 -44.5 -14t-20.5 -40
q-4 -58 -16 -153q-3 -60 -15 -107q-9 0 -24 6q-26 9 -33 20.5t-16 52.5q-2 8 -3 13q-17 70 -26 90q-26 64 -76.5 84.5t-126.5 -12.5q-74 -36 -96.5 -95t-33.5 -186q-1 -11 -1 -16z" />
    <glyph glyph-name="uni00A0" unicode="&#xa0;" horiz-adv-x="1001" 
 />
    <glyph glyph-name="cent" unicode="&#xa2;" horiz-adv-x="759" 
d="M74 379q-3 -197 18 -277q15 -49 51 -88q-23 -89 -59 -168q-8 -24 0 -46t31 -31q23 -10 46.5 -2.5t33.5 30.5q37 95 53 152q116 -37 195.5 31t97.5 208q8 68 8 183q2 25 -14 43.5t-41 19.5q-25 2 -44 -14t-20 -41q0 -113 -8 -178q-20 -179 -143 -138q29 124 53 265
q42 250 112 518q13 -63 13 -141q0 -60 -4 -154q0 -25 16.5 -43.5t40.5 -18.5q25 0 43 17t18 41q7 76 4 180q-3 204 -81 299l49 174q6 25 -6 46.5t-35 27.5q-25 6 -46.5 -6t-27.5 -35l-37 -129q-93 37 -160.5 -8.5t-101.5 -149.5q-40 -115 -43 -299q0 -8 -0.5 -23.5t-1.5 -45
t-2 -52.5q0 -5 -8 -147zM195 236q-7 87 6 288q1 23 2 51.5t1.5 44t0.5 23.5q3 165 37 266q24 64 47.5 82t64.5 0l6 -4q-61 -221 -82 -316.5t-83 -434.5z" />
    <glyph glyph-name="sterling" unicode="&#xa3;" horiz-adv-x="712" 
d="M-125.5 637.5q2.5 -23.5 21.5 -41.5q6 -6 13.5 -9t14 -4.5t18 -1t19 1t24.5 2.5t27 3q4 -176 8 -262v-228q0 -19 3 -28v-19q2 -2 2 -8q10 -29 36 -39q2 -1 6 -2t5 -2l16 -4q5 -1 19.5 -2t21.5 -2q124 -15 231 -15h43q28 0 45.5 8t38.5 29l7 6q10 7 12 13q19 13 22 39
q2 25 -13.5 44.5t-39.5 20.5q-4 2 -11 0t-9 -1t-7.5 -2t-7 -3t-7 -5t-7.5 -7t-9 -8.5t-11 -10.5l-5 -4h-39q-84 0 -221 13l-2 2v219q-4 86 -8 266q76 3 125 -2q25 -2 45 13.5t21 39.5q2 25 -14 45t-40 21q-54 5 -137 2l4 157q3 47 0 127q-3 168 15 250q10 42 33 74.5
t48 44.5q19 10 35 0q26 -10 47 -53q18 -38 29 -105v-137q0 -24 18 -40.5t43 -16.5q24 0 41 18t17 43v62q0 62 -2 80q-5 85 -39 149q-42 81 -106 110t-130 -1q-55 -25 -95 -80t-54 -123q-22 -94 -19 -281q3 -82 0 -116l-4 -170q-44 -2 -82 -7q-27 -3 -41 -20
q-17 -19 -14.5 -42.5z" />
    <glyph glyph-name="yen" unicode="&#xa5;" horiz-adv-x="653" 
d="M-88 518q1 -25 19.5 -41t43.5 -14q83 6 187 6q6 -278 26 -471q1 -24 21 -39.5t45 -13.5q24 1 39.5 20.5t13.5 44.5q-20 190 -26 459h112q25 0 42.5 17t17.5 42t-17.5 42.5t-42.5 17.5h-114v104l8 6l4 4q40 -3 65 -10q23 -7 45 6q21 12 27 36t-6 46q-6 10 -16 17t-15.5 9
t-23 5.5t-19.5 3.5q18 55 39 141q39 198 82 447q4 25 -10 45t-39 25q-25 4 -45 -10.5t-25 -39.5q-61 -361 -80 -440q-13 -71 -34 -131l-66 219q-38 129 -64 232q-28 109 -28 120q0 24 -18.5 41t-43.5 17q-24 0 -40.5 -18.5t-16.5 -43.5q0 -37 98 -381l66 -223l2 -6
q-26 -4 -56.5 -7t-31.5 -3q-25 -1 -41 -20t-14 -44q1 -25 19.5 -41t43.5 -14q43 3 115 12v-104q-110 0 -193 -6q-25 -1 -41 -20t-14 -44z" />
    <glyph glyph-name="dieresis" unicode="&#xa8;" horiz-adv-x="665" 
d="M33 1366q-8 -26 1.5 -48.5t33.5 -29.5q24 -8 46 1t29 32l23 57q8 25 -1 48t-32 30q-25 8 -48 -1t-30 -32zM348 1356q-6 -24 6.5 -45t36.5 -27t45 6.5t27 36.5l16 64q6 23 -6 44t-35 27q-25 6 -46 -6t-27 -37z" />
    <glyph glyph-name="copyright" unicode="&#xa9;" horiz-adv-x="968" 
d="M-68 699q3 -107 15 -263q9 -106 43 -198q81 -227 258 -312q69 -35 153 -43.5t165 21t120 100.5q58 106 77.5 237.5t14.5 317.5q9 15 6 33q-7 70 -4 184q0 168 -2 207q-9 267 -127 403q-66 76 -163 102t-177 -5q-84 -23 -158.5 -77.5t-119.5 -123.5q-44 -66 -68.5 -154.5
t-30 -205t-2.5 -223.5zM53 699q-3 106 2 209.5t23.5 179.5t52.5 129q35 54 91 94t120 57q139 37 224.5 -64.5t92.5 -324.5q5 -98 3 -182q-9 -12 -9 -29q0 -2 4 -178q6 -130 3 -200.5t-21 -162.5q-11 -55 -21.5 -90t-30 -67.5t-50.5 -49t-76 -18.5q-163 -7 -272 120.5
t-123 321.5q-10 149 -13 255zM180 997q-46 -348 15 -561q15 -52 57 -94q44 -44 98 -56.5t109 15.5q49 27 67.5 80.5t20.5 134.5q3 94 4 96q2 25 -13.5 45t-39.5 21q-25 2 -45 -13.5t-21 -39.5l-4 -107q0 -130 -53 -117q-21 6 -40.5 25t-25.5 43q-51 173 -10 512
q8 68 36.5 74t65.5 -54q52 -82 43 -225q-1 -25 15 -43t41 -20t43.5 14t19.5 41q9 184 -63 299q-36 57 -86.5 85.5t-104.5 16.5t-87.5 -58t-41.5 -114z" />
    <glyph glyph-name="guillemotleft" unicode="&#xab;" horiz-adv-x="768" 
d="M96.5 474q-0.5 -28 3 -47.5t19.5 -43.5t29 -39.5t42 -46.5q76 -79 78 -86q17 -19 41 -21t43 13q18 15 21 39t-11 43q-9 15 -86 92q-44 50 -61 80l-2 4q0 8 2 16l6 27q8 33 43 114l62 123q37 67 49 99q8 24 -1 46.5t-32 31.5t-45 -0.5t-33 -32.5q-16 -38 -43 -88
q-95 -181 -115 -262q-9 -33 -9.5 -61zM348 582q-29 -80 1 -157t132 -181q20 -17 43 -17q25 0 42.5 17.5t17.5 42.5q0 23 -17 43q-84 81 -106 139q-15 35 0 70q0 4 55 108q51 91 66 180q6 24 -7.5 45t-37.5 27q-25 4 -45 -10t-25 -37q-15 -75 -55 -150q-16 -30 -32.5 -60.5
t-23.5 -43.5t-8 -16z" />
    <glyph glyph-name="uni00AD" unicode="&#xad;" horiz-adv-x="739" 
d="M20 563q1 -25 20 -41t44 -14l414 12q24 0 40.5 18.5t16.5 43.5q0 24 -18 40.5t-43 16.5l-418 -12q-25 -1 -41.5 -20t-14.5 -44z" />
    <glyph glyph-name="registered" unicode="&#xae;" horiz-adv-x="1003" 
d="M-34.5 846q7.5 -212 63.5 -400q54 -186 139 -270.5t219 -112.5q57 -12 105 -13.5t85.5 6.5t67.5 27t52 45t39.5 63t29.5 79t22 95q29 152 32 346t-21 354q-24 174 -70.5 253.5t-140.5 115.5l-15 6q-235 84 -370 31.5t-197 -250.5q-48 -163 -40.5 -375zM85 846.5
q-6 196.5 36 339.5q42 141 125 175.5t241 -18.5q9 -6 21 -10q48 -12 74 -29t45 -49q34 -51 55 -206q21 -150 18.5 -336.5t-28.5 -325.5q-9 -51 -18.5 -84.5t-23.5 -62.5t-31.5 -44t-44 -23t-61 -6.5t-81.5 11.5q-51 11 -86.5 28t-70 50.5t-62.5 88.5t-52 136
q-50 169 -56 365.5zM178 1186q-9 -95 6 -283q15 -187 15 -190q0 -45 2 -90q3 -127 14 -215q5 -24 25.5 -39t44.5 -11q24 5 38.5 25.5t10.5 44.5q-12 61 -12 131q0 55 -5 143q29 -4 58 11l12 -19q43 -53 76 -153q58 -161 72 -189q12 -23 35.5 -29.5t45.5 5.5q21 10 28.5 34
t-3.5 44q-23 45 -66 174q-39 111 -88 180q35 24 62 74q29 55 16 165q-20 161 -101 226t-241 53q-26 -3 -41 -21q-29 -31 -4 -71zM295 1161q35 -1 57 -7t42.5 -24t32.5 -54t19 -93q5 -25 3.5 -55.5t-7.5 -40.5q-12 -22 -22 -29t-47 -20h-25q-21 0 -39 -7q-17 239 -14 330z
" />
    <glyph glyph-name="acute" unicode="&#xb4;" horiz-adv-x="745" 
d="M238 1564q6 -24 28 -36q21 -13 44.5 -7t35.5 29q114 201 201 308q17 19 15 44t-21 40q-20 15 -45.5 12t-38.5 -23q-93 -113 -213 -323q-12 -20 -6 -44z" />
    <glyph glyph-name="cedilla" unicode="&#xb8;" horiz-adv-x="540" 
d="M51.5 -315.5q6.5 24.5 28.5 36.5q21 11 45.5 4.5t34.5 -28.5q21 -40 53 -43l8 2q7 9 14 41.5t1 44.5q-3 8 -35 16q-21 9 -33 13q-53 21 -74 61q-12 21 -12 49q-2 12 -2 45v72q0 25 17 42t42 17t42.5 -17t17.5 -42v-70q0 -29 2 -39q-2 2 -4 0h2l2 -2q3 -3 12 -6
q10 -5 25 -10q23 -7 34 -12q112 -54 76 -197q-14 -64 -53 -98.5t-94 -28.5q-43 4 -81.5 33t-62.5 72q-12 20 -5.5 44.5z" />
    <glyph glyph-name="circumflex" unicode="&#x2c6;" horiz-adv-x="1140" 
d="M215.5 1491.5q-4.5 -25.5 7.5 -45.5q15 -19 38.5 -23t45.5 9q6 2 125 94q53 41 84 57h4q9 0 17 -4q2 -1 6.5 -2t9 -2.5t8.5 -3.5q37 -11 115 -51l100 -58q26 -14 57 -33t37 -22q23 -10 46.5 -2.5t33.5 29.5q11 20 4 43.5t-30 35.5q-35 18 -82 50q-116 76 -240 120
q-40 15 -70 18t-61 -9.5t-51.5 -26t-61.5 -45.5q-24 -22 -52 -43.5t-45.5 -33.5t-20.5 -13q-20 -13 -24.5 -38.5z" />
    <glyph glyph-name="ring" unicode="&#x2da;" horiz-adv-x="974" 
d="M455 1638q-4 -193 12 -231q25 -63 71.5 -91t100.5 -9q44 13 77.5 51t45.5 86q19 64 16 186q8 13 8 31q0 12 5 20v41q3 44 -7 82q-10 44 -43.5 81t-78.5 54q-43 22 -98 3t-85 -74q-15 -26 -18 -96zM573 1507q-3 128 7 254q1 7 2 22t2 21q2 4 2 13q14 18 33 12.5t34 -25.5
q-2 -4 -2 -14q0 -42 6 -109q5 -113 5 -114q-4 -130 -60 -148q-3 -3 -6 0q-8 3 -18 29z" />
    <glyph glyph-name="tilde" unicode="&#x2dc;" horiz-adv-x="1044" 
d="M274 1280l2 -18q9 -45 52 -48q25 -2 44.5 14t20.5 40q8 111 19.5 148t46.5 54q22 11 28 9l13 -19q9 -22 18 -69q11 -54 23 -82q20 -42 65 -71.5t95 -32.5t94 28q8 6 14 14.5t8.5 14.5t5.5 17.5t4 14.5q4 19 17 123l16 154q2 25 -13.5 44.5t-39.5 20.5q-25 2 -45 -13.5
t-21 -39.5q-4 -58 -16 -153q-3 -65 -14 -107q-10 0 -25 6q-6 2 -10.5 4t-8.5 4t-7 5l-5 5t-4 7l-3 7.5t-3 10t-3 11.5t-3.5 15t-3.5 17q-16 65 -27 90q-26 64 -75.5 84.5t-126.5 -12.5q-24 -12 -42.5 -27t-30.5 -27.5t-22 -38t-15 -39t-10 -50.5t-6.5 -52t-5.5 -63z" />
    <glyph glyph-name="afii10023" unicode="&#x401;" horiz-adv-x="745" 
d="M104 1223q-2 -149 17 -598q8 -159 8 -195v-43q-1 -11 -2 -38.5t-2 -41.5q-4 -132 -4 -207q1 -8 2 -25t2 -24q0 -33 16 -51q26 -31 95 -35q96 -4 194 4l68 4q25 0 42 17.5t17 42.5t-17 42t-42 17l-70 -4q-105 -8 -184 -4h-2q0 10 -2 18q0 65 4 205q1 15 2 43t2 41v43
l-10 223h8q45 3 90 5.5t66.5 4t27.5 1.5q25 0 42 17t17 42t-17 42t-42 17q-7 0 -192 -10h-5l-6 156q-6 209 -4 291q0 75 2 100q0 17 4 29v4q6 6 17 8q27 6 69 6q78 -3 148 -24q24 -6 45.5 5t28.5 35q6 24 -5.5 45.5t-35.5 28.5q-90 26 -177 29q-156 4 -198 -82
q-17 -38 -17 -184zM113 1608q-8 -26 1 -48.5t33 -29.5q24 -8 46.5 1t29.5 32l23 57q8 25 -1 48t-32 30q-25 8 -48 -1t-30 -32zM428 1597q-6 -24 6.5 -44.5t36.5 -26.5t45 6.5t27 36.5l16 63q6 23 -6 44.5t-35 27.5q-25 6 -46.5 -6t-27.5 -37z" />
    <glyph glyph-name="afii10052" unicode="&#x403;" horiz-adv-x="745" 
d="M90 1182q-13 138 2 213q14 64 46 85t89 21q58 0 164 -6q16 0 32.5 -1t18.5 -1q25 2 43.5 -15t18.5 -42q1 -24 -16 -42t-42 -20q-2 0 -22.5 1t-38.5 1l-82 4q-17 0 -42 1t-32 1h-16q-1 -1 -4 -14q-12 -60 0 -178q4 -45 4 -76q7 -184 -2 -569q-11 -366 2 -561
q2 -25 -14 -44t-41 -20q-25 0 -44 15.5t-20 39.5q-13 205 -2 572q7 439 2 565q0 27 -4 70zM238 1605q6 -24 28 -36q21 -13 44.5 -7t35.5 29q112 198 201 307q17 19 15 44t-21 40q-20 15 -45.5 12.5t-38.5 -22.5q-93 -113 -213 -323q-12 -20 -6 -44z" />
    <glyph glyph-name="afii10053" unicode="&#x404;" horiz-adv-x="733" 
d="M-11 783q-2 -182 35 -359.5t105 -292.5q65 -106 158 -153t205 -21q25 4 38 25.5t7 46.5q-4 23 -25.5 36t-44.5 7q-140 -30 -233.5 120t-118.5 431l-6 106q102 -4 206 -4q25 0 42.5 17t17.5 42t-17.5 42.5t-42.5 17.5q-104 0 -202 4h-4q5 110 20 214t51.5 203t87.5 134
q73 48 199 -10q23 -8 46 0t32 30q10 23 2 46.5t-31 33.5q-193 81 -315 -3.5t-178 -354.5q-32 -176 -34 -358z" />
    <glyph glyph-name="afii10054" unicode="&#x405;" horiz-adv-x="749" 
d="M119 1034q-3 -125 41 -196q14 -25 37 -45q29 -32 84 -56q8 -4 25.5 -10t31 -10t14.5 -4q33 -13 51 -31q14 -15 21.5 -41t8.5 -44t1 -50q-2 -33 -2 -68l6 -86q8 -87 6 -188q-8 -67 -30.5 -95.5t-69.5 -27.5q-28 0 -37.5 5t-21.5 26q-30 53 -33 170v108q2 50 -2 107
q-1 24 -21 39.5t-45 13.5q-24 -1 -39.5 -21t-13.5 -45q4 -49 2 -92v-112q3 -151 49 -230q28 -48 64.5 -67t93.5 -21q103 -4 156.5 59t64.5 171q7 101 -4 215q-6 65 -6 75q0 29 2 60q0 53 -2 71q-11 88 -49.5 135.5t-108.5 73.5l-35 13l-32 12l-23 12q-21 7 -41 39
q-23 36 -25.5 103t5.5 116q6 64 6 84q6 140 47 184q15 15 41 0q52 -32 86 -124t22 -193q-1 -25 14 -42.5t40 -20.5q24 -3 42 11.5t23 39.5q13 134 -34 256t-130 174q-40 31 -95 26.5t-95 -45.5q-71 -77 -80 -262q0 -14 -6 -78q-4 -78 -4 -94z" />
    <glyph glyph-name="afii10055" unicode="&#x406;" 
d="M-47 18q0 -25 16.5 -43t40.5 -18q83 -3 215 12q6 -2 15 -2q14 0 26 6q156 17 209 17q25 0 42.5 17t17.5 42t-17.5 42.5t-42.5 17.5q-61 0 -178 -13q-5 91 -10 135q-12 137 -15 197q-6 0 0 469v475q109 0 154 2q24 0 40.5 18.5t16.5 43.5q0 24 -18 40.5t-43 16.5
q-41 -2 -391 -2q-25 0 -42.5 -17t-17.5 -42t17.5 -42.5t42.5 -17.5h123v-4q0 -168 -2 -297t-2 -350q0 -288 18 -500q3 -29 5 -56.5t3 -50.5t2 -30q-109 -10 -164 -8q-25 0 -43 -17t-18 -41z" />
    <glyph glyph-name="afii10056" unicode="&#x407;" 
d="M-47 18q0 -25 16.5 -43t40.5 -18q83 -3 215 12q6 -2 15 -2q14 0 26 6q156 17 209 17q25 0 42.5 17t17.5 42t-17.5 42.5t-42.5 17.5q-61 0 -178 -13q-5 91 -10 135q-12 137 -15 197q-6 0 0 469v475q109 0 154 2q24 0 40.5 18.5t16.5 43.5q0 24 -18 40.5t-43 16.5
q-41 -2 -391 -2q-25 0 -42.5 -17t-17.5 -42t17.5 -42.5t42.5 -17.5h123v-4q0 -168 -2 -297t-2 -350q0 -288 18 -500q3 -29 5 -56.5t3 -50.5t2 -30q-109 -10 -164 -8q-25 0 -43 -17t-18 -41zM4 1622q-8 -26 1.5 -48.5t33.5 -29.5q24 -8 46.5 1t29.5 32l22 57q8 25 -1 48
t-32 30q-25 8 -47.5 -1t-29.5 -32zM319 1612q-6 -24 6.5 -45t36.5 -27t45 6.5t27 36.5l17 64q6 23 -6 44t-35 27q-25 6 -46.5 -6t-27.5 -37z" />
    <glyph glyph-name="afii10057" unicode="&#x408;" horiz-adv-x="651" 
d="M25 350q0 -102 24 -184q27 -82 81 -136.5t118 -60.5q76 -10 129 44.5t72 154.5q17 102 14 299q-3 88 0 125q6 82 0 420t-6 420q0 25 -17.5 42t-42.5 17t-42 -17t-17 -42q0 -84 6 -418q6 -335 0 -418q-3 -80 0 -141q4 -180 -14 -267q-3 -25 -13 -49q-14 -37 -30 -45
q-12 -8 -25 -8q-26 2 -54 33t-44 84q-21 65 -21 149q0 51 2 90v84q0 25 -17 42.5t-42 17.5t-42 -17.5t-17 -42.5v-77q-2 -41 -2 -99z" />
    <glyph glyph-name="afii10058" unicode="&#x409;" horiz-adv-x="1300" 
d="M-31 59q1 -24 21 -39.5t45 -13.5q184 15 268 156q99 163 84 561q-2 77 -20 309q-18 195 -21 248v33q0 31 -2 41q0 8 -2 14q68 10 158 10h8q2 -6 2 -18q0 -3 -4 -23q-3 -11 -5 -22t-3 -19.5t-2 -11.5q-3 -33 -4.5 -68t-1 -82.5t0.5 -77t3 -94.5t4.5 -90t6 -108.5
t5.5 -106.5q2 -49 5.5 -117.5t5.5 -113t3 -76.5q1 -10 8 -170l7 -106q0 -25 2 -33v-18q0 -3 2 -5q0 -9 10 -22q25 -38 102 -47q104 -11 196.5 49t162.5 170q61 98 87.5 208.5t8.5 196.5q-14 71 -49.5 124t-81.5 84.5t-109.5 51.5t-122 27.5t-129.5 9.5l-4 80q-9 212 0 326
q0 3 7 31q10 40 8 61q-3 77 -45 113q-12 9 -31 12q-6 2 -16 2q-10 2 -37 2q-87 0 -189 -12l-37 -6l-16 -6l-4 -3q-19 -5 -29 -22q-22 -40 -8 -84l8 -21v-2q2 -6 2 -28v-37q3 -54 21 -250q9 -96 12 -139.5t9 -140.5t4 -156t-7.5 -135t-22.5 -133t-42 -99q-53 -89 -178 -98
q-24 -1 -40 -21t-14 -45zM625 752q74 -2 131 -12t109 -32t85 -62t45 -97q11 -63 -11.5 -151.5t-72.5 -166.5q-51 -84 -115.5 -127.5t-127.5 -35.5h-11v14l-6 102q-7 160 -8 170q-3 100 -18 398z" />
    <glyph glyph-name="afii10059" unicode="&#x40a;" horiz-adv-x="1028" 
d="M-14 1456q-2 25 13.5 45t39.5 21q25 2 44.5 -14t20.5 -40q17 -217 9 -464v-76q44 1 75 2.5t41.5 2t31.5 1t58 0.5v176q0 141 -10 236q-7 68 -16 106q-4 25 10 45t39 25q24 5 44 -9t24 -38q31 -150 28 -531q3 0 22 1.5t24 2t22.5 1.5t24.5 1t23 -0.5t25.5 -2t24 -4
t25.5 -6t24.5 -8.5t26.5 -11q68 -30 105.5 -93t50.5 -176q14 -117 4 -243t-41 -226q-36 -116 -109 -166q-44 -31 -172 -39q-143 -4 -184 54q-10 17 -10 32q-1 3 -2.5 9.5t-2.5 9.5v39q0 25 7 104l6 105q2 14 3 29t1.5 22t1.5 10q0 27 -4 109t-6 125l-11 192q-36 0 -57 -0.5
t-31.5 -1t-41.5 -2t-76 -2.5q0 -129 6 -381q4 -348 4 -389q0 -25 -17.5 -42t-42.5 -17t-42 17t-17 42q0 41 -4 389q-6 261 -6 389q0 15 4 191q7 306 -10 448zM436 823q0 -52 10 -192q2 -51 6.5 -134t4.5 -110q-1 -4 -1.5 -13.5t-1.5 -25.5t-3 -31l-7 -104q-6 -65 -6 -98v-15
q2 -2 4 -2q55 -11 148 4l35 9q35 26 62.5 110t33.5 197q10 109 -1.5 207t-37.5 141q-28 44 -98.5 59t-141.5 -2h-6z" />
    <glyph glyph-name="afii10060" unicode="&#x40b;" 
d="M-176 1454q0 25 16.5 43.5t40.5 18.5q243 8 449 8q25 0 42 -17.5t17 -42.5t-17 -42t-42 -19h-166q3 -68 12 -174q10 -120 14 -219q18 18 39 30q55 36 115.5 20t95.5 -77q25 -46 43 -115q30 -112 41 -285.5t11 -543.5q0 -25 -17.5 -42t-42.5 -17t-42 17t-17 42
q0 358 -10 518q-12 175 -37 283q-15 55 -31 84l-8 14q-4 4 -6 4q-21 5 -36 -5t-32 -40q-61 -117 -61 -430q0 -98 2 -178l2 -23q0 -6 2 -16q0 -25 2 -39q0 -31 2 -45q2 -27 2 -66q0 -33 -6 -43q-4 -12 -8 -18q-19 -25 -50 -25q-27 0 -45 21q-9 14 -10 16q-4 12 -4 17v16
q-2 8 -2 37q0 62 -4 119v45q-4 129 -2 182q-2 12 -2 35q-3 89 0 250q0 162 -2.5 237t-14.5 230q-9 113 -12 182l-160 -4q-25 0 -43 16.5t-18 40.5z" />
    <glyph glyph-name="afii10061" unicode="&#x40c;" horiz-adv-x="745" 
d="M27 1083q-2 -107 2 -542q4 -472 4 -475q0 -25 17 -42.5t42 -17.5t42.5 17.5t17.5 42.5l-7 608q102 0 146 -23q36 -20 61 -61.5t39.5 -121t19 -115t12.5 -138.5q2 -21 3 -31q8 -113 16 -172q5 -25 25 -39t45 -10q25 5 39 25t10 45q-8 49 -16 160q-9 107 -23 208
q-40 279 -174 353q-16 10 -35 16q15 9 29 23q53 52 72.5 125.5t21.5 189.5q3 116 6 152q4 26 9 47q7 27 30 82l21 49q10 22 0 45q-9 23 -32 32.5t-46 0.5q-7 -3 -11.5 -5.5t-9 -7t-7 -7.5t-6 -11t-5 -12t-6 -16.5t-6.5 -18.5l-21 -54q-18 -46 -28 -112q-4 -43 -7 -162
q-3 -94 -12 -141q-14 -63 -50.5 -95t-111.5 -38q0 245 13 428q5 106 2 190q-1 25 -20 41t-44 14q-25 -1 -41 -19.5t-14 -43.5q3 -75 -2 -176q-10 -163 -10 -187zM238 1564q6 -24 28 -36q21 -13 44.5 -7t35.5 29q114 201 201 308q17 19 15 44t-21 40q-20 15 -45.5 12
t-38.5 -23q-93 -113 -213 -323q-12 -20 -6 -44z" />
    <glyph glyph-name="afii10062" unicode="&#x40e;" horiz-adv-x="636" 
d="M-33 82q-6 -25 6 -46.5t37 -27.5q101 -26 170 -26q122 0 185 75q51 59 68.5 208t17.5 425q0 200 -15 508q-6 120 -6 143q0 24 -18 41t-43 17q-24 0 -41 -18.5t-17 -43.5t6 -133q15 -362 15 -465q-121 133 -169.5 266.5t-74.5 380.5q-1 24 -20.5 40t-44.5 14
q-24 -1 -40 -21t-14 -45q14 -146 32.5 -237.5t55.5 -186.5q36 -97 97.5 -182.5t162.5 -181.5q9 -9 15 -11q-4 -375 -58 -440q-27 -35 -96 -35q-42 0 -139 23q-23 6 -44.5 -6t-27.5 -35zM4 1769q19 -100 75.5 -166t133.5 -73q81 -7 145 51t93 164q6 23 -6 44.5t-35 27.5
q-25 6 -46.5 -6t-27.5 -37q-21 -74 -51 -101t-60 -24q-32 2 -62.5 39.5t-43.5 105.5q-5 23 -25 37t-43 10q-25 -6 -39 -27t-8 -45z" />
    <glyph glyph-name="afii10145" unicode="&#x40f;" horiz-adv-x="735" 
d="M-14 1401q-4 25 10 44.5t39 24.5q25 4 44.5 -10t24.5 -39q22 -174 15 -368q-3 -79 0 -174q2 -291 16 -568q4 -30 0 -57v-57q0 -55 10 -82q4 -7 11 -11h4l39 2q89 -3 217 5v94q2 88 2 168q4 152 4 344q4 154 4 344q1 15 2 51.5t2 54.5q6 135 -2 217q-2 25 12.5 44t38.5 22
q25 4 44 -10t24 -39q8 -92 2 -240q-1 -18 -1.5 -41t-1 -37t-1.5 -22q0 -190 -4 -344q0 -192 -4 -344q0 -82 -2 -170v-103q-5 -18 -5 -32v-23q-2 -2 -2 -6q-4 -15 -14 -25l-25 -14q-6 0 -8 -2h-6q-8 -4 -14 -4q-21 0 -37 -2l-86 -4q6 -205 6 -224q-2 -25 -19 -42t-42 -17
t-42 17t-16 42q0 18 -6 224q-14 0 -20 -2h-43q-29 0 -41 6q-103 41 -97 207v59q2 25 -2 47q-14 282 -16 572q-3 103 0 180q8 208 -14 344z" />
    <glyph glyph-name="afii10017" unicode="&#x410;" horiz-adv-x="735" 
d="M20 1184q3 -70 3 -76q0 -160 14 -557l8 -254q11 -161 -10 -256q-6 -25 6 -45.5t37 -26.5t45.5 6t26.5 37q28 108 14 289q-3 34 -12 358q6 -2 16 -2q30 0 135 -6q66 -3 109 -6q7 -233 8 -268q3 -71 0 -115q-4 -130 12 -246q5 -25 25 -39t45 -10q25 5 39 25t10 45
q-15 102 -12 221q3 52 0 123q-15 550 -56 827q-11 74 -32.5 132t-57.5 103.5t-91 67.5t-126 15q-69 -6 -98.5 -29t-46.5 -92q-14 -61 -11 -221zM139 1188q-3 142 6 190q2 14 11 27q14 0 32 2q76 7 117.5 -47t59.5 -168q30 -217 41 -428q-234 12 -238 12q-9 0 -21 -4
q-6 194 -6 336q0 33 -2 80z" />
    <glyph glyph-name="afii10018" unicode="&#x411;" horiz-adv-x="768" 
d="M6 1260q2 -139 23 -375q1 -22 3.5 -53t4 -53.5t2.5 -39.5q4 -78 4 -82q3 -55 -4 -182q-8 -139 -8 -192q0 -15 -6 -76q-3 -58 0 -92q14 -140 147 -154q81 -7 139 4t111.5 50.5t89.5 121t57 207.5q19 97 12.5 206t-38.5 171q-26 47 -73 90t-97 66q-66 32 -228 26
q-18 234 -20 359q0 57 2 75q0 19 2 25q6 3 21 6q40 10 153 14h51q73 3 103 11q23 6 35 27t6 46q-6 23 -27.5 35t-46.5 6q-18 -6 -74 -6h-51q-27 -2 -63 -2q-91 -6 -143.5 -22.5t-74.5 -65.5q-12 -37 -12 -151zM141 125q-2 14 2 72q7 82 7 86q0 67 8 184q6 129 5 172t-9 143
q63 4 94 2q45 -1 76.5 -15t64.5 -44q36 -36 53 -71.5t21 -110.5q5 -83 -11 -179t-46 -167q-32 -76 -76.5 -101.5t-145.5 -15.5q-24 1 -31 10t-12 35z" />
    <glyph glyph-name="afii10019" unicode="&#x412;" horiz-adv-x="909" 
d="M98 1303q-4 -244 27 -654q1 -17 3 -41.5t5.5 -61t5.5 -63.5q3 -33 8.5 -86t6.5 -71q17 -214 -2 -316q-1 -25 13.5 -42.5t39.5 -22.5q17 -36 61 -33q180 25 309 117q70 48 110 128t40 181q0 265 -229 377q52 42 86 100t45.5 121t8.5 127t-20 125q-35 121 -132.5 203
t-229.5 88q-6 0 -12 2q-5 1 -10.5 1.5t-9 1t-5.5 1.5q-46 3 -76 -15q-35 -20 -39 -79q-4 -46 -4 -88zM217 1300q0 48 2 64h2q20 -4 29 -4q136 -6 211 -122.5t49 -272.5q-9 -57 -39 -103q-31 -48 -67 -68t-107 -26h-39q-16 0 -22 -2q-22 406 -19 534zM244 643q19 -3 41 0
q14 2 24 2q81 -6 150 -43q74 -40 110.5 -102.5t36.5 -161.5q0 -127 -87.5 -203t-244.5 -102q8 70 5 157q-3 113 -21 306q-2 26 -7.5 77.5t-6.5 69.5z" />
    <glyph glyph-name="afii10020" unicode="&#x413;" horiz-adv-x="688" 
d="M90 1182q-13 138 2 213q14 64 46 85t89 21q58 0 164 -6q16 0 32.5 -1t18.5 -1q25 2 43.5 -15t18.5 -42q1 -24 -16 -42t-42 -20q-2 0 -22.5 1t-38.5 1l-82 4q-17 0 -42 1t-32 1h-16q-1 -1 -4 -14q-12 -60 0 -178q4 -45 4 -76q7 -184 -2 -569q-11 -366 2 -561
q2 -25 -14 -44t-41 -20q-25 0 -44 15.5t-20 39.5q-13 205 -2 572q7 439 2 565q0 27 -4 70z" />
    <glyph glyph-name="afii10021" unicode="&#x414;" horiz-adv-x="878" 
d="M-12 -258q-4 -25 10 -44t39 -24q24 -6 43.5 8t25.5 39q4 29 7 162q2 18 2 80q21 0 35 2q237 13 364 2q25 0 49 -4l2 -4l4 -74q3 -45 6 -133q0 -24 18.5 -40.5t43.5 -16.5q24 0 40.5 18t16.5 43q-3 151 -12 215q-1 6 -2 17.5t-2 15.5q-10 54 -53 66q-24 12 -58 12
q-3 190 -32 453l-54 473q0 19 -2 39l-4 75l-6 84l-10 123q-4 34 -6 45q-1 4 -9 29q-16 36 -47 39q-4 2 -14 2q-6 2 -29 2q-20 2 -78 2h-75q-21 0 -27 -2h-14q-2 -2 -8 -2l-5 -2q-4 0 -12 -4q-22 -17 -24 -39q-2 -2 -2 -10v-27q2 -11 6 -45l18 -133l14 -90q6 -48 13 -82
l4 -37q31 -250 6 -455t-115 -436q-2 -2 -2 -10q-8 0 -10 -2q-11 0 -24.5 -13.5t-18.5 -27.5q0 -4 -2 -6v-21q0 -15 -2 -29q0 -209 -8 -233zM182 86q86 227 109 439.5t-8 461.5q-4 13 -7 39q-3 34 -12 84l-14 90l-17 129h41q48 0 64 -2l2 -8l10 -121l6 -84l4 -78q2 -20 2 -37
q1 -10 54 -477q30 -273 33 -432h-119z" />
    <glyph glyph-name="afii10022" unicode="&#x415;" horiz-adv-x="741" 
d="M104 1223q-2 -149 17 -598q8 -159 8 -195v-43q-1 -11 -2 -38.5t-2 -41.5q-4 -132 -4 -207q1 -8 2 -25t2 -24q0 -33 16 -51q26 -31 95 -35q96 -4 194 4l68 4q25 0 42 17.5t17 42.5t-17 42t-42 17l-70 -4q-105 -8 -184 -4h-2q0 10 -2 18q0 65 4 205q1 15 2 43t2 41v43
l-10 223h8q45 3 90 5.5t66.5 4t27.5 1.5q25 0 42 17t17 42t-17 42t-42 17q-7 0 -192 -10h-5l-6 156q-6 209 -4 291q0 75 2 100q0 17 4 29v4q6 6 17 8q27 6 69 6q78 -3 148 -24q24 -6 45.5 5t28.5 35q6 24 -5.5 45.5t-35.5 28.5q-90 26 -177 29q-156 4 -198 -82
q-17 -38 -17 -184z" />
    <glyph glyph-name="afii10024" unicode="&#x416;" horiz-adv-x="921" 
d="M-63 1393l47 -150l59 -186q72 -245 72 -307q0 -38 -27 -121q-6 -16 -13.5 -40.5t-8.5 -27.5q-21 -68 -66 -254l-55 -231q-6 -24 6.5 -45t36.5 -27t44.5 6.5t26.5 36.5l56 227q49 202 65 254q0 4 21 62q13 43 26 92q8 -2 23 -2q3 -21 18 -649q0 -24 18.5 -41t43.5 -17
q24 0 40.5 18.5t16.5 43.5l-18 637q14 2 51 2h8q16 -124 72 -323t125 -333q12 -23 36 -29.5t46 5.5q21 10 28 34t-4 44q-74 143 -137 387q-16 61 -27.5 107.5t-18 91t-11 72t-1.5 65t4 56t11 58.5t15 58t21.5 70.5t24.5 80.5q55 185 64 299q2 25 -14 44t-41 20
q-25 2 -44 -14.5t-20 -41.5q-6 -109 -57 -272q-59 -192 -78 -291q-4 -40 -4 -69h-2q-35 0 -49 -2v157q0 64 -2 127q-3 174 10 271q2 25 -12.5 44.5t-38.5 22.5q-25 3 -44 -11.5t-24 -39.5q-13 -108 -10 -291q2 -66 2 -123v-149l-12 4h-7q-18 114 -71 289l-60 186
q-22 63 -47 147q-7 24 -28.5 35.5t-45.5 5.5q-24 -7 -35 -28t-5 -45z" />
    <glyph glyph-name="afii10025" unicode="&#x417;" horiz-adv-x="634" 
d="M-2 324q0 -54 0.5 -79.5t4 -64.5t10.5 -61t20 -47.5t33 -46.5q37 -37 73 -48q73 -21 146 21q91 52 135 147q11 32 20 72q11 54 11 160q0 8 -1 19.5t-2 29.5t-2 31l-4 57q-6 121 -39 188q-18 40 -45 64q41 47 52 84q32 91 35.5 218t-21.5 220q-19 75 -64.5 131t-105.5 74
q-72 20 -131 -20t-90 -132q-17 -49 -21 -124.5t4 -112.5q1 -25 20 -41t44 -14q25 1 41 19.5t14 43.5q-9 138 8 193q17 51 45 69q16 10 33 4q26 -8 51 -40.5t37 -77.5q20 -79 17.5 -187t-27.5 -186q-5 -15 -57 -44.5t-90 -33.5q-9 0 -29 -4q-6 0 -14 -2q-39 -3 -68 -23
q-33 -26 -25 -71t50 -58q26 -6 56.5 -0.5t108.5 25.5q24 7 37 10q16 -9 27 -35q26 -57 29 -141q0 -2 4 -68t4 -133q-3 -69 -23 -114q-25 -60 -76.5 -89.5t-80.5 0.5q-23 23 -29 66t-6 152q0 25 -17.5 42t-42.5 17t-42 -17t-17 -42z" />
    <glyph glyph-name="afii10026" unicode="&#x418;" horiz-adv-x="761" 
d="M35 98q2 2 6 17l2 12l4 6v66q1 13 4.5 81t7 138t4.5 106q18 563 -16 934q-3 25 13 46t42 22q25 2 46 -15t22 -41q36 -406 16 -950q0 -25 -2 -41q45 175 103 461q30 151 49 234q3 20 24 94q21 104 23 116v33q-3 22 6 43q18 43 70 43q47 0 67 -45q9 -27 11 -45
q12 -74 12 -270q0 -229 16 -565q13 -403 13 -566q0 -25 -18.5 -43t-43.5 -18q-26 0 -44.5 18t-18.5 43q0 157 -13 523q-12 338 -12 475l-63 -305q-48 -230 -113 -445l-43 -123l-31 -78q-2 -4 -5 -10.5t-5 -10.5t-4 -7l-12 -19q-21 -19 -48.5 -20.5t-48.5 16.5q-37 32 -20 90
z" />
    <glyph glyph-name="afii10027" unicode="&#x419;" horiz-adv-x="761" 
d="M35 98q2 2 6 17l2 12l4 6v66q1 13 4.5 81t7 138t4.5 106q18 563 -16 934q-3 25 13 46t42 22q25 2 46 -15t22 -41q36 -406 16 -950q0 -25 -2 -41q45 175 103 461q30 151 49 234q3 20 24 94q21 104 23 116v33q-3 22 6 43q18 43 70 43q47 0 67 -45q9 -27 11 -45
q12 -74 12 -270q0 -229 16 -565q13 -403 13 -566q0 -25 -18.5 -43t-43.5 -18q-26 0 -44.5 18t-18.5 43q0 157 -13 523q-12 338 -12 475l-63 -305q-48 -230 -113 -445l-43 -123l-31 -78q-2 -4 -5 -10.5t-5 -10.5t-4 -7l-12 -19q-21 -19 -48.5 -20.5t-48.5 16.5q-37 32 -20 90
zM94 1872q19 -100 75.5 -166.5t133.5 -73.5q81 -7 145 51t93 164q6 23 -6 44.5t-35 27.5q-25 6 -46.5 -6t-27.5 -37q-21 -73 -51 -100q-31 -28 -60 -25q-32 2 -62.5 39.5t-43.5 105.5q-5 23 -25 37.5t-43 10.5q-25 -6 -39 -27t-8 -45z" />
    <glyph glyph-name="afii10028" unicode="&#x41a;" horiz-adv-x="745" 
d="M27 1083q-2 -107 2 -542q4 -472 4 -475q0 -25 17 -42.5t42 -17.5t42.5 17.5t17.5 42.5l-7 608q102 0 146 -23q36 -20 61 -61.5t39.5 -121t19 -115t12.5 -138.5q2 -21 3 -31q8 -113 16 -172q5 -25 25 -39t45 -10q25 5 39 25t10 45q-8 49 -16 160q-9 107 -23 208
q-40 279 -174 353q-16 10 -35 16q15 9 29 23q53 52 72.5 125.5t21.5 189.5q3 116 6 152q4 26 9 47q7 27 30 82l21 49q10 22 0 45q-9 23 -32 32.5t-46 0.5q-7 -3 -11.5 -5.5t-9 -7t-7 -7.5t-6 -11t-5 -12t-6 -16.5t-6.5 -18.5l-21 -54q-18 -46 -28 -112q-4 -43 -7 -162
q-3 -94 -12 -141q-14 -63 -50.5 -95t-111.5 -38q0 245 13 428q5 106 2 190q-1 25 -20 41t-44 14q-25 -1 -41 -19.5t-14 -43.5q3 -75 -2 -176q-10 -163 -10 -187z" />
    <glyph glyph-name="afii10029" unicode="&#x41b;" horiz-adv-x="792" 
d="M-47 57q1 -25 19.5 -41t43.5 -14q132 10 188.5 88t76.5 252q24 232 18 684q-1 40 -1.5 77t-1 61.5t-1 43t-0.5 28.5v9q0 27 -2 43q0 9 -2 17t-2 20q-3 31 0 47l16 8q29 12 67.5 13t67.5 -9q12 -3 17 -8q16 -56 16 -155q-2 -121 -2 -187q14 -248 17 -411.5t-7 -538.5
q0 -25 17 -43t41 -18q25 0 43 16.5t18 40.5q10 388 7.5 544t-15.5 418v177q0 132 -23 192t-90 84q-48 18 -109.5 16.5t-109.5 -20.5q-43 -18 -64.5 -48t-25 -58.5t-0.5 -71.5q0 -11 2 -19q2 -10 2 -18q2 -12 2 -31v-9q0 -10 0.5 -28.5t1 -43t1 -61.5t1.5 -77
q6 -443 -16 -670q-17 -140 -47 -184.5t-109 -50.5q-25 -1 -41 -20t-14 -44z" />
    <glyph glyph-name="afii10030" unicode="&#x41c;" horiz-adv-x="985" 
d="M14 1417l13 -45q0 -147 28 -667q25 -450 17 -672q0 -25 16.5 -43.5t40.5 -18.5q25 0 43 17t18 41q9 239 -16 684l-10 178q82 -305 129 -522q5 -28 35 -142l32 -133v-28q4 -29 11 -41q18 -34 53 -38.5t57 17.5q23 33 31 62q29 101 45 256q34 297 84 577q10 -375 41 -870
q2 -25 20 -41t43 -15t41.5 20t14.5 44q-47 711 -47 1382q0 25 -17.5 42.5t-42.5 17.5q-40 0 -55 -37q-15 -12 -18 -33l-76 -373q-49 -257 -107 -702q-2 -11 -6 -45l-24 104q-49 245 -177 697q-73 244 -86 299q0 14 -6 26l-10 35q-6 23 -27.5 35t-44.5 6q-25 -6 -37 -27.5
t-6 -46.5z" />
    <glyph glyph-name="afii10031" unicode="&#x41d;" horiz-adv-x="843" 
d="M109 1401q8 -30 14 -72q8 -68 10 -139q1 -13 1.5 -30t1 -27.5t1.5 -16.5q13 -241 17 -342v-700q0 -25 17 -42.5t42 -17.5t42 17.5t17 42.5q0 542 -2 620q140 6 256 21q15 -335 15 -633q0 -25 17 -42t42 -17t42 17t17 42q0 549 -59 1370q-1 25 -19.5 41t-43.5 14t-41 -20
t-15 -43q24 -349 39 -610q-114 -15 -252 -21q-3 167 -12 311q0 12 -8 152q-5 83 -25 154q-6 24 -26.5 36.5t-44.5 6.5t-36.5 -27t-6.5 -45z" />
    <glyph glyph-name="afii10032" unicode="&#x41e;" horiz-adv-x="757" 
d="M158 1268q-36 -258 12 -881q2 -14 2 -76q0 -69 2 -92q12 -126 84 -186q82 -67 150.5 -61t107.5 79q44 75 47 228l4 131q6 209 6 436q-3 447 -69 555q-8 15 -29 33q-1 20 -15.5 34t-35.5 19q-9 1 -27.5 4t-25 4t-20.5 3t-20 2t-16.5 0.5t-16.5 -0.5t-14.5 -3t-16 -5
t-15.5 -7q-40 -23 -61 -77t-33 -140zM262 942q-3 183 14 311q9 63 21 101q6 15 12 24q10 3 33 0q12 0 18 -2l5 -4q10 -10 28 -24l8 -9q51 -85 54 -493q0 -228 -6 -434l-5 -133q-3 -115 -30 -170q-10 -16 -19 -19q-17 -3 -59 33q-22 18 -32.5 53.5t-11.5 59t-1 75.5
q0 70 -2 84q-24 317 -27 547z" />
    <glyph glyph-name="afii10033" unicode="&#x41f;" horiz-adv-x="753" 
d="M4 297q-6 -152 4 -240q4 -25 23.5 -38.5t44.5 -10.5q24 3 38.5 22t12.5 44q-10 79 -4 217q2 45 2 106q0 190 2 344v344q0 80 2 168v95q84 8 217 8h43q7 -3 10 -10q11 -29 11 -82v-58q-3 -37 0 -57q13 -204 22 -567q3 -94 0 -174q-4 -214 19 -367q5 -25 24.5 -39t44.5 -10
q25 5 39 24.5t10 44.5q-22 123 -18 345q3 77 0 180q-8 338 -23 571q-3 16 0 47v60q0 86 -23.5 135t-76.5 69q-14 7 -39 7h-43q-128 0 -227 -9q-16 -2 -37 -2q-10 0 -14 -2h-7q-2 -2 -8 -2l-24 -14q-12 -15 -15 -27q0 -4 -2 -6v-22q0 -19 -2 -33v-103q-2 -88 -2 -170v-344
q-2 -154 -2 -344q0 -53 -2 -100z" />
    <glyph glyph-name="afii10034" unicode="&#x420;" horiz-adv-x="720" 
d="M59 1358q1 -31 21 -283q52 -685 22 -1063q-1 -25 15 -43t41 -20t43.5 14t19.5 41q19 231 10 565q226 64 285 215q27 73 20.5 198.5t-42.5 240.5q-45 146 -128.5 226t-195.5 52q-76 -15 -100 -59q-9 -12 -9 -29q-2 -4 -2 -16v-39zM178 1362v20l17 4q57 12 102 -36
q49 -53 82 -157.5t39 -215.5q4 -55 0.5 -98t-20.5 -76t-58.5 -60.5t-114.5 -50.5q-12 210 -26 391q-18 202 -21 279z" />
    <glyph glyph-name="afii10035" unicode="&#x421;" horiz-adv-x="921" 
d="M137 909q3 -210 29.5 -433.5t66.5 -305.5q58 -119 164 -166q76 -34 135.5 -20.5t99.5 56t66 112.5q39 113 39 317q0 25 -17 42t-42 17t-42.5 -17t-17.5 -42q0 -187 -32 -279q-24 -63 -54 -80.5t-86 5.5q-64 26 -106 108q-34 68 -57 277.5t-25.5 410.5t8.5 344
q11 107 59.5 145.5t112.5 10.5q76 -32 123.5 -127t40.5 -223q-2 -25 14 -44t41 -20q25 -2 44 14.5t20 41.5q10 163 -57 291.5t-179 177.5q-123 52 -220.5 -18.5t-117.5 -235.5q-13 -149 -10 -359z" />
    <glyph glyph-name="afii10036" unicode="&#x422;" horiz-adv-x="770" 
d="M-2 1409q0 -25 17 -42t42 -17q76 0 152 8q4 -285 14 -643q10 -485 10 -664q0 -25 17.5 -42t42.5 -17t42 17t17 42q0 228 -12 668q-12 439 -12 651q118 14 198 14q25 0 42.5 17.5t17.5 42.5t-17.5 42t-42.5 17q-83 0 -239 -18q-173 -17 -230 -17q-25 0 -42 -17t-17 -42z
" />
    <glyph glyph-name="afii10037" unicode="&#x423;" horiz-adv-x="634" 
d="M-33 82q-6 -25 6 -46.5t37 -27.5q101 -26 170 -26q122 0 185 75q51 59 68.5 208t17.5 425q0 200 -15 508q-6 120 -6 143q0 24 -18 41t-43 17q-24 0 -41 -18.5t-17 -43.5t6 -133q15 -362 15 -465q-121 133 -169.5 266.5t-74.5 380.5q-1 24 -20.5 40t-44.5 14
q-24 -1 -40 -21t-14 -45q14 -146 32.5 -237.5t55.5 -186.5q36 -97 97.5 -182.5t162.5 -181.5q9 -9 15 -11q-4 -375 -58 -440q-27 -35 -96 -35q-42 0 -139 23q-23 6 -44.5 -6t-27.5 -35z" />
    <glyph glyph-name="afii10038" unicode="&#x424;" horiz-adv-x="854" 
d="M10 627q0 -63 8 -125q10 -84 25 -127q24 -70 55 -111q54 -74 166 -112q-2 -59 -2 -166q0 -25 17.5 -42.5t42.5 -17.5t42 17.5t17 42.5q0 90 2 141h10q141 -6 215 141q30 58 47 213.5t15 327.5q0 441 -115 534q-25 16 -55 27q-10 3 -31.5 7.5t-26.5 6.5h-43q-3 1 -9 2.5
t-9 2.5q-6 70 0 122q2 25 -13 44t-40 22q-24 3 -42.5 -12.5t-23.5 -40.5q-6 -58 0 -140q-38 -13 -55 -22q-93 -53 -141 -182q-56 -151 -56 -447v-106zM129 643v90q0 275 49 406q36 92 86 118l8 5v-21q2 -43 2 -188q0 -132 2 -185q3 -180 -8 -589q-51 20 -75 55
q-15 25 -19 33q-23 52 -27 69l-8 37q-1 6 -2 21t-2 22q-2 18 -2 41q-4 32 -4 86zM385 246q14 437 10 626q-2 49 -2 185q0 145 -2 188v19q16 -3 37 -13q26 -10 49 2l4 -4q28 -22 49 -143q20 -122 22 -288.5t-15 -315.5q-14 -142 -44.5 -199.5t-95.5 -56.5h-12z" />
    <glyph glyph-name="afii10039" unicode="&#x425;" horiz-adv-x="665" 
d="M-25 1432q12 -88 38.5 -180t80.5 -251q20 -59 60 -182l32 -102q-100 -431 -139 -654q-4 -25 10 -44.5t39 -24.5q25 -4 45 10t25 39q28 166 86 432l113 -424q6 -23 27 -35t46 -6q23 6 35 27.5t6 46.5l-80 301q-67 248 -92 336l2 8q99 434 142 696q2 25 -13 45t-39 23
q-25 3 -43.5 -11.5t-23.5 -39.5q-32 -222 -94 -494l-33 96q-33 93 -37 109l-29 92q-34 112 -45 203q-5 25 -23.5 39.5t-43.5 11.5q-24 -3 -39 -22.5t-13 -44.5z" />
    <glyph glyph-name="afii10040" unicode="&#x426;" horiz-adv-x="794" 
d="M-14 1401q-4 25 10 44.5t39 24.5q25 4 44.5 -10t24.5 -39q22 -174 15 -368q-3 -79 0 -174q2 -291 16 -568q4 -30 0 -57v-57q0 -55 10 -82q4 -7 11 -11h4l39 2q89 -3 217 5v94q2 88 2 168q4 152 4 344q4 154 4 344q1 15 2 51.5t2 54.5q6 135 -2 217q-2 25 12.5 44t38.5 22
q25 4 44 -10t24 -39q8 -92 2 -240q-1 -18 -1.5 -41t-1 -37t-1.5 -22q0 -190 -4 -344q0 -192 -4 -344v-27h4q25 0 43 -16.5t18 -40.5q8 -243 8 -449q-2 -25 -19 -42t-42 -17t-42.5 17t-17.5 42v160q-6 0 -8 -2h-6q-8 -4 -14 -4q-21 0 -37 -2q-99 -6 -225 -6h-43q-29 0 -41 6
q-103 41 -97 207v59q2 25 -2 47q-14 282 -16 572q-3 103 0 180q8 208 -14 344z" />
    <glyph glyph-name="afii10041" unicode="&#x427;" horiz-adv-x="784" 
d="M-16 1483q0 -398 55 -584q51 -180 164.5 -256t265.5 -27q12 -334 12 -550q0 -25 17.5 -42.5t42.5 -17.5t42 17.5t17 42.5q0 238 -18 710q-19 496 -19 707q0 25 -17 42t-42 17t-42.5 -17t-17.5 -42q0 -237 21 -744q-125 -46 -198.5 3t-112.5 192q-52 171 -52 549
q0 25 -17 42t-42 17t-42 -17t-17 -42z" />
    <glyph glyph-name="afii10042" unicode="&#x428;" horiz-adv-x="1019" 
d="M31 1411q3 -105 20 -254q23 -193 27.5 -268t3.5 -246q0 -67 -2 -135t-2 -158v-104q-2 -29 -2 -80q0 -84 2 -111v-39q0 -12 4 -24q0 -16 14.5 -29t34.5 -18q2 -1 7.5 -2t8.5 -2q10 -2 39 -2q76 -3 195 8l39 6q3 1 8.5 2t7.5 2l13 6h2l92 4q9 1 28 2t29 2q133 11 172 41
q67 54 64 193q0 28 -7 96l-6 64q-8 288 0 669q4 286 4 396q0 25 -17 42t-42 17t-42 -17t-17 -42q0 -108 -4 -398q-8 -385 0 -672q0 -12 6 -73q19 -160 -13 -181l-28 -8q-55 -11 -174 -14q2 31 2 123q0 76 -2 127q-2 49 -2 80q0 166 6 501q4 442 4 500q0 25 -17.5 42.5
t-42.5 17.5t-42 -17.5t-17 -42.5q0 -58 -4 -500q-6 -334 -6 -501q0 -31 2 -80q2 -51 2 -127q0 -90 -2 -119q-2 -8 -2 -22l-8 -3q-78 -10 -170 -6q-2 27 -2 109q0 49 2 78v106q0 90 2 158t2 135q3 155 -8 297q-41 319 -43 475q0 24 -18.5 41t-43.5 17q-24 0 -40.5 -18.5
t-16.5 -43.5z" />
    <glyph glyph-name="afii10043" unicode="&#x429;" horiz-adv-x="1089" 
d="M31 1411q0 25 16.5 43.5t40.5 18.5q25 0 43.5 -17t18.5 -41q2 -156 43 -475q11 -142 8 -297q0 -67 -2 -135t-2 -158v-106q-2 -29 -2 -78q0 -82 2 -109q92 -4 170 6l8 3q0 14 2 22q2 29 2 119q0 76 -2 127q-2 49 -2 80q0 166 6 501q4 442 4 500q0 25 17 42.5t42 17.5
t42.5 -17.5t17.5 -42.5q0 -58 -4 -500q-6 -334 -6 -501q0 -31 2 -80q2 -51 2 -127q0 -92 -2 -123q119 3 174 14l28 8q32 21 13 181q-6 61 -6 73q-8 287 0 672q4 290 4 398q0 25 17 42t42 17t42 -17t17 -42q0 -110 -4 -396q-8 -381 0 -669l2 -21q2 2 11 2q25 0 43 -16.5
t18 -40.5q8 -243 8 -449q-2 -25 -19 -42t-42 -17t-42.5 17t-17.5 42v185l-12 -13q-39 -30 -172 -41q-10 -1 -29 -2t-28 -2l-92 -4h-2l-13 -6q-2 -1 -7.5 -2t-8.5 -2l-39 -6q-119 -11 -195 -8q-29 0 -39 2q-3 1 -8.5 2t-7.5 2q-20 5 -34.5 18t-14.5 29q-4 12 -4 24v39
q-2 27 -2 111q0 51 2 80v104q0 90 2 158t2 135q1 171 -3.5 246t-27.5 268q-17 149 -20 254z" />
    <glyph glyph-name="afii10044" unicode="&#x42a;" horiz-adv-x="790" 
d="M-64.5 1403.5q-1.5 -25.5 13.5 -43.5q10 -13 22 -18.5t29 -5.5t41 1q23 2 49 2q25 0 31 -2q1 -3 2 -10.5t2 -11.5l6 -101q8 -280 8 -294l6 -512v-179q4 -100 5 -110q1 -7 2 -22t2 -21q1 -3 2 -9.5t2 -9.5q2 -15 14 -30q21 -27 66 -33q20 -4 36 -4q9 0 19 -2t24 -2
q30 -5 56 -2q37 0 57 10q88 34 135 174q35 108 40.5 255.5t-19.5 274.5q-14 75 -35 125.5t-58 88.5t-95.5 53t-141.5 8l-6 248q-1 20 -2.5 39.5l-3 39t-2.5 27.5q-3 49 -17 74q-34 57 -135 57q-9 2 -57 -2h-33q-25 3 -43 -12q-20 -15 -21.5 -40.5zM258 854q59 5 95.5 -1
t59.5 -30t34 -55t22 -90q21 -110 17.5 -246.5t-33.5 -226.5q-20 -59 -35.5 -79t-46 -23.5t-82.5 6.5q-11 0 -21 2v14q-1 15 -2 50.5t-2 53.5v273q-2 45 -2 168q-1 32 -2 93.5t-2 90.5z" />
    <glyph glyph-name="afii10045" unicode="&#x42b;" horiz-adv-x="1103" 
d="M57 1434q13 -55 21 -107q16 -117 20 -233q8 -220 8 -244q1 -25 21 -244q18 -196 20 -233q0 -27 -2 -62q-2 -68 -2 -104q-2 -45 -2 -105q2 -16 2 -39q1 -3 2 -9t2 -9q3 -18 13 -31q42 -57 186 -45q126 11 170 45q68 50 102 172q26 100 31 226.5t-14 242.5q-20 114 -60 175
t-108 88q-41 18 -91 22.5t-72 2t-81 -10.5q-12 370 -51 530q-6 23 -26.5 36t-43.5 7q-25 -6 -38 -26t-7 -45zM227 811q4 0 6 2q71 20 141.5 8t100.5 -55q27 -43 43 -140t12 -206q-1 -113 -25.5 -198t-58.5 -113l-34 -11q-89 -19 -146 -10q-2 0 -4 2t-2 14q0 56 2 99
q0 36 2 104q2 37 2 70q-2 39 -20 244q-17 140 -19 190zM784 1456q18 -149 11 -448q-4 -176 -4 -191q0 -128 6 -389q4 -348 4 -389q0 -25 17 -42t42 -17t42.5 17t17.5 42q0 48 -2 185t-3 204q-6 261 -6 389q0 7 4 187q6 265 -10 464q-1 24 -20.5 40t-44.5 14q-24 -1 -40 -21
t-14 -45z" />
    <glyph glyph-name="afii10046" unicode="&#x42c;" horiz-adv-x="833" 
d="M57 1434q13 -55 21 -107q16 -117 20 -233q8 -220 8 -244q1 -25 21 -244q18 -196 20 -233q0 -27 -2 -62q-2 -68 -2 -104q-2 -45 -2 -105q2 -16 2 -39q1 -3 2 -9t2 -9q3 -18 13 -31q42 -57 186 -45q126 11 170 45q68 50 102 172q26 100 31 226.5t-14 242.5q-20 114 -60 175
t-108 88q-41 18 -91 22.5t-72 2t-81 -10.5q-12 370 -51 530q-6 23 -26.5 36t-43.5 7q-25 -6 -38 -26t-7 -45zM227 811q4 0 6 2q71 20 141.5 8t100.5 -55q27 -43 43 -140t12 -206q-1 -113 -25.5 -198t-58.5 -113l-34 -11q-89 -19 -146 -10q-2 0 -4 2t-2 14q0 56 2 99
q0 36 2 104q2 37 2 70q-2 39 -20 244q-17 140 -19 190z" />
    <glyph glyph-name="afii10047" unicode="&#x42d;" horiz-adv-x="735" 
d="M-8 1465.5q-8 -23.5 2 -46.5q9 -22 32 -30t46 0q125 58 198 10q51 -35 87.5 -133.5t52 -203t20.5 -214.5h-4q-98 -4 -203 -4q-25 0 -42 -17.5t-17 -42.5t17 -42t42 -17q105 0 207 4l-6 -106q-25 -281 -118.5 -431t-233.5 -120q-23 6 -44.5 -7t-25.5 -36q-6 -25 7 -46.5
t38 -25.5q112 -26 205 21t158 153q68 115 105 292.5t35 359.5t-34 358q-56 270 -178 354.5t-315 3.5q-23 -10 -31 -33.5z" />
    <glyph glyph-name="afii10048" unicode="&#x42e;" horiz-adv-x="901" 
d="M-14 1456q-2 25 13.5 45t39.5 21q25 2 44.5 -14t20.5 -40q17 -209 11 -464q-4 -180 -4 -187v-18q41 1 70.5 2.5t40.5 2t27 1t40 0.5q-9 310 12 463q12 86 33 140t61 77q8 4 15.5 7t16 5t14.5 3t16.5 0.5t16.5 -0.5t20 -2t20.5 -3t25 -4t27.5 -4q21 -5 35.5 -19t15.5 -34
q21 -18 29 -33q67 -110 70 -555q0 -228 -6 -436l-4 -131q-3 -151 -48 -228q-39 -73 -107.5 -79t-150.5 61q-72 60 -84 186q-2 23 -2 92q0 62 -2 76q-12 163 -18 299q-27 0 -43.5 -0.5t-27.5 -1t-40.5 -2t-70.5 -2.5l4 -252q4 -348 4 -389q0 -25 -17.5 -42t-42.5 -17t-42 17
t-17 42q0 41 -4 389q-6 261 -6 389q0 15 4 191q7 306 -10 448zM406 942q3 -246 26 -547q2 -14 2 -84q0 -52 1 -75.5t11.5 -59t32.5 -53.5q42 -36 60 -33q8 3 18 19q28 58 31 170l4 133q6 205 6 434q-3 410 -53 493l-8 9q-23 18 -29 24l-4 4q-6 2 -19 2q-22 3 -32 0
q-9 -13 -13 -24q-10 -33 -20 -101q-17 -128 -14 -311z" />
    <glyph glyph-name="afii10049" unicode="&#x42f;" 
d="M-57 2q6 -25 26 -37t45 -5.5t37 26.5q40 67 96 186l50 109l45 96q94 203 157 287q0 -113 2 -166q0 -73 -2 -136q-3 -208 17 -321q6 -25 25.5 -39t43.5 -8q25 5 39.5 24t10.5 43q-18 96 -15 297q3 92 0 144q-9 0 0 481v481q0 44 -39 56q-16 25 -43 28
q-210 32 -327.5 -65.5t-128.5 -311.5q-7 -192 67 -295.5t244 -154.5q-73 -105 -160 -293l-43 -100l-49 -105q-8 -20 -43 -88l-49 -88q-12 -20 -6 -45zM100 1167q7 159 80.5 222.5t220.5 44.5q0 -164 -2 -301t-2 -314q-6 0 -10 -2q-69 20 -100 33q-95 31 -142 94
q-51 66 -45 223z" />
    <glyph glyph-name="afii10065" unicode="&#x430;" horiz-adv-x="753" 
d="M16 641q-28 -194 4 -376.5t115 -241.5q75 -52 138 -34t106 95l12 25q16 -57 64 -86q6 -3 10 -7l6 -4q2 0 4 -2q19 -13 45 -10q25 5 39 25t10 45q-1 7 -2.5 12t-4.5 10t-4.5 7t-8 6.5t-9 6t-13 7t-15.5 8.5h-2q-6 17 -12 66q-13 88 -13 276q-2 117 -10 197v69l-6 121
q-1 7 -2 20.5t-2 18.5q-1 3 -2 9t-2 9l-8 17q8 21 -0.5 43.5t-28.5 32.5q-176 83 -291 -54q-87 -104 -117 -311zM134 627.5q26 171.5 89 249.5q46 55 113 36q-6 -17 -2 -69q2 -10 2 -19q4 -68 16 -139l4 -29q-2 -155 -21.5 -299t-60.5 -219q-19 -31 -31.5 -35.5t-37.5 13.5
q-49 37 -70 184q-27 155 -1 326.5z" />
    <glyph glyph-name="afii10066" unicode="&#x431;" horiz-adv-x="706" 
d="M-41 580q-6 -227 33.5 -384.5t134.5 -205.5q80 -39 150.5 -20t123 74.5t78.5 131.5q52 131 41.5 310.5t-82.5 301.5q-54 96 -128 134t-154 12q-25 -11 -43 -21q31 154 67 199q21 25 35 35q32 23 88 47q46 23 53 27q74 41 105.5 98.5t15.5 146.5q-6 25 -26 39.5t-43 10.5
q-25 -6 -39.5 -26.5t-10.5 -43.5q10 -49 -3 -73t-56 -48l-102 -49q-72 -39 -111 -90q-53 -67 -87.5 -238t-39.5 -368zM78 575q0 43 2 66q6 9 6 16q13 64 43.5 107.5t65.5 56.5q73 27 141 -90q57 -102 66 -250.5t-33 -263.5q-26 -74 -82 -115q-27 -18 -52.5 -20.5t-50.5 12.5
t-46.5 55t-35.5 103q-27 132 -24 323z" />
    <glyph glyph-name="afii10067" unicode="&#x432;" horiz-adv-x="618" 
d="M0 1038q0 -315 12 -450q2 -14 2 -103v-327q2 -25 2 -58q2 -8 2 -20q4 -19 9 -27q30 -71 104 -80q49 -7 105.5 15.5t103.5 62.5q46 38 68 89.5t26 146.5q1 53 -4.5 94.5t-20 82t-43.5 71.5t-73 51q31 40 49 84q31 77 33.5 148.5t-23 128t-82 96.5t-137.5 55q-25 6 -45 -8
q-11 8 -29 8q-25 0 -42 -17.5t-17 -42.5zM119 981q200 -47 112 -266q-22 -52 -55 -78l-24 -8q-20 -10 -23 -11q-10 140 -10 363zM133 160v325q2 -1 5.5 -2t4.5 -2q19 -3 41 0q7 0 13 2t10 2h4q69 -12 90 -77q14 -43 12.5 -119t-18.5 -113q-11 -18 -35 -37q-26 -24 -58 -37.5
t-52 -11.5l-4 3q-4 3 -5 5l-6 6v5q0 28 -2 51z" />
    <glyph glyph-name="afii10068" unicode="&#x433;" horiz-adv-x="460" 
d="M-37 967q0 -60 2 -105q9 -189 26.5 -478t28.5 -357q5 -25 25 -39.5t45 -10.5q25 5 39 25t10 45q-22 139 -55 819q-2 43 -2 103v18q15 9 39 12q10 2 96 2q25 0 42 17.5t17 42.5t-17 42t-42 17q-116 0 -153 -10q-59 -15 -91 -68q-4 -8 -8 -28q-2 -2 -2 -13v-34z" />
    <glyph glyph-name="afii10069" unicode="&#x434;" horiz-adv-x="886" 
d="M-10 -111q8 -100 8 -108q0 -25 17 -42.5t42 -17.5t42.5 17.5t17.5 42.5q0 3 -4 53q-11 110 -2 137q6 6 12 9h16q14 2 56 2h165q121 0 164 -2q27 -3 47 -3l7 -40q6 -75 6 -101q4 -25 23 -38.5t44 -10.5q24 3 38.5 22t12.5 44q-2 4 -2 36q-1 10 -2 31t-2 29q-12 99 -53 131
q-12 9 -27 12q-6 0 -10 2h-20q-6 2 -23 2q0 25 4 209q2 92 2 199q0 298 -14 444v15q0 18 -2 24q-3 44 -31 72q-11 11 -26 14q-2 2 -9 2h-18q-15 0 -25 -2q-74 -4 -131 -14q-4 -1 -12.5 -2t-11.5 -2q-4 -2 -10 -2q-1 -1 -4.5 -2t-4.5 -2h-4q-10 -3 -20 -17q-21 -27 -21 -80
q-2 -18 -2 -94q2 -138 -2 -270q-21 -387 -143 -488q-9 -6 -15 -18q-30 -15 -46 -34t-23.5 -57.5t-3.5 -101.5zM229 100q96 159 111 482q4 137 2 278q0 68 2 82l49 6l43 4v-16q15 -150 15 -430q0 -107 -2 -199q-1 -34 -3 -107.5t-2 -99.5h-215z" />
    <glyph glyph-name="afii10070" unicode="&#x435;" horiz-adv-x="614" 
d="M12 346q6 -49 11 -80t13.5 -70.5t20 -65t29 -52t42 -44.5t56.5 -30q50 -21 105.5 -6.5t97.5 63.5q17 19 15 43t-21 41t-43 15t-41 -21q-32 -39 -74 -22.5t-61 76.5q-36 107 -45 309q35 -2 92 -2q63 0 86 2q58 4 78 22q60 51 57 166q-2 92 -43 190.5t-100 145.5
q-43 34 -89 35.5t-92 -33.5q-62 -51 -90 -186q-42 -185 -4 -496zM115 621q0 118 18.5 204.5t50.5 112.5q8 8 11 4q7 0 18 -8q36 -30 66.5 -105t31.5 -143q3 -44 -10 -63q-4 -2 -16 -2q-27 -3 -76 -3q-38 0 -94 3z" />
    <glyph glyph-name="afii10072" unicode="&#x436;" horiz-adv-x="974" 
d="M-41 1021q-5 -24 8 -44q98 -150 152 -260q23 -49 37.5 -89t23 -70t6.5 -61.5t-4 -50.5t-16.5 -50t-24 -47.5t-32.5 -55.5q-1 -2 -8 -14.5t-17.5 -30.5t-22.5 -37q-44 -74 -59 -102q-11 -20 -3 -44t30 -34q22 -12 45 -5.5t35 29.5q13 31 55 97l49 81q69 122 86 207
q1 2 2 7t2 8h23q-6 -240 4 -408q1 -25 19.5 -41t43.5 -14t41 20t15 43q-10 177 -5 406q27 0 39 2q3 -32 9 -57q33 -113 126 -275l60 -106q12 -23 36 -30t46 5q21 10 28 34t-4 44l-65 115q-36 66 -52.5 96.5t-34 71.5t-26.5 73q-4 15 -5.5 33.5t1 42.5t5 45.5t9.5 53.5
t11.5 53t14 57t14.5 54t15.5 55.5t14.5 50.5q33 123 39 149q6 23 -7 44.5t-36 27.5q-25 5 -46.5 -9t-25.5 -38q-10 -41 -39 -146q-65 -224 -77 -321l-45 -6q3 52 0 141q-3 195 12 285q4 25 -10 44.5t-39 24.5q-25 4 -45 -10t-25 -39q-16 -100 -12 -315q3 -95 0 -138h-33
q-41 186 -231 469q-14 20 -38 25t-44 -8q-20 -14 -25 -38z" />
    <glyph glyph-name="afii10073" unicode="&#x437;" horiz-adv-x="600" 
d="M-23 168q0 -15 5 -55q10 -56 46 -92.5t87 -47.5q100 -21 180 50q50 44 76 128.5t26 165.5q0 111 -45 187l21 28q39 72 43 246q0 175 -39 246q-29 51 -86.5 77.5t-118 17t-96.5 -53.5q-63 -80 -66 -272v-37q-2 -14 -2 -37q0 -21 -2 -29q-2 -25 14 -43.5t41 -19.5
q25 -2 44 14t20 41q0 17 4 27v79q3 156 39 203q11 13 35 10q50 -7 65 -27t23 -75q13 -117 -4 -240q-6 -46 -17 -65q-10 -17 -16 -21h-14q-17 2 -39 -2q-37 -10 -51 -45t6 -61q17 -24 41 -28t45 5q4 0 8 2q5 -9 16 -41q13 -50 13 -86q0 -56 -19 -118.5t-43 -85.5
q-37 -32 -74 -24.5t-43 44.5q-5 3 -2 62q2 39 2 75q0 25 -17 42.5t-42 17.5t-42 -17.5t-17 -42.5q0 -18 -2 -41q-3 -35 -3 -61z" />
    <glyph glyph-name="afii10074" unicode="&#x438;" horiz-adv-x="604" 
d="M-45 1018q34 -469 37 -658q2 -24 -2 -133q-4 -113 -2 -141v-8q-4 -4 -4 -25q-11 -58 34 -80q25 -11 48 -4t36 27q8 8 9 12q5 7 12 29q2 5 7 19.5t10.5 29.5t9.5 31q26 75 73 239l74 267q2 -39 2 -574q0 -25 17 -42t42 -17t42.5 17t17.5 42q0 94 2 172v185q0 210 -10 346
v22q-2 14 -2 47q-4 58 -17 127q-7 26 -14 37q-19 32 -49.5 40t-53.5 -13q-9 -6 -12 -15q-8 -11 -8 -22q-4 -10 -6 -23q-3 -25 -12 -65q-1 -4 -4.5 -19t-4.5 -24l-6 -39l-4 -21q-18 -81 -106 -391q-5 135 -37 633q-1 25 -20 41t-44 14q-25 -1 -41 -19.5t-14 -43.5z" />
    <glyph glyph-name="afii10075" unicode="&#x439;" horiz-adv-x="608" 
d="M-45 1018q34 -469 37 -658q2 -24 -2 -133q-4 -113 -2 -141v-8q-4 -4 -4 -25q-11 -58 34 -80q25 -11 48 -4t36 27q8 8 9 12q5 7 12 29q2 5 7 19.5t10.5 29.5t9.5 31q26 75 73 239l74 267q2 -39 2 -574q0 -25 17 -42t42 -17t42.5 17t17.5 42q0 94 2 172v185q0 210 -10 346
v22q-2 14 -2 47q-4 58 -17 127q-7 26 -14 37q-19 32 -49.5 40t-53.5 -13q-9 -6 -12 -15q-8 -11 -8 -22q-4 -10 -6 -23q-3 -25 -12 -65q-1 -4 -4.5 -19t-4.5 -24l-6 -39l-4 -21q-18 -81 -106 -391q-5 135 -37 633q-1 25 -20 41t-44 14q-25 -1 -41 -19.5t-14 -43.5zM-25 1425
q19 -100 75.5 -166t133.5 -73q81 -7 145 51t93 164q6 23 -6 44.5t-35 27.5q-25 6 -46.5 -6t-27.5 -37q-21 -74 -51 -101t-59 -24q-32 2 -63 40t-44 105q-5 23 -24.5 37t-42.5 10q-25 -6 -39.5 -27t-8.5 -45z" />
    <glyph glyph-name="afii10076" unicode="&#x43a;" horiz-adv-x="638" 
d="M-2 1042q18 -635 6 -991q0 -25 16.5 -43t40.5 -18q25 0 43.5 16.5t18.5 40.5q7 219 4 430q10 0 16 2l21 6q56 -3 86 -26q24 -19 41 -48t25 -53.5t13 -67t5.5 -61t1.5 -63.5v-119q0 -24 18 -40.5t43 -16.5q24 0 41 18t17 43v117q-3 81 -9 133q-21 176 -122 252
q-27 18 -56 31q23 23 29 30q176 194 129 441q-6 25 -26 39t-44 10q-25 -6 -39 -26t-10 -44q35 -192 -100 -342q-41 -44 -80 -67q-5 282 -10 422q0 24 -18.5 40.5t-43.5 16.5q-24 0 -40.5 -18.5t-16.5 -43.5z" />
    <glyph glyph-name="afii10077" unicode="&#x43b;" horiz-adv-x="708" 
d="M-68 55q-2 25 14 45t40 21q134 12 161 264q9 71 9 152q0 56 -4 174q-1 27 -3 69t-2 54q0 16 -2 26l-4 35q-6 60 14 101t78 63q74 26 177 26h30q9 0 21 -4q15 -3 24 -12q31 -25 35 -111v-135q4 -16 4 -18l-4 10q2 -14 2 -76q2 -235 -2 -467q-4 -212 -4 -241
q0 -25 -17 -42.5t-42 -17.5t-42.5 17.5t-17.5 42.5q0 29 4 241q4 233 2 467v62q-2 2 -2 4v162q-80 0 -125 -19l-16 -8q-3 -10 0 -33q0 -8 2 -10v-12q0 -9 2 -11q2 -16 2 -40l4 -117q9 -192 -6 -346q-41 -348 -266 -369q-25 -2 -45 13.5t-21 39.5zM397 825l4 -18q-7 13 -4 18
z" />
    <glyph glyph-name="afii10078" unicode="&#x43c;" horiz-adv-x="860" 
d="M-2 33q0 -25 17 -42.5t42 -17.5t42.5 17.5t17.5 42.5q0 18 10 633q1 -2 11 -46t36 -157.5t55 -235.5l9 -30l4 -23q3 -9 4 -10q1 -3 8 -60v-4q-8 -39 2 -67q10 -26 34 -37.5t50 -3.5q18 6 30.5 22.5t16.5 26.5t10 31q13 40 33 172q6 49 8 51q45 253 78 401q4 -30 8 -86
l8 -92q2 -33 7 -96q12 -196 18 -369q0 -24 18 -40.5t43 -16.5q24 0 41 18t17 43q-5 132 -19 373q-3 38 -6 96l-8 92q-11 153 -43 312v2q2 0 2 4v22q0 24 -6 39q-18 43 -66 43q-31 0 -47 -22q-4 -8 -6 -10q-1 -2 -2.5 -6t-3 -8.5t-2.5 -8.5l-10 -37l-25 -92
q-52 -197 -108 -514l-84 356q-34 135 -62 215q-15 48 -30 74q-10 20 -19 29q-23 26 -55 26q-36 0 -51 -30q-9 -12 -9 -23q0 -6 -2 -10v-25q-4 -70 -4 -182q0 -66 -6 -330q-6 -267 -6 -409z" />
    <glyph glyph-name="afii10079" unicode="&#x43d;" horiz-adv-x="671" 
d="M27 1030l18 -428q16 -378 16 -543q0 -25 17.5 -42t42.5 -17t42 17t17 42q0 149 -10 426q6 0 182 4q3 -202 17 -415q2 -25 20 -41t43 -15t41 20t14 44q-34 571 -4 952q2 25 -14 44t-41 20t-43 -15t-20 -41q-18 -233 -15 -434q-161 -4 -186 -2q-17 365 -19 428q0 24 -18 41
t-43 17q-24 0 -40.5 -18.5t-16.5 -43.5z" />
    <glyph glyph-name="afii10080" unicode="&#x43e;" horiz-adv-x="651" 
d="M47.5 477q5.5 -179 28.5 -305q27 -165 96 -201q38 -22 99.5 -23t101.5 27q61 50 78 197q19 123 16 285q-2 155 -16 292.5t-37 192.5q-20 53 -41 74q-9 9 -30.5 22t-27.5 15q-18 24 -49 24h-33q-30 0 -40 -2q-49 -9 -87 -65q-36 -55 -51 -215q-13 -139 -7.5 -318z
M166 480.5q-5 172.5 8 303.5q12 131 31 160q3 4 7 9t5 5h27q2 -2 4 -2l35 -22l8 -4l12 -33q16 -44 31 -170q32 -344 0 -537q-8 -53 -21 -90q-6 -22 -14 -30q-8 -2 -29 -2q-24 0 -39 6q-6 6 -14 26q-15 33 -24 95q-22 113 -27 285.5z" />
    <glyph glyph-name="afii10081" unicode="&#x43f;" horiz-adv-x="604" 
d="M-27 836q0 -124 14.5 -386t32.5 -446q1 -24 21 -39.5t45 -13.5q24 1 39.5 20.5t13.5 44.5q-18 183 -32.5 441.5t-14.5 380.5q-3 64 0 102q2 2 2 8l2 2l78 11l80 6h22q8 -11 13 -25l4 -35l6 -98q3 -104 0 -285l-4 -291l-4 -210q0 -25 17 -42.5t42 -17.5t42.5 17.5
t17.5 42.5l4 210l4 289q3 182 0 291l-6 105q-10 118 -88 159q-13 8 -41 8h-33q-89 -3 -174 -18q-7 -1 -35 -8l-16 -6q-21 -11 -29 -21q-20 -28 -23 -84q-3 -43 0 -112z" />
    <glyph glyph-name="afii10082" unicode="&#x440;" horiz-adv-x="698" 
d="M43 1004q0 -91 2 -136q3 -139 16 -286l13 -152q4 -40 7 -85t3 -50q34 -426 12 -696q-2 -25 14.5 -44t41.5 -20q25 -2 43.5 14t19.5 41q14 176 4 441q4 -8 10 -11q56 -47 115 -38q53 11 95.5 70t49.5 147q29 272 24 472t-62 310q8 21 -1 42.5t-32 31.5l-19 10
q-32 13 -63 22q-39 9 -84 -8q-53 -15 -88 -80l-2 -6v11q0 25 -17.5 42t-42.5 17t-42 -17t-17 -42zM219 568.5q-4 167.5 21 283.5q10 48 28 90q11 22 24 27t30 -2q3 -10 8 -17q40 -51 54.5 -163t10 -242.5t-23.5 -333.5q-3 -57 -35 -100q-11 -11 -12 -11q-6 0 -17 11
q-28 25 -55 153q-29 137 -33 304.5z" />
    <glyph glyph-name="afii10083" unicode="&#x441;" horiz-adv-x="600" 
d="M18 627q2 -55 2 -111q-6 -59 -1.5 -174.5t22.5 -183.5q12 -42 47 -90q88 -123 188 -105q67 11 104 76.5t36 173.5q0 14 -4 80q-1 13 -2 28.5t-1.5 24t-0.5 12.5q0 24 -18.5 41t-43.5 17q-24 0 -40.5 -18.5t-16.5 -43.5q0 -5 0.5 -14t1.5 -25.5t2 -29.5q7 -47 6 -100.5
t-18 -82.5q-12 -20 -22.5 -22t-29.5 10q-25 17 -46 46t-27 54q-30 106 -17 326q0 58 -2 113q0 57 -1 110.5t9 110.5t33 96q19 31 53.5 20.5t51.5 -53.5q1 -4 8 -26q4 -12 4 -41q0 -13 -2 -27t-2 -37q-2 -25 14 -43.5t41 -19.5q25 -2 44 14t20 41q13 90 -17 176
q-13 46 -50.5 82.5t-82.5 50.5q-56 14 -105 -4.5t-79 -70.5q-55 -93 -58 -254q-3 -47 0 -127z" />
    <glyph glyph-name="afii10084" unicode="&#x442;" horiz-adv-x="608" 
d="M-29 991q0 -24 18.5 -40.5t43.5 -16.5q27 2 86 2q-34 -600 -13 -926q1 -25 20 -41t44 -14q25 1 41 19.5t14 43.5q-20 301 15 924q12 1 56.5 4t72.5 4q25 1 41 20t14 44q-1 25 -20 41t-44 14l-178 -10h-8l-145 -6q-24 0 -41 -18.5t-17 -43.5z" />
    <glyph glyph-name="afii10085" unicode="&#x443;" horiz-adv-x="671" 
d="M14 1006q135 -472 199 -758q34 -157 47 -193l2 -8q-36 -244 -98 -414q-8 -24 2 -46t33 -29q24 -8 46 1.5t29 32.5q63 172 101 402q24 21 35 67q9 36 18 97q10 66 16 131q4 32 5 35q34 280 38 440q3 107 -2 197q-3 35 -12 51q-17 36 -54.5 37.5t-62.5 -33.5
q-9 -15 -12 -39l-4 -39q-7 -48 -10 -205q-3 -136 -11 -192l-18 -152q-68 290 -172 649q-6 24 -28 35.5t-46 5.5t-35.5 -27.5t-5.5 -45.5z" />
    <glyph glyph-name="afii10086" unicode="&#x444;" horiz-adv-x="821" 
d="M-55.5 271.5q3.5 -114.5 22.5 -175.5q17 -55 37 -82q33 -43 95.5 -51t107.5 29q-3 -185 4 -367q0 -24 18 -40.5t43 -16.5q24 0 41 18t17 43q-7 204 -4 428q57 -69 120 -69q60 2 101.5 67t54.5 183q18 157 26 260t8 218t-20 199.5t-59 145.5q-12 19 -35 24.5t-43 -4.5
q-90 32 -151 -41q-13 276 -13 363q0 25 -17 42t-42 17t-42 -17t-17 -42q0 -108 12 -363q-41 30 -74 35q-69 11 -114.5 -55.5t-55.5 -204.5q-14 -201 -19 -315t-1.5 -228.5zM63 283q-3 103 2.5 217t18.5 307q6 106 35 147l2 2l16 -10q0 -5 7.5 -87t14 -172t7.5 -136
q3 -330 -10 -406q-9 -45 -23 -59q-6 -6 -18 -4.5t-17 6.5q-9 13 -16 41q-16 51 -19 154zM360 681q8 188 48 263q9 22 20 29h4q3 0 12 -6l25 -19q8 -8 14 -10q34 -114 33 -261.5t-33 -426.5q-9 -88 -37 -133l-4 -8q-8 6 -26 24l-17 53q-14 60 -22 133q-25 174 -17 362z" />
    <glyph glyph-name="afii10087" unicode="&#x445;" horiz-adv-x="626" 
d="M-2 1073q12 -64 31 -125q16 -66 39 -119l22 -61l21 -57l28 -82q-95 -309 -135 -598q-2 -25 12.5 -44t38.5 -22q25 -3 44.5 10.5t23.5 38.5q28 203 82 408l121 -428q6 -24 28 -35.5t47 -5.5q23 6 34 28t5 46l-53 190l-63 225l-60 187l33 100l43 111q65 166 82 260
q6 24 -7.5 44.5t-37.5 26.5q-25 4 -45 -10t-25 -37q-12 -61 -45 -153l-33 -82l-28 -80q-68 187 -84 285q-5 25 -25 39t-45 10q-25 -5 -39 -25t-10 -45z" />
    <glyph glyph-name="afii10088" unicode="&#x446;" horiz-adv-x="677" 
d="M-14 150v104q0 79 14 291l18 289q4 55 17 208q2 25 19.5 42t41.5 16q25 -2 42 -20.5t16 -43.5q-13 -150 -17 -209l-18 -290q-15 -227 -15 -285v-98l2 -35q6 -14 13 -25l20 -2q25 2 82 2l78 6l2 2q0 7 2 9q6 37 6 102q6 117 4.5 375t-8.5 448q0 26 15.5 44t39.5 18
q26 0 45 -16.5t19 -41.5q16 -433 6 -749q24 -3 39.5 -19t15.5 -39q9 -273 9 -305q-2 -25 -19.5 -42t-42.5 -17t-41.5 17t-15.5 42v72l-10 -6q-2 -1 -8 -2t-9 -2q-24 -6 -35 -6q-86 -11 -176 -11l-33 2q-20 0 -38 11q-77 46 -80 164z" />
    <glyph glyph-name="afii10089" unicode="&#x447;" horiz-adv-x="628" 
d="M-63 904q3 -140 24 -216q70 -257 354 -231q5 0 7 2q4 -290 4 -410q0 -25 17 -42t42 -17t42 17t17 42q0 398 -18 1010q0 24 -18 40.5t-43 16.5q-24 0 -41 -18t-17 -43q9 -275 12 -480h-16q-99 -10 -151 26t-76 118q-33 126 -15 387q0 25 -16.5 43t-40.5 18
q-25 0 -43 -16.5t-18 -40.5q-9 -66 -6 -206z" />
    <glyph glyph-name="afii10090" unicode="&#x448;" horiz-adv-x="991" 
d="M12 1026q-3 -129 19 -391q24 -273 24 -381v-59q-2 -16 -2 -45v-64q2 -10 2 -27q0 -10 2 -12v-4q4 -16 15 -27q19 -22 53 -26l47 -6q29 -2 115 -2q65 0 151 4h119q23 -2 57 -2h115q4 2 10 2h9q2 2 8 2q32 16 41 45q1 2 2 8.5t2 9.5q1 5 2 18t2 19q3 40 0 107
q-4 137 -14 309l-13 213q-2 21 -14 203q-8 79 -8 100q-1 25 -20 41t-44 14q-25 -1 -41 -19.5t-14 -43.5q0 -20 8 -99q13 -189 14 -204l13 -211q10 -166 14 -305q3 -57 0 -91h-72q-33 0 -53 2h-82q20 151 2 447q-14 231 -14 235l-6 115q-3 92 0 113q0 25 -17 43t-41 18
q-25 0 -43 -16.5t-18 -40.5q-3 -114 20 -475q21 -295 -4 -443h-71q-82 0 -109 2h-6v48q0 29 2 45v59q0 121 -24 391q-22 258 -19 377q0 25 -16.5 43t-40.5 18q-25 0 -43.5 -16.5t-18.5 -40.5z" />
    <glyph glyph-name="afii10091" unicode="&#x449;" horiz-adv-x="1067" 
d="M12 1026q0 24 18.5 40.5t43.5 16.5q24 0 40.5 -18t16.5 -43q-3 -119 19 -377q24 -270 24 -391v-59q-2 -16 -2 -45v-48h6q27 -2 109 -2h71q25 148 4 443q-23 361 -20 475q0 24 18 40.5t43 16.5q24 0 41 -18t17 -43q-3 -21 0 -113l6 -115q0 -4 14 -235q18 -296 -2 -447h82
q20 -2 53 -2h72q3 34 0 91q-4 139 -14 305l-13 211q-1 15 -14 204q-8 79 -8 99q-2 25 14 43.5t41 19.5q25 2 44 -14t20 -41q0 -21 8 -100q12 -182 14 -203l13 -213q9 -198 10 -215l12 2q25 0 43 -17t18 -41q9 -273 9 -305q-2 -25 -19.5 -42t-42.5 -17t-41.5 17t-15.5 42v64
q-1 -1 -4 -2t-4 -2q-6 0 -8 -2h-9q-6 0 -10 -2h-115q-34 0 -57 2h-119q-86 -4 -151 -4q-86 0 -115 2l-47 6q-34 4 -53 26q-11 11 -15 27v4q-2 2 -2 12q0 17 -2 27v64q0 29 2 45v59q0 108 -24 381q-22 262 -19 391z" />
    <glyph glyph-name="afii10092" unicode="&#x44a;" horiz-adv-x="729" 
d="M-51 963q2 -25 20 -41t43 -15l76 4q3 1 9 2t9 2q0 -3 4 -36t5 -56q5 -80 8 -307q0 -63 2 -141q0 -175 4 -273q0 -26 2 -36l4 -17q2 -12 15 -29q55 -65 186 -30q110 27 151 86q41 60 53.5 170.5t-9.5 219t-72 159.5q-35 35 -76 49q-11 4 -21 7.5t-18 5.5t-18 3.5t-15.5 2
t-17 1t-16 0.5h-19h-20.5q-3 164 -15 246q-1 7 -8 43q-12 36 -41 53.5t-76 1.5l-20 -8h-2q-36 -4 -72 -4q-25 -1 -41 -19.5t-14 -43.5zM240 575q59 0 86 -6t47 -26q30 -30 44 -112t6.5 -165.5t-34.5 -120.5q-2 -4 -27 -18q-57 -31 -112 -31l-2 2v11q-4 94 -4 268
q-2 76 -2 141q0 39 -2 57z" />
    <glyph glyph-name="afii10093" unicode="&#x44b;" horiz-adv-x="909" 
d="M51 1032q0 -125 19 -397q15 -215 20 -326v-145q4 -137 60 -174q43 -28 135 -17q85 13 127.5 51t70.5 140q23 90 25.5 201.5t-16.5 197.5q-25 105 -77.5 146t-142.5 41q-12 2 -59 -2h-16q-11 0 -17 -3q-10 185 -10 287q0 25 -17 42.5t-42 17.5t-42.5 -17.5t-17.5 -42.5z
M188 629q11 0 19 2h14q31 3 49 0q51 0 71.5 -16t33.5 -78q17 -75 15 -170.5t-21 -171.5q-18 -71 -39 -86q-11 -9 -46 -15t-59 -6q-4 0 -6 2t-2 8q-5 21 -8 72v143q-1 26 -4 69t-8 116.5t-9 130.5zM598 1055q8 -303 8 -992q0 -25 17.5 -42t42.5 -17t42 17t17 42q0 688 -8 996
q0 24 -18.5 40.5t-43.5 16.5q-24 0 -40.5 -18t-16.5 -43z" />
    <glyph glyph-name="afii10094" unicode="&#x44c;" horiz-adv-x="692" 
d="M51 1032q0 -125 19 -397q15 -215 20 -326v-145q4 -137 60 -174q43 -28 135 -17q85 13 127.5 51t70.5 140q23 90 25.5 201.5t-16.5 197.5q-25 105 -77.5 146t-142.5 41q-12 2 -59 -2h-16q-11 0 -17 -3q-10 185 -10 287q0 25 -17 42.5t-42 17.5t-42.5 -17.5t-17.5 -42.5z
M188 629q11 0 19 2h14q31 3 49 0q51 0 71.5 -16t33.5 -78q17 -75 15 -170.5t-21 -171.5q-18 -71 -39 -86q-11 -9 -46 -15t-59 -6q-4 0 -6 2t-2 8q-5 21 -8 72v143q-1 26 -4 69t-8 116.5t-9 130.5z" />
    <glyph glyph-name="afii10095" unicode="&#x44d;" horiz-adv-x="710" 
d="M0.5 207q-6.5 -25 5.5 -45q57 -95 128 -130t145 -5q119 46 192 227q56 156 55.5 336.5t-55.5 331.5q-38 115 -116.5 154t-164.5 -7q-68 -35 -118 -110.5t-60 -159.5q-2 -25 12.5 -44t38.5 -22q25 -3 44.5 10.5t23.5 38.5q6 56 39.5 107.5t75.5 75.5q35 15 55 4
q34 -15 59 -84q42 -128 48 -275q-156 0 -203 -2q-24 0 -41 -18t-17 -43q0 -24 18.5 -41t43.5 -17q65 3 194 3q-11 -120 -56.5 -225t-110.5 -130q-26 -10 -52 2q-34 19 -75 84q-12 20 -37 26.5t-45 -5.5t-26.5 -37z" />
    <glyph glyph-name="afii10096" unicode="&#x44e;" horiz-adv-x="815" 
d="M-37 1014q0 25 16.5 43t40.5 18q25 0 43.5 -16.5t18.5 -40.5q6 -182 6 -445q52 2 75.5 4.5t47.5 2.5q0 139 8 235q15 160 51 215q39 57 86 66q10 2 41 2h33q30 0 49 -25q6 -2 27.5 -15t30.5 -22q22 -22 41 -73q23 -55 37 -193t16 -293q3 -156 -17 -284q-17 -148 -77 -197
q-40 -28 -101.5 -27t-99.5 23q-69 36 -96 201q-21 112 -27 268q-18 0 -28 -0.5t-15.5 -1t-26 -2t-53.5 -2.5v-432q0 -25 -17 -42.5t-42 -17.5t-42.5 17.5t-17.5 42.5q0 688 -8 991zM329.5 501q4.5 -174 26.5 -286q9 -56 25 -94q9 -22 14 -27q15 -6 39 -6q21 0 29 2
q7 7 14 31q13 37 21 90q32 193 0 537q-15 126 -31 170l-12 32l-9 4l-34 23q-2 0 -4 2h-27q-1 -1 -5 -6t-7 -8q-19 -29 -31 -160q-13 -130 -8.5 -304z" />
    <glyph glyph-name="afii10097" unicode="&#x44f;" horiz-adv-x="747" 
d="M14 852q18 53 75 104.5t128 83.5q78 35 143 35q89 0 138 -61l10 -23q2 -2 2 -8t2 -10q0 -19 2 -31l6 -100q12 -170 17 -297q25 -481 26 -490q2 -25 -13.5 -44.5t-39.5 -20.5q-25 -2 -45 13.5t-21 39.5q-3 32 -18 365q-3 -1 -6 -2.5l-5 -2.5l-3 -1.5t-2 -0.5h-2
q-58 -35 -92 -68t-64 -79q-38 -66 -64 -123l-53 -113q-12 -23 -35 -29.5t-45 5.5q-21 10 -29 34t3 44q6 10 49 104q42 92 76.5 146.5t81.5 99.5q23 23 51 43q-43 11 -105 35q-112 48 -160.5 136t-7.5 216zM116.5 722q8.5 -40 35.5 -66.5t77 -47.5q39 -17 138 -41l51 -12
q-3 55 -8.5 151t-6.5 130q0 9 -8 96v16l8 -8l-10 21v-3q0 -6 2 -10q-11 8 -35 8q-41 0 -92.5 -23t-91.5 -59q-41 -35 -47 -59q-21 -53 -12.5 -93z" />
    <glyph glyph-name="afii10071" unicode="&#x451;" horiz-adv-x="614" 
d="M-29 1182q-8 -26 1.5 -48.5t33.5 -29.5q24 -8 46.5 1t29.5 32l22 57q8 26 -0.5 48.5t-31.5 29.5q-25 8 -48 -1t-30 -32zM12 346q6 -49 11 -80t13.5 -70.5t20 -65t29 -52t42 -44.5t56.5 -30q50 -21 105.5 -6.5t97.5 63.5q17 19 15 43t-21 41t-43 15t-41 -21
q-32 -39 -74 -22.5t-61 76.5q-36 107 -45 309q35 -2 92 -2q63 0 86 2q58 4 78 22q60 51 57 166q-2 92 -43 190.5t-100 145.5q-43 34 -89 35.5t-92 -33.5q-62 -51 -90 -186q-42 -185 -4 -496zM115 621q0 118 18.5 204.5t50.5 112.5q8 8 11 4q7 0 18 -8q36 -30 66.5 -105
t31.5 -143q3 -44 -10 -63q-4 -2 -16 -2q-27 -3 -76 -3q-38 0 -94 3zM287 1171q-6 -24 6.5 -44.5t36.5 -26.5t44.5 6.5t26.5 36.5l17 63q6 23 -6 44.5t-35 27.5q-25 6 -46.5 -6t-27.5 -37z" />
    <glyph glyph-name="afii10099" unicode="&#x452;" horiz-adv-x="843" 
d="M-78 1192q1 -24 21 -39.5t45 -13.5q78 8 104 10l4 -53q0 -5 3 -58t7 -98q11 -146 13 -178q16 -304 16 -711q0 -25 17.5 -42t42.5 -17t42 17t17 42q0 309 -10 572q42 64 69 88q21 18 46.5 25.5t54.5 -2.5t49 -42q36 -55 57 -172q20 -110 20 -209t-18 -143
q-12 -30 -34 -46.5t-74 -35.5q-25 -11 -33 -29q-10 -22 -1.5 -45.5t30.5 -34.5q29 -14 114 27q30 13 61.5 47t47.5 76q23 59 26 182q0 128 -24.5 249.5t-71.5 197.5q-34 53 -79.5 79t-90 24.5t-84.5 -16.5t-73 -42q-18 216 -21 301q-4 46 -4 61q63 10 74 11q24 5 38.5 25
t10.5 44q-5 24 -25.5 38.5t-44.5 10.5q-34 -7 -59 -10q-3 77 0 148q0 25 -17 43t-41 18q-25 0 -43 -16.5t-18 -40.5q-3 -77 0 -166q-15 -1 -32.5 -2.5t-40.5 -4.5t-38 -4q-24 -1 -39.5 -20.5t-13.5 -44.5z" />
    <glyph glyph-name="afii10100" unicode="&#x453;" horiz-adv-x="516" 
d="M-37 967q0 -60 2 -105q9 -189 26.5 -478t28.5 -357q5 -25 25 -39.5t45 -10.5q25 5 39 25t10 45q-22 139 -55 819q-2 43 -2 103v18q15 9 39 12q10 2 96 2q25 0 42 17.5t17 42.5t-17 42t-42 17q-116 0 -153 -10q-59 -15 -91 -68q-4 -8 -8 -28q-2 -2 -2 -13v-34zM8.5 1222
q6.5 -24 28.5 -36q21 -13 44.5 -7t35.5 29q117 205 200 308q17 19 15 43.5t-21 39.5q-20 15 -45.5 12.5t-38.5 -22.5q-93 -113 -213 -323q-12 -20 -5.5 -44z" />
    <glyph glyph-name="afii10101" unicode="&#x454;" horiz-adv-x="710" 
d="M-2.5 515.5q0.5 -180.5 55.5 -331.5q38 -115 116.5 -154t164.5 7q68 35 118 110.5t60 159.5q2 25 -12.5 44t-38.5 22q-25 3 -44.5 -10.5t-23.5 -38.5q-6 -56 -39 -107.5t-75 -75.5q-36 -16 -56 -4q-34 15 -59 84q-41 124 -47 275q155 0 202 2q24 0 41 18t17 43
q0 24 -18.5 40.5t-43.5 16.5q-43 -2 -194 -2q11 120 57 225t111 130q25 9 51 -2q36 -20 76 -84q12 -20 37 -26.5t45 5.5t26 37t-6 45q-58 95 -128 130t-144 5q-120 -46 -193 -227q-56 -156 -55.5 -336.5z" />
    <glyph glyph-name="afii10102" unicode="&#x455;" horiz-adv-x="622" 
d="M27 813q-4 -99 15.5 -161.5t55.5 -94t99 -53.5q58 -20 79 -41q36 -36 43.5 -149t-22.5 -175q-26 -54 -70 -48t-61 63q-4 13 -8 43q-6 49 -6 94v55q0 24 -18.5 40.5t-43.5 16.5q-24 0 -40.5 -18t-16.5 -43v-47q0 -43 2 -59q0 -63 16 -119q20 -61 64 -99.5t100 -44.5
q57 -8 108 22.5t80 90.5q45 89 33 256q-5 67 -19.5 112.5t-41.5 76t-58 48t-81 35.5q-49 17 -66 41q-18 25 -23 82.5t-2 101.5t7 66q8 49 28.5 68.5t50.5 1.5q26 -15 37 -33t11.5 -42t-0.5 -60q-3 -12 -3 -27q-2 -10 -2 -29q-2 -10 -2 -18q-2 -25 14.5 -44t41.5 -20t43 15
t20 41q0 8 2 18q0 19 2 29q0 19 2 29q3 65 0 92q-7 47 -35.5 87.5t-70.5 63.5q-42 30 -100 24t-101 -48q-20 -20 -32 -43.5t-18 -62t-8 -58t-5 -76.5z" />
    <glyph glyph-name="afii10103" unicode="&#x456;" horiz-adv-x="479" 
d="M57 1274q-2 -39 24 -64.5t66 -21.5l21 -6q52 -7 85 24.5t40 77.5q6 43 -13.5 78t-56.5 47q-37 13 -78 -6.5t-69 -71.5q-11 -14 -13 -26q-9 -15 -6 -31zM106 1014q9 -341 9 -991q0 -25 17 -42.5t42 -17.5t42 17.5t17 42.5q0 687 -8 995q0 24 -18 40.5t-43 16.5
q-24 0 -41 -18t-17 -43z" />
    <glyph glyph-name="afii10104" unicode="&#x457;" horiz-adv-x="991" 
d="M358 1233q-8 -26 1.5 -48.5t33.5 -29.5q24 -8 46.5 1t29.5 32l23 57q8 25 -1 48t-32 30q-25 8 -48 -1t-30 -32zM516 1055q8 -303 8 -992q0 -25 17.5 -42t42.5 -17t42 17t17 42q0 688 -8 996q0 24 -18.5 40.5t-43.5 16.5q-24 0 -40.5 -18t-16.5 -43zM674 1223
q-6 -24 6.5 -45t36.5 -27t44.5 6.5t26.5 36.5l17 63q6 23 -6 44.5t-35 27.5q-25 6 -46.5 -6t-27.5 -37z" />
    <glyph glyph-name="afii10105" unicode="&#x458;" horiz-adv-x="450" 
d="M-10 -371q6 -24 27 -35.5t46 -5.5q71 21 88 33q23 17 50 66q52 94 61 286q7 139 -1.5 280t-39.5 472q-18 205 -18 287q0 25 -17.5 42t-42.5 17t-42 -17t-17 -42q0 -88 18 -299q27 -276 33 -375q36 -460 -37 -594q-15 -26 -18 -29q-4 0 -6 -2h-4q-1 -1 -3.5 -1.5t-6 -1
t-5.5 -1.5l-24 -6q-24 -6 -35.5 -27.5t-5.5 -46.5zM84 1294h2v-4q0 -2 2 -6q0 -2 4 -14q12 -36 40 -52.5t58 -10.5t50 30q44 58 4 160q-27 58 -70 61q-32 4 -53.5 -19.5t-26.5 -66.5q0 -6 -2 -10q-27 -29 -8 -68z" />
    <glyph glyph-name="afii10106" unicode="&#x459;" horiz-adv-x="1079" 
d="M-61 43q0 -25 17 -42t42 -17h25q25 -2 63 4q42 6 76 28q116 81 143 414q12 126 12 426q0 15 -8 72q-3 18 0 24q4 4 10 6q37 12 119 9h19l6 -162q1 -27 1.5 -62t1 -56.5t1.5 -35.5q3 -80 22 -270q21 -205 23 -260v-4q-2 -4 -2 -17q-6 -40 10 -69q19 -32 53 -46.5t65.5 -14
t63.5 9.5q90 27 127 79t52 142q28 167 2 309q-18 92 -64 135.5t-147 50.5q-25 2 -88 -2q0 62 -2 109q-3 140 -11 231q-1 24 -20.5 39.5t-44.5 13.5q-6 0 -14 -4q-15 0 -25 2h-25q-107 4 -161 -14q-104 -38 -91 -160q1 -3 2.5 -11t2.5 -11q4 -32 4 -33q0 -269 -11 -416
q-12 -133 -36 -215q-24 -88 -60 -110q-2 -2 -10 -6l-10 -5q-2 -2 -15 -2h-59q-25 0 -42 -17t-17 -42zM590 575q62 4 74 3q58 -4 74.5 -20t27.5 -69q23 -120 -2 -268q-11 -62 -28.5 -88t-65.5 -39q-23 -7 -37 -4h-4q2 14 2 39q-1 33 -21 231z" />
    <glyph glyph-name="afii10107" unicode="&#x45a;" horiz-adv-x="1019" 
d="M106 1014q0 25 17 43t41 18q25 0 43 -16.5t18 -40.5l6 -287q37 1 65.5 2.5t39.5 2t24.5 1t30.5 0.5q-12 184 -12 295q0 25 17 42.5t42 17.5t42.5 -17.5t17.5 -42.5q0 -102 10 -287q6 3 16 3h17q47 4 59 2q90 0 142 -41t77 -146q19 -85 17 -197t-25 -202
q-28 -102 -70.5 -140t-128.5 -51q-92 -11 -135 17q-55 36 -59 174v145l-19 309q-25 0 -39.5 -0.5t-47.5 -2t-81 -3.5q2 -170 2 -589q0 -25 -17 -42.5t-42 -17.5t-42 17.5t-17 42.5q0 651 -9 991zM516 629q4 -57 9 -130.5t8 -116.5t4 -69v-143q3 -51 8 -72q0 -6 2 -8t6 -2
q24 0 58.5 6t45.5 15q21 15 39 86q19 76 21 171.5t-15 170.5q-13 62 -33 78t-71 16q-18 3 -49 0h-14q-8 -2 -19 -2z" />
    <glyph glyph-name="afii10108" unicode="&#x45b;" horiz-adv-x="684" 
d="M-143 1280q0 25 16.5 43t40.5 18l131 5q0 68 -2 84q-1 25 15.5 43t41.5 20q25 0 43 -16t19 -41q0 -12 1 -41t1 -45h198q25 0 42.5 -17.5t17.5 -42.5t-17.5 -42t-42.5 -17q-126 0 -202 -2v-4q-7 -200 -4 -402q177 2 243 -34.5t86 -155.5q26 -123 2 -428q-10 -147 -10 -152
q-2 -25 -19.5 -41.5t-41.5 -15.5q-25 0 -42 18t-16 43q0 6 1.5 24.5t4.5 56.5t5 75q22 283 2 399q-11 60 -31.5 75t-77.5 18h-104q14 -619 14 -664q-2 -25 -18.5 -42t-40.5 -17q-26 2 -43.5 18.5t-16.5 40.5q0 33 -8 471q-10 373 -8 502q-3 43 6 209v4q-20 -1 -62 -2t-63 -2
q-25 0 -43 16.5t-18 40.5z" />
    <glyph glyph-name="afii10109" unicode="&#x45c;" horiz-adv-x="638" 
d="M-2 1042q18 -635 6 -991q0 -25 16.5 -43t40.5 -18q25 0 43.5 16.5t18.5 40.5q7 219 4 430q10 0 16 2l21 6q56 -3 86 -26q24 -19 41 -48t25 -53.5t13 -67t5.5 -61t1.5 -63.5v-119q0 -24 18 -40.5t43 -16.5q24 0 41 18t17 43v117q-3 81 -9 133q-21 176 -122 252
q-27 18 -56 31q23 23 29 30q176 194 129 441q-6 25 -26 39t-44 10q-25 -6 -39 -26t-10 -44q35 -192 -100 -342q-41 -44 -80 -67q-5 282 -10 422q0 24 -18.5 40.5t-43.5 16.5q-24 0 -40.5 -18.5t-16.5 -43.5zM121.5 1201q6.5 -24 28.5 -36t44.5 -6t34.5 29q112 198 201 307
q17 19 15 44t-21 40q-20 15 -45.5 12.5t-38.5 -22.5q-91 -111 -213 -324q-12 -20 -5.5 -44z" />
    <glyph glyph-name="afii10110" unicode="&#x45e;" horiz-adv-x="681" 
d="M14 1006q135 -472 199 -758q34 -157 47 -193l2 -8q-36 -244 -98 -414q-8 -24 2 -46t33 -29q24 -8 46 1.5t29 32.5q63 172 101 402q24 21 35 67q9 36 18 97q10 66 16 131q4 32 5 35q34 280 38 440q3 107 -2 197q-3 35 -12 51q-17 36 -54.5 37.5t-62.5 -33.5
q-9 -15 -12 -39l-4 -39q-7 -48 -10 -205q-3 -136 -11 -192l-18 -152q-68 290 -172 649q-6 24 -28 35.5t-46 5.5t-35.5 -27.5t-5.5 -45.5zM49 1409q19 -100 75.5 -166.5t133.5 -73.5q81 -7 145 51t93 164q6 23 -6 44.5t-35 27.5q-25 6 -46.5 -6t-27.5 -37q-21 -73 -51 -100
q-31 -28 -60 -25q-32 2 -62.5 40t-43.5 106q-5 23 -25 37t-43 10q-25 -6 -39 -27t-8 -45z" />
    <glyph glyph-name="afii10193" unicode="&#x45f;" horiz-adv-x="616" 
d="M-14 150v104q0 79 14 291l18 289q4 55 17 208q2 25 19.5 42t41.5 16q25 -2 42 -20.5t16 -43.5q-13 -150 -17 -209l-18 -290q-15 -227 -15 -285v-98l2 -35q6 -14 13 -25l20 -2q25 2 82 2l78 6l2 2q0 7 2 9q6 37 6 102q6 117 4.5 375t-8.5 448q0 26 15.5 44t39.5 18
q26 0 45 -16.5t19 -41.5q7 -190 8.5 -451.5t-4.5 -379.5q-4 -101 -6 -113q-7 -57 -27 -82q-10 -10 -30 -20q-2 -1 -8 -2t-9 -2q-24 -6 -35 -6l-37 -4q5 -36 5 -136q-2 -25 -19.5 -42t-42.5 -17t-41.5 17t-15.5 42q0 104 -2 129h-23l-33 2q-20 0 -38 11q-77 46 -80 164z" />
    <glyph glyph-name="afii10146" unicode="&#x462;" horiz-adv-x="833" 
d="M-125 1233q-2 25 13.5 44t39.5 19l152 13q0 3 -1 9t-1 9q-8 52 -21 107q-6 25 7 45t38 26q23 6 43.5 -7t26.5 -36q17 -64 25 -145l180 10q25 0 42.5 -16t18.5 -41t-14.5 -42.5t-40.5 -19.5l-174 -10q7 -91 14 -266q107 14 154.5 9.5t89.5 -23.5q68 -27 108 -88t60 -175
q19 -116 14 -242.5t-31 -226.5q-34 -122 -102 -172q-44 -34 -170 -45q-144 -12 -186 45q-10 13 -13 31q-1 3 -2 9t-2 9q0 23 -2 39q0 60 2 105q0 36 2 104q2 35 2 62q-2 37 -20 233q-20 219 -21 244q0 24 -8 244q0 40 -6 96l-153 -12q-25 0 -44 15.5t-20 39.5zM227 811
q2 -50 19 -190q18 -205 20 -244q0 -33 -2 -70q-2 -68 -2 -104q-2 -43 -2 -99q0 -12 2 -14t4 -2q57 -9 146 10l34 11q34 28 58.5 113t25.5 198q4 109 -12 206t-43 140q-30 43 -100.5 55t-141.5 -8q-2 -2 -6 -2z" />
    <glyph glyph-name="afii10194" unicode="&#x463;" horiz-adv-x="692" 
d="M-131 938q0 25 16.5 43t40.5 18l129 5q-4 258 -4 294q0 25 17.5 42.5t42.5 17.5t42 -17.5t17 -42.5l4 -292q74 2 201 2q25 0 42 -17.5t17 -42.5t-17 -42t-42 -19h-199q0 -80 4 -142q6 3 17 3h16q47 4 59 2q90 0 142.5 -41t77.5 -146q19 -86 16.5 -197.5t-25.5 -201.5
q-28 -102 -70.5 -140t-127.5 -51q-92 -11 -135 17q-56 37 -60 174v145q-5 111 -20 326q-8 129 -11 250l-129 -4q-25 0 -43 16.5t-18 40.5zM188 629q4 -57 9 -130.5t8 -116.5t4 -69v-143q3 -51 8 -72q0 -6 2 -8t6 -2q24 0 59 6t46 15q21 15 39 86q19 76 21 171.5t-15 170.5
q-13 62 -33.5 78t-71.5 16q-18 3 -49 0h-14q-8 -2 -19 -2z" />
    <glyph glyph-name="afii10147" unicode="&#x472;" horiz-adv-x="798" 
d="M16 643q3 -423 68 -555q49 -107 190 -151q106 -29 176 -1t103 109q12 27 22 80q5 37 11 105.5t6 78.5q25 243 22 545q-3 416 -69 545q-10 17 -15 26t-13 19t-10.5 13.5t-13.5 11.5t-15.5 10.5t-23.5 13t-30 16.5q-27 12 -53 0q-99 16 -162 -24q-116 -72 -162 -281
q-37 -154 -31 -561zM135 645v4q48 72 80 92q19 10 45 4q18 -3 94 -38q81 -40 140 -48q-6 -205 -21 -337q-3 -24 -6 -82q0 -2 -8 -93q-16 -85 -53 -102q-38 -16 -113 10t-103 82q-23 50 -38.5 189t-16.5 319zM135 829q5 258 34.5 384.5t100.5 168.5q16 10 39 13q42 0 105 -15
q2 0 4 -2q7 -7 20 -37q55 -93 58 -487v-74q-44 10 -95 33q-46 22 -63.5 29.5t-47.5 18.5t-47 10t-40.5 -6.5t-48.5 -20.5z" />
    <glyph glyph-name="afii10195" unicode="&#x473;" horiz-adv-x="765" 
d="M49.5 666q-9.5 -166 7.5 -329.5t60 -234.5q44 -73 112.5 -104t141.5 -12q69 19 119 77.5t63 139.5q39 174 24.5 398.5t-79.5 389.5q-14 36 -52 39q-81 98 -194 68q-56 -17 -99.5 -63.5t-64.5 -108.5q-29 -94 -38.5 -260zM166 489q22 48 36 54t42 -13l90 -63
q70 -43 125 -49q-2 -81 -21 -191q-10 -52 -37 -85.5t-61 -41.5q-72 -18 -121 64q-50 80 -53 325zM170 655q9 158 33 234q10 37 33 62.5t47 31.5q49 12 88 -51q9 -20 32 -27q52 -162 58 -366q-23 3 -62 28l-45 31q-41 29 -51 33q-68 42 -131 26z" />
    <glyph glyph-name="afii10148" unicode="&#x474;" horiz-adv-x="747" 
d="M-47 1425q16 -97 65 -424q101 -683 148 -882l3 -11q3 -12 7 -22q4 -16 4 -18v-5q0 -6 -2 -12t-2 -10q-12 -64 35 -86q26 -11 51.5 -0.5t36.5 35.5q0 1 3.5 8.5t4.5 13.5l6 43q11 76 11 295q0 344 6 516q6 188 20 293q14 127 37 164q12 22 35 25q13 2 76 -5q25 -2 44.5 14
t20.5 40q2 25 -13.5 44.5t-39.5 20.5q-20 0 -70 4q-40 5 -83.5 -16t-71.5 -66q-33 -53 -54 -210q-22 -197 -26 -617l-74 477l-59 408q-4 25 -24.5 39.5t-43.5 11.5q-24 -3 -38.5 -23.5t-12.5 -44.5z" />
    <glyph glyph-name="afii10196" unicode="&#x475;" horiz-adv-x="690" 
d="M-29 1022q55 -188 101 -510l34 -236q2 -3 5 -30l8 -62l10 -65q5 -41 14 -96q1 -6 2.5 -13t3.5 -13.5t3 -8.5q4 -20 12 -31q16 -21 41.5 -24.5t52.5 16t43 61.5q22 64 25 178v21q0 14 2 20v11q3 34 6 170q7 314 22 411q12 85 29 109q12 12 14 16h50q24 0 40.5 18.5
t16.5 43.5q0 24 -18.5 40.5t-43.5 16.5h-34q-19 0 -39 -4q-101 -18 -131 -221q-13 -79 -17.5 -169.5t-9.5 -305.5q-37 264 -53 354q-40 221 -74 336q-6 24 -28 35.5t-46 5.5t-35.5 -28t-5.5 -46z" />
    <glyph glyph-name="afii10050" unicode="&#x490;" horiz-adv-x="692" 
d="M90 1182q-13 138 2 213q14 64 46 85t89 21q58 0 162 -6q0 15 -8 215q0 25 16.5 43.5t40.5 18.5q25 0 43.5 -17t18.5 -41q8 -243 8 -264q0 -6 -4 -18q0 -23 -17 -39.5t-41 -18.5q-2 0 -22.5 1t-38.5 1l-82 4q-17 0 -42 1t-32 1h-16q-1 -1 -4 -14q-12 -60 0 -178
q4 -45 4 -76q7 -184 -2 -569q-11 -366 2 -561q2 -25 -14 -44t-41 -20q-25 0 -44 15.5t-20 39.5q-13 205 -2 572q7 439 2 565q0 27 -4 70z" />
    <glyph glyph-name="afii10098" unicode="&#x491;" horiz-adv-x="460" 
d="M-37 967v34q0 11 2 13q4 20 8 28q28 47 70 61.5t115 16.5q0 13 -8 213q0 25 16.5 43.5t40.5 18.5q25 0 43 -17t18 -41q8 -243 8 -264v-4v-8q0 -25 -17 -42.5t-42 -17.5q-86 0 -96 -2q-24 -3 -39 -12v-18q0 -60 2 -103q33 -680 55 -819q4 -25 -10 -45t-39 -25
q-25 -4 -45 10.5t-25 39.5q-11 68 -28.5 357t-26.5 478q-2 45 -2 105z" />
    <glyph glyph-name="uni0492" unicode="&#x492;" horiz-adv-x="688" 
d="M-23 723q0 25 16.5 43.5t41.5 19.5h61q0 252 -2 326q0 27 -4 70q-13 138 2 213q14 64 46 85t89 21q58 0 164 -6q16 0 32.5 -1t18.5 -1q25 2 43.5 -15t18.5 -42q1 -24 -16 -42t-42 -20q-2 0 -22.5 1t-38.5 1l-82 4q-17 0 -42 1t-32 1h-16q-1 -1 -4 -14q-12 -60 0 -178
q4 -45 4 -76q4 -160 2 -323q68 2 186 2q25 0 42.5 -17.5t17.5 -42.5t-17.5 -42t-42.5 -17q-120 0 -190 -2v-127q-11 -366 2 -561q2 -25 -14 -44t-41 -20q-25 0 -44 15.5t-20 39.5q-14 214 0 572v121q-9 0 -27 -1t-28 -1q-25 0 -43.5 16.5t-18.5 40.5z" />
    <glyph glyph-name="uni0493" unicode="&#x493;" horiz-adv-x="485" 
d="M-117 594q0 25 17 43t41 18l32 2q1 37 2 115t2 105q0 25 2.5 59.5t2.5 44.5l4 35q0 10 2 12q3 15 10 29q26 37 62.5 52.5t81 14t104.5 -5.5q25 -1 41 -19.5t14 -43.5t-20 -41t-43 -15q-89 7 -97 5q-21 0 -39 -11l-2 -18q0 -9 -2 -43t-2 -58l-4 -210h72q25 0 42 -17.5
t17 -42.5t-17 -42t-42 -17h-72q-4 -411 4 -492q3 -26 -13 -45t-42 -22q-25 -3 -44 13t-22 42q-6 93 -2 496h-28q-25 0 -43.5 16.5t-18.5 40.5z" />
    <glyph glyph-name="uni0496" unicode="&#x496;" horiz-adv-x="958" 
d="M-63 1393q-6 24 5 45t35 28q24 6 45.5 -5.5t28.5 -35.5q25 -84 47 -147l60 -186q53 -175 71 -289h7l12 -4v149q0 57 -2 123q-3 183 10 291q5 25 24 39.5t44 11.5q24 -3 38.5 -22.5t12.5 -44.5q-13 -97 -10 -271q2 -63 2 -127v-157q14 2 51 2q0 29 4 69q19 99 78 291
q51 163 57 272q1 25 20 41.5t44 14.5q25 -1 41 -20t14 -44q-9 -114 -64 -299q-8 -28 -24.5 -80.5t-21.5 -70.5t-15 -58t-11 -58.5t-4 -56t1.5 -65t11 -72t18 -91t27.5 -107.5q19 -82 53 -185q3 22 19 38t39 16q25 0 43 -17t18 -41q8 -243 8 -387q-2 -25 -19 -42t-42 -17
t-42 17t-16 42v107q-21 11 -30 28q-69 134 -125 333t-72 323h-8q-37 0 -51 -2l18 -637q0 -25 -16.5 -43.5t-40.5 -18.5q-25 0 -43.5 17t-18.5 41q-15 628 -18 649q-15 0 -23 2q-13 -49 -26 -92q-21 -58 -21 -62q-16 -52 -65 -254l-56 -227q-6 -24 -26.5 -36.5t-44.5 -6.5
t-36.5 27t-6.5 45l55 231q45 186 66 254q1 3 8.5 27.5t13.5 40.5q27 83 27 121q0 62 -72 307l-59 186z" />
    <glyph glyph-name="uni0497" unicode="&#x497;" horiz-adv-x="1026" 
d="M-41 1021q5 24 25 38q20 13 44 8t38 -25q190 -283 231 -469h33q3 43 0 138q-4 215 12 315q5 25 25 39t45 10q25 -5 39 -24.5t10 -44.5q-15 -90 -12 -285q3 -89 0 -141l45 6q12 97 77 321q29 105 39 146q4 24 25.5 38t46.5 9q23 -6 36 -27.5t7 -44.5q-6 -26 -39 -149
q-4 -13 -14.5 -50.5t-15.5 -55.5t-14.5 -54t-14 -57t-11.5 -53t-9.5 -53.5t-5 -45.5t-1 -42.5t5.5 -33.5q21 -77 111 -235l-2 30q0 25 16.5 43.5t40.5 18.5q25 0 43.5 -17t18.5 -41q8 -243 8 -305q-2 -25 -19.5 -42t-42.5 -17t-41.5 17t-15.5 42v64q-30 7 -45 33l-60 106
q-93 162 -126 275q-6 25 -9 57q-12 -2 -39 -2q-5 -229 5 -406q1 -25 -15 -43t-41 -20t-43.5 14t-19.5 41q-10 168 -4 408h-23q-1 -3 -2 -8t-2 -7q-17 -85 -86 -207l-49 -81q-42 -66 -55 -97q-12 -23 -35 -29.5t-45 5.5q-22 10 -30 34t3 44q15 28 59 102q12 19 22.5 37
t17.5 30.5t8 14.5q23 39 32.5 55.5t24 47.5t16.5 50t4 50.5t-6.5 61.5t-23 70t-37.5 89q-54 110 -152 260q-13 20 -8 44z" />
    <glyph glyph-name="uni0498" unicode="&#x498;" horiz-adv-x="634" 
d="M-2 324q0 -54 0.5 -79.5t4 -64.5t10.5 -61t20 -47.5t33 -46.5q37 -37 73 -48q73 -21 146 21q91 52 135 147q11 32 20 72q11 54 11 160q0 8 -1 19.5t-2 29.5t-2 31l-4 57q-6 121 -39 188q-18 40 -45 64q41 47 52 84q32 91 35.5 218t-21.5 220q-19 75 -64.5 131t-105.5 74
q-72 20 -131 -20t-90 -132q-17 -49 -21 -124.5t4 -112.5q1 -25 20 -41t44 -14q25 1 41 19.5t14 43.5q-9 138 8 193q17 51 45 69q16 10 33 4q26 -8 51 -40.5t37 -77.5q20 -79 17.5 -187t-27.5 -186q-5 -15 -57 -44.5t-90 -33.5q-9 0 -29 -4q-6 0 -14 -2q-39 -3 -68 -23
q-33 -26 -25 -71t50 -58q26 -6 56.5 -0.5t108.5 25.5q24 7 37 10q16 -9 27 -35q26 -57 29 -141q0 -2 4 -68t4 -133q-3 -69 -23 -114q-25 -60 -76.5 -89.5t-80.5 0.5q-23 23 -29 66t-6 152q0 25 -17.5 42t-42.5 17t-42 -17t-17 -42zM129.5 -315.5q6.5 24.5 28.5 36.5
q21 11 45.5 4.5t34.5 -28.5q21 -40 53 -43l8 2q7 9 13.5 41.5t0.5 44.5q-3 8 -34 16q-21 9 -33 13q-53 21 -74 61q-12 21 -12 49q-2 12 -2 45v72q0 25 17 42t42 17t42 -17t17 -42v-70q0 -24 3 -39q-3 3 -5 0h2l3 -2q3 -3 12 -6q12 -6 24 -10q26 -7 35 -12q112 -54 76 -197
q-14 -64 -53 -98.5t-94 -28.5q-43 4 -81.5 33t-62.5 72q-12 20 -5.5 44.5z" />
    <glyph glyph-name="uni0499" unicode="&#x499;" horiz-adv-x="600" 
d="M-23 168q0 -15 5 -55q10 -56 46 -92.5t87 -47.5q100 -21 180 50q50 44 76 128.5t26 165.5q0 111 -45 187l21 28q39 72 43 246q0 175 -39 246q-29 51 -86.5 77.5t-118 17t-96.5 -53.5q-63 -80 -66 -272v-37q-2 -14 -2 -37q0 -21 -2 -29q-2 -25 14 -43.5t41 -19.5
q25 -2 44 14t20 41q0 17 4 27v79q3 156 39 203q11 13 35 10q50 -7 65 -27t23 -75q13 -117 -4 -240q-6 -46 -17 -65q-10 -17 -16 -21h-14q-17 2 -39 -2q-37 -10 -51 -45t6 -61q17 -24 41 -28t45 5q4 0 8 2q5 -9 16 -41q13 -50 13 -86q0 -56 -19 -118.5t-43 -85.5
q-37 -32 -74 -24.5t-43 44.5q-5 3 -2 62q2 39 2 75q0 25 -17 42.5t-42 17.5t-42 -17.5t-17 -42.5q0 -18 -2 -41q-3 -35 -3 -61zM51.5 -315.5q6.5 24.5 28.5 36.5q21 11 45.5 4.5t34.5 -28.5q21 -40 53 -43l8 2q7 9 14 41.5t1 44.5q-3 8 -35 16q-21 9 -33 13q-53 21 -74 61
q-12 21 -12 49q-2 12 -2 45v72q0 25 17 42t42 17t42.5 -17t17.5 -42v-70q0 -29 2 -39q-2 2 -4 0h2l2 -2q3 -3 12 -6q10 -5 25 -10q23 -7 34 -12q112 -54 76 -197q-14 -64 -53 -98.5t-94 -28.5q-43 4 -81.5 33t-62.5 72q-12 20 -5.5 44.5z" />
    <glyph glyph-name="uni049A" unicode="&#x49a;" horiz-adv-x="815" 
d="M27 1083q0 24 10 187q5 101 2 176q-2 25 14 43.5t41 19.5q25 2 44 -14t20 -41q3 -84 -2 -190q-13 -183 -13 -428q75 6 111.5 38t50.5 95q9 47 12 141q3 119 7 162q10 66 28 112l21 54q2 6 6.5 18.5t6 16.5t5 12t6 11t7 7.5t9 7t11.5 5.5q23 9 46 -0.5t32 -32.5
q10 -23 0 -45l-21 -49q-23 -55 -30 -82q-5 -21 -9 -47q-3 -36 -6 -152q-2 -116 -21.5 -189.5t-72.5 -125.5q-14 -14 -29 -23q19 -6 35 -16q134 -74 174 -353l10 -82q12 9 29 9q25 0 43.5 -17t18.5 -41q8 -243 8 -387q-2 -25 -19.5 -42t-42.5 -17t-41.5 17t-15.5 42v80
q-25 -4 -45 10t-25 39q-8 59 -16 172q-17 205 -33 280q-32 149 -102 187q-44 23 -146 23l7 -608q0 -25 -17.5 -42.5t-42.5 -17.5t-42 17.5t-17 42.5q0 3 -4 475q-4 435 -2 542z" />
    <glyph glyph-name="uni049B" unicode="&#x49b;" 
d="M-2 1042q0 25 16.5 43.5t40.5 18.5q25 0 43.5 -16.5t18.5 -40.5q5 -140 10 -422q39 23 80 67q135 150 100 342q-4 24 10 44t39 26q24 4 44 -10t26 -39q47 -247 -129 -441q-6 -7 -29 -30q29 -13 56 -31q101 -76 122 -252l3 -12q4 2 16 2q25 0 43 -17t18 -41q9 -273 9 -305
q-2 -25 -19.5 -42t-42.5 -17t-41.5 17t-15.5 42v66q-12 -4 -19 -4q-25 0 -43 16.5t-18 40.5v119q-1 45 -1.5 63.5t-5.5 61t-13 67t-25 53.5t-41 48q-30 23 -86 26l-21 -6q-6 -2 -16 -2q3 -211 -4 -430q0 -24 -18.5 -40.5t-43.5 -16.5q-24 0 -40.5 18t-16.5 43q12 356 -6 991
z" />
    <glyph glyph-name="uni049C" unicode="&#x49c;" horiz-adv-x="792" 
d="M16 1409q3 -32 15 -139q9 -82 12 -129q11 -299 8 -768q-2 -172 -2 -340q0 -25 17.5 -42.5t42.5 -17.5t42 17.5t17 42.5q0 169 2 327v363q6 0 8 -2q6 0 33 -6q11 -202 20 -309q1 -25 21 -41.5t45 -14.5q23 1 39 20.5t14 43.5l-18 250q37 -32 63 -80q13 -21 24 -48.5
t18.5 -49.5t14 -59.5t9.5 -56t7 -63.5t4.5 -56.5t3.5 -61t3 -52.5l10 -155q1 -24 21 -40t45 -14q24 1 39.5 21t13.5 45l-10 153q-6 112 -12 170q-22 200 -80 309.5t-146 161.5q175 119 172 410q-11 221 -10 244q0 25 -16.5 43t-40.5 18q-25 0 -43.5 -16.5t-18.5 -40.5
q-1 -22 11 -250q3 -131 -37 -213q-21 -47 -58 -76l-4 133q0 24 -18 41t-43 17q-24 0 -40.5 -18.5t-16.5 -43.5l6 -178q-20 0 -35 -6l-6 293q-3 53 -12 141q-12 86 -15 131q-2 25 -20 41t-43 15t-41.5 -20t-14.5 -44z" />
    <glyph glyph-name="uni049D" unicode="&#x49d;" horiz-adv-x="741" 
d="M35 999q14 -104 20 -247q8 -180 8 -465q-2 -125 -2 -228q0 -25 17.5 -42t42.5 -17t42 17t17 42q0 103 2 195v213q15 0 43 4q2 -72 2 -178q0 -25 17.5 -42.5t42.5 -17.5t42 17.5t17 42.5q0 86 -2 139q45 -42 66 -145q15 -77 28 -219q1 -24 21 -40t45 -14q24 1 39.5 21
t13.5 45q-12 140 -31 233q-35 174 -139 238q48 48 76 108q76 156 49 365q-5 25 -24 39.5t-44 11.5q-24 -3 -38.5 -22.5t-12.5 -44.5q21 -172 -37 -297l-16 -29v86q0 25 -17 42t-42 17t-42.5 -17t-17.5 -42q0 -104 2 -172q-15 0 -43 -4q-3 212 -26 420q-5 25 -24 40.5
t-42 12.5q-24 -3 -39.5 -22.5t-13.5 -43.5z" />
    <glyph glyph-name="uni049E" unicode="&#x49e;" horiz-adv-x="847" 
d="M25 1321q0 25 16 43.5t41 19.5h61q0 12 -1 33t-1 29q-1 25 15 43t41 20q25 1 43.5 -14.5t21.5 -40.5v-63h43q25 0 42.5 -17.5t17.5 -42.5t-17.5 -42t-42.5 -17h-47v-8q-3 -42 -5 -75t-3.5 -66.5t-2 -52t-1 -55t-0.5 -49.5v-62v-68q75 6 111.5 38t50.5 95q9 47 12 141
q3 132 6 162q9 62 29 112l20 54q2 6 6.5 18.5t6 16.5t5 12t6 11t7 7.5t9 7t11.5 5.5q23 9 46 -0.5t32 -32.5q10 -23 0 -45l-20 -49q-26 -61 -31 -82q-3 -12 -8 -47q-3 -36 -6 -152q-2 -116 -21.5 -189.5t-73.5 -125.5q-16 -15 -28 -23q19 -6 35 -16q134 -74 174 -353
q12 -83 22 -208q7 -99 17 -160q4 -25 -10.5 -45t-39.5 -25q-25 -4 -44.5 10t-24.5 39q-10 73 -17 172q-17 205 -33 280q-32 149 -102 187q-44 23 -145 23l6 -608q0 -25 -17 -42.5t-42 -17.5t-42.5 17.5t-17.5 42.5q0 3 -4 475q-4 435 -2 542q0 24 10 181h-53q-25 0 -43 16.5
t-18 40.5z" />
    <glyph glyph-name="uni04A0" unicode="&#x4a0;" horiz-adv-x="847" 
d="M-84 1440q0 25 16.5 43t40.5 18q59 2 94 4t43 2.5t27 1t60 0.5q25 2 43.5 -14t19.5 -41q3 -84 -2 -190q-3 -42 -5 -75t-3.5 -66.5t-2 -52t-1 -55t-0.5 -49.5v-62v-68q75 6 111.5 38t50.5 95q9 47 12 141q3 132 6 162q9 62 29 112l20 54q2 6 6.5 18.5t6 16.5t5 12t6 11
t7 7.5t9 7t11.5 5.5q23 9 46 -0.5t32 -32.5q10 -23 0 -45l-20 -49q-26 -61 -31 -82q-3 -12 -8 -47q-3 -36 -6 -152q-2 -116 -21.5 -189.5t-73.5 -125.5q-16 -15 -28 -23q19 -6 35 -16q134 -74 174 -353q12 -83 22 -208q7 -99 17 -160q4 -25 -10.5 -45t-39.5 -25
q-25 -4 -44.5 10t-24.5 39q-10 73 -17 172q-17 205 -33 280q-32 149 -102 187q-44 23 -145 23l6 -608q0 -25 -17 -42.5t-42 -17.5t-42.5 17.5t-17.5 42.5q0 3 -4 475q-4 435 -2 542q0 24 10 187q4 90 4 121l-41 -3q-42 -4 -125 -6q-25 0 -43 17t-18 41z" />
    <glyph glyph-name="uni04A1" unicode="&#x4a1;" horiz-adv-x="823" 
d="M-37 1036q0 25 16.5 43.5t40.5 18.5q59 2 94 4t43 2.5t27 1t60 0.5q25 0 42 -17t17 -42l-2 -15q5 -138 10 -407q39 23 80 67q136 151 101 342q-4 24 10 44t39 26q24 4 43.5 -10t25.5 -39q47 -247 -129 -441q-12 -14 -28 -30q26 -11 55 -31q102 -77 123 -252q4 -39 8 -133
v-117q0 -25 -16.5 -43t-40.5 -18q-25 0 -43.5 16.5t-18.5 40.5v119q-1 45 -1.5 63.5t-5.5 61t-13 67t-25 53.5t-41 48q-30 23 -86 26l-20 -6q-6 -2 -17 -2q3 -211 -4 -430q0 -24 -18 -40.5t-43 -16.5q-24 0 -41 18t-17 43q11 324 -4 936q-118 -7 -159 -8q-25 0 -43.5 16.5
t-18.5 40.5z" />
    <glyph glyph-name="uni04A2" unicode="&#x4a2;" horiz-adv-x="917" 
d="M109 1401q-6 24 6.5 45t36.5 27t44.5 -6.5t26.5 -36.5q20 -71 25 -154q8 -140 8 -152q9 -144 12 -311q138 6 252 21q-15 261 -39 610q-1 25 15 43t41 20t43.5 -14t19.5 -41q47 -663 55 -1083h9q25 0 43 -17t18 -41q8 -243 8 -387q-2 -25 -19 -42t-42 -17t-42 17t-16 42
v101q-4 -2 -14 -2q-25 0 -42 17t-17 42q0 298 -15 633q-116 -15 -256 -21q2 -78 2 -620q0 -25 -17 -42.5t-42 -17.5t-42 17.5t-19 42.5v700q-2 98 -15 342q-1 6 -1.5 16.5t-1 27.5t-1.5 30q-2 71 -10 139q-6 42 -14 72z" />
    <glyph glyph-name="uni04A3" unicode="&#x4a3;" horiz-adv-x="739" 
d="M27 1030q0 25 16.5 43.5t40.5 18.5q25 0 43 -17t18 -41q2 -63 19 -428q25 -2 186 2q-3 201 15 434q2 25 20 41t43 15t41 -20t14 -44q-24 -307 -6 -743h8q25 0 43.5 -17t18.5 -41q8 -243 8 -305q-2 -25 -19 -42t-42 -17t-42 17t-16 42v90h-4q-25 -1 -43 15t-20 41
q-14 213 -17 415q-176 -4 -182 -4q10 -277 10 -426q0 -25 -17 -42t-42 -17t-42.5 17t-17.5 42q0 165 -16 543z" />
    <glyph glyph-name="uni04A4" unicode="&#x4a4;" horiz-adv-x="1030" 
d="M109 1401q-6 24 6.5 45t36.5 27t44.5 -6.5t26.5 -36.5q20 -71 25 -154q8 -140 8 -152q9 -144 12 -311q138 6 252 21q-15 261 -39 610q-1 25 15 43t41 20h6q59 2 97.5 4t49.5 3t33 1.5t63 0.5q25 0 42.5 -17.5t17.5 -42.5t-17.5 -42t-42.5 -17q-18 0 -182 -6
q55 -767 55 -1309q0 -25 -17 -42t-42 -17t-42 17t-17 42q0 298 -15 633q-116 -15 -256 -21q2 -78 2 -620q0 -25 -17 -42.5t-42 -17.5t-42 17.5t-19 42.5v700q-2 98 -15 342q-1 6 -1.5 16.5t-1 27.5t-1.5 30q-2 71 -10 139q-6 42 -14 72z" />
    <glyph glyph-name="uni04A5" unicode="&#x4a5;" horiz-adv-x="917" 
d="M27 1030q0 25 16.5 43.5t40.5 18.5q25 0 43 -17t18 -41q2 -63 19 -428q25 -2 186 2q-3 201 15 434q1 25 19.5 41.5t41.5 14.5h6q76 0 146.5 1.5t97.5 -1.5q25 -2 41.5 -20.5t15.5 -43.5q-2 -25 -19 -40.5t-42 -14.5q-30 3 -90 1.5t-103 -1.5q-23 -347 8 -897
q2 -25 -14 -44t-41 -20t-43 15t-20 41q-14 213 -17 415q-176 -4 -182 -4q10 -277 10 -426q0 -25 -17 -42t-42 -17t-42.5 17t-17.5 42q0 165 -16 543z" />
    <glyph glyph-name="uni04A8" unicode="&#x4a8;" horiz-adv-x="894" 
d="M20 922q-6 -183 3 -426l4 -150q3 -139 12 -203q17 -97 73 -161.5t129 -77t154 29.5q33 17 62 46q88 -32 196 -29q24 0 41 18t17 43q0 24 -18.5 41t-43.5 17q-70 -3 -119 12q58 118 76.5 299t1.5 506q-6 110 -30 198q-51 175 -162 175q-68 0 -109 -74q-52 -85 -76 -318
q-10 -109 -11.5 -246t19.5 -285.5t60 -217.5q20 -39 53 -72q-8 -8 -14 -10q-57 -34 -123 8q-39 24 -53.5 93.5t-16.5 207.5l-4 148q-8 223 -2 424q9 176 37 296q31 122 78 150q13 10 31 10h73q25 0 42.5 17.5t17.5 42.5t-17.5 42t-42.5 17q-10 0 -22 2q-14 0 -68 -4
q-39 -3 -75 -25q-82 -52 -121.5 -190.5t-51.5 -353.5zM341 623q1 128 9 233q11 113 29 184q14 56 31 86q1 4 4.5 9t3.5 6q2 -1 4 -3.5t5 -6t5 -5.5q17 -28 31 -73q23 -85 26 -170q16 -358 3 -480q-15 -162 -64 -262q-14 14 -27 37q-29 54 -45 185.5t-15 259.5z" />
    <glyph glyph-name="uni04A9" unicode="&#x4a9;" horiz-adv-x="827" 
d="M0 297.5q4 -104.5 23 -170.5q14 -59 33 -88t67 -59q89 -53 166 -41q12 0 18 2q94 -119 258 -172q25 -6 47 5.5t29 35.5q6 23 -5 44.5t-34 28.5q-121 38 -194 123q7 3 10 10q50 64 76.5 182t25.5 240t-20 240q-12 65 -39 133q-38 80 -103 92.5t-118 -67.5
q-58 -94 -70 -365q-9 -249 66 -412q-19 5 -52 23q-24 13 -30 23t-17 51q-37 135 4 448q0 10 9 62q7 63 8 67q1 3 2 11.5t3 19.5t5 22q12 69 33 105q26 52 67.5 65.5t124.5 -10.5q25 -6 47 5.5t29 35.5q6 24 -5 45.5t-34 28.5q-242 75 -336 -117q-30 -58 -43 -131
q-12 -67 -20 -137q-6 -53 -8 -55q-17 -139 -19 -162q-8 -57 -4 -161.5zM289.5 524.5q7.5 85.5 21.5 153.5q12 64 31 96l2 4q1 -1 2.5 -4l3 -6t2.5 -6q20 -41 31 -107q28 -155 14.5 -307.5t-57.5 -232.5q-38 85 -48 204.5t-2.5 205z" />
    <glyph glyph-name="uni04AA" unicode="&#x4aa;" horiz-adv-x="921" 
d="M137 909q-3 210 10 359q20 165 117.5 235.5t220.5 18.5q112 -49 179 -177.5t57 -291.5q-1 -25 -20 -41.5t-44 -14.5q-25 1 -41 20t-14 44q7 128 -40.5 223t-123.5 127q-64 28 -112.5 -10.5t-59.5 -145.5q-11 -143 -8.5 -344t25.5 -410.5t57 -277.5q42 -82 106 -108
q56 -23 86 -5.5t54 80.5q32 92 32 279q0 25 17.5 42t42.5 17t42 -17t17 -42q0 -204 -39 -317q-51 -132 -145 -164v-41q0 -29 2 -39q-2 2 -4 0h2l2 -2q3 -3 12 -6q16 -8 25 -11q26 -7 35 -12q111 -54 75 -196q-14 -64 -53 -98.5t-94 -28.5q-43 4 -81 32.5t-62 71.5
q-12 20 -5.5 45t27.5 37q21 11 45.5 4.5t34.5 -29.5q21 -40 53 -43l8 2q7 9 14 41.5t1 44.5q-3 9 -35 17q-11 5 -33 12q-52 21 -73 61q-13 23 -13 50q-2 12 -2 45v47q-20 3 -37 12q-106 47 -164 166q-40 82 -66.5 305.5t-29.5 433.5z" />
    <glyph glyph-name="uni04AB" unicode="&#x4ab;" horiz-adv-x="655" 
d="M18 627q-3 80 0 127q3 161 58 254q30 52 79 70.5t105 4.5q45 -14 82.5 -50.5t50.5 -82.5q30 -86 17 -176q-1 -25 -20 -41t-44 -14q-25 1 -41 19.5t-14 43.5q0 23 2 37t2 27q0 29 -4 41q-7 22 -8 26q-17 43 -51.5 53.5t-53.5 -20.5q-23 -39 -33 -96t-9 -110.5t1 -110.5
q2 -55 2 -113q-13 -220 17 -326q6 -25 27 -54t46 -46q19 -12 29.5 -10t22.5 22q17 29 18 82.5t-6 100.5q-1 13 -2 29.5t-1.5 25.5t-0.5 14q0 25 16.5 43.5t40.5 18.5q25 0 43.5 -17t18.5 -41q0 -4 0.5 -12.5t1.5 -24t2 -28.5q4 -66 4 -80q1 -91 -26 -152.5t-77 -85.5v-51
q0 -29 2 -39q-2 2 -4 0h2l2 -2q3 -3 13 -6q12 -6 24 -10q26 -7 35 -12q112 -54 76 -197q-14 -64 -53.5 -98.5t-94.5 -28.5q-43 4 -81 32.5t-62 71.5q-12 20 -5.5 45t28.5 37q21 11 45 4.5t34 -28.5q21 -40 54 -43l8 2q7 9 13.5 41.5t0.5 44.5q-3 8 -35 16q-24 10 -32 13
q-53 21 -74 61q-12 21 -12 49q-2 12 -2 45v51q-54 24 -107 95q-35 48 -47 90q-18 68 -22.5 183.5t1.5 174.5q0 56 -2 111z" />
    <glyph glyph-name="uni04AC" unicode="&#x4ac;" horiz-adv-x="770" 
d="M-2 1409q0 25 17 42t42 17q57 0 230 17q156 18 239 18q25 0 42.5 -17t17.5 -42t-17.5 -42.5t-42.5 -17.5q-80 0 -198 -14q0 -212 12 -651l8 -373h8q25 0 43.5 -16.5t18.5 -40.5q8 -243 8 -449q-2 -25 -19 -42t-42 -17t-42.5 17t-17.5 42v154q-4 -2 -12 -2q-25 0 -42.5 17
t-17.5 42q0 179 -10 664q-10 358 -14 643q-76 -8 -152 -8q-25 0 -42 17t-17 42z" />
    <glyph glyph-name="uni04AD" unicode="&#x4ad;" horiz-adv-x="608" 
d="M-29 991q0 25 17 43.5t41 18.5l145 6h8l178 10q25 2 44 -14t20 -41q2 -25 -14 -44t-41 -20q-28 -1 -72.5 -4t-56.5 -4q-23 -430 -21 -651q25 0 43.5 -17t18.5 -41q8 -243 8 -305q-2 -25 -19.5 -42t-42.5 -17t-41.5 17t-15.5 42v27q-25 -2 -44 14t-20 41q-21 326 13 926
q-59 0 -86 -2q-25 0 -43.5 16.5t-18.5 40.5z" />
    <glyph glyph-name="uni04AE" unicode="&#x4ae;" horiz-adv-x="768" 
d="M12 1423q19 -73 78 -243q59 -164 82 -234l49 -147l31 -90l10 -31l2 -10q2 -2 2 -4q0 -3 2 -5t2 -4q29 -149 21 -399q-4 -111 4 -215q1 -25 19.5 -41t43.5 -14t41 20t15 43q-4 70 -4 273q0 213 -19 333l17 19q27 39 45 86q25 65 65 241q58 274 66 433q1 25 -15 43t-41 20
t-43.5 -14t-19.5 -41q-8 -142 -64 -416q-25 -130 -59 -217l-8 27l-47 147q-45 133 -84 238q-52 143 -76 231q-6 24 -27 36.5t-45 6.5t-36.5 -27t-6.5 -45z" />
    <glyph glyph-name="uni04AF" unicode="&#x4af;" horiz-adv-x="704" 
d="M-20 981q64 -150 159 -336l78 -149l27 -45q8 -9 12 -19l2 -2q-2 -42 2 -178q8 -193 8 -238q0 -25 17.5 -42t42.5 -17t42 17t17 42q0 31 -8 242q-4 150 -2 195l2 4q13 19 29 61q33 88 75 283l23 110l12 62q6 23 -7 44t-36 27q-25 5 -46.5 -9t-25.5 -38q-4 -11 -12 -57
l-22 -113q-32 -148 -64 -241l-59 114q-100 197 -156 328q-11 23 -33 32.5t-45 0.5t-31.5 -31.5t-0.5 -46.5z" />
    <glyph glyph-name="uni04B0" unicode="&#x4b0;" horiz-adv-x="804" 
d="M12 1423q-6 24 6.5 45t36.5 27t45 -6.5t27 -36.5q24 -88 76 -231q39 -105 84 -238l47 -147l8 -27q34 87 59 217q56 274 64 416q1 25 19.5 41t43.5 14t41 -20t15 -43q-8 -159 -66 -433q-40 -176 -65 -241q-18 -47 -45 -86l-17 -19q12 -67 15 -170h155q25 0 42.5 -17
t17.5 -42q0 -24 -17.5 -41.5t-42.5 -19.5h-151v-43q0 -203 4 -273q1 -25 -15 -43t-41 -20t-43.5 14t-19.5 41q-8 104 -4 215q2 33 2 106l-176 -4q-25 0 -43.5 17t-18.5 41q0 25 17 43t41 18l176 4q-3 93 -19 174q0 2 -2 4t-2 5q0 2 -2 4l-2 10l-10 31l-31 90l-49 147
q-23 70 -82 234q-59 170 -78 243z" />
    <glyph glyph-name="uni04B1" unicode="&#x4b1;" horiz-adv-x="782" 
d="M-20 981q-8 24 0.5 46.5t31.5 31.5t45 -0.5t33 -32.5q56 -131 156 -328l59 -114q32 93 64 241l22 113q8 46 12 57q4 24 25.5 38t46.5 9q23 -6 36 -27t7 -44l-12 -62l-23 -110q-42 -195 -75 -283q-16 -42 -29 -61l-2 -4q-1 -17 -1 -38.5t0.5 -50.5t0.5 -47h162
q25 0 42 -17t17 -42t-17 -42t-42 -19h-158l6 -181q0 -25 -17 -42t-42 -17t-42.5 17t-17.5 42l-6 179l-168 -5q-25 0 -43 17t-18 41q0 25 16.5 43t40.5 18l168 4v119l-2 2q-4 10 -12 19l-27 45l-78 149q-95 186 -159 336z" />
    <glyph glyph-name="uni04B2" unicode="&#x4b2;" horiz-adv-x="733" 
d="M-25 1432q-2 25 13 44.5t39 22.5q25 3 43.5 -11.5t23.5 -39.5q11 -91 45 -203l29 -92q4 -16 37 -109l33 -96q62 272 94 494q5 25 23.5 39.5t43.5 11.5q24 -3 39 -23t13 -45q-43 -262 -142 -696l-2 -8q25 -88 92 -336l25 -88q3 21 18.5 35t36.5 14q25 0 43.5 -16.5
t18.5 -40.5q8 -243 8 -449q-2 -25 -19.5 -42t-42.5 -17t-42 17t-17 42v168q-22 -2 -39.5 10t-23.5 33l-113 424q-58 -266 -86 -432q-5 -25 -25 -39t-45 -10q-25 5 -39 24.5t-10 44.5q39 223 139 654l-32 102q-40 123 -60 182q-54 159 -80.5 251t-38.5 180z" />
    <glyph glyph-name="uni04B3" unicode="&#x4b3;" horiz-adv-x="698" 
d="M-2 1073q-4 25 10 45t39 25q25 4 45 -10t25 -39q16 -98 84 -285l28 80l33 82q33 92 45 153q5 23 25 37t45 10q24 -6 37.5 -26.5t7.5 -44.5q-17 -94 -82 -260l-43 -111l-33 -100l60 -187l63 -227q3 24 18.5 39.5t38.5 15.5q25 0 43.5 -16.5t18.5 -40.5q8 -243 8 -305
q-2 -25 -19 -42.5t-42 -17.5t-42 17.5t-16 42.5v43q-24 -3 -43.5 8.5t-25.5 34.5l-121 428q-54 -205 -82 -408q-4 -25 -23.5 -38.5t-44.5 -10.5q-24 3 -38.5 22t-12.5 44q40 289 135 598l-28 82l-21 57l-22 61q-23 53 -39 119q-19 61 -31 125z" />
    <glyph glyph-name="uni04B4" unicode="&#x4b4;" horiz-adv-x="794" 
d="M-240 1407q0 25 17 43t41 18q273 9 448 9q25 0 42.5 -17.5t17.5 -42.5t-17.5 -42t-42.5 -19h-155q15 -149 8 -303q-3 -79 0 -174q2 -291 16 -568q4 -30 0 -57v-57q0 -55 10 -82q4 -7 11 -11h4l39 2q89 -3 217 5v94q2 88 2 168q4 152 4 344q4 154 4 344q1 15 2 51.5
t2 54.5q6 135 -2 217q-2 25 12.5 44t38.5 22q25 4 44 -10t24 -39q8 -92 2 -240q-1 -18 -1.5 -41t-1 -37t-1.5 -22q0 -190 -4 -344q0 -192 -4 -344v-27h4q25 0 43 -16.5t18 -40.5q8 -243 8 -449q-2 -25 -19 -42t-42 -17t-42.5 17t-17.5 42v160q-6 0 -8 -2h-6q-8 -4 -14 -4
q-21 0 -37 -2q-99 -6 -225 -6h-43q-29 0 -41 6q-103 41 -97 207v59q2 25 -2 47q-14 282 -16 572q-3 103 0 180q7 159 -8 297l-170 -4q-25 0 -43.5 16.5t-18.5 40.5z" />
    <glyph glyph-name="uni04B5" unicode="&#x4b5;" horiz-adv-x="677" 
d="M-115 1040q0 25 17 43.5t41 18.5q58 2 97 4t50 2.5t33 1t63 0.5q25 0 42.5 -17t17.5 -42t-17.5 -42.5t-42.5 -17.5h-36q-1 -14 -6 -68t-7 -96l-18 -290q-15 -227 -15 -285v-98l2 -35q6 -14 13 -25l20 -2q25 2 82 2l78 6l2 2q0 7 2 9q6 37 6 102q6 117 4.5 375t-8.5 448
q0 26 15.5 44t39.5 18q26 0 45 -16.5t19 -41.5q16 -433 6 -749q24 -3 39.5 -19t15.5 -39q9 -273 9 -305q-2 -25 -19.5 -42t-42.5 -17t-41.5 17t-15.5 42v72l-10 -6q-2 -1 -8 -2t-9 -2q-24 -6 -35 -6q-86 -11 -176 -11l-33 2q-20 0 -38 11q-77 46 -80 164v104q0 79 14 291
l18 289l13 153q-11 -1 -40.5 -2t-43.5 -2q-25 0 -43.5 16.5t-18.5 40.5z" />
    <glyph glyph-name="uni04B6" unicode="&#x4b6;" horiz-adv-x="876" 
d="M-16 1483q0 25 17 42t42 17t42 -17t17 -42q0 -378 52 -549q39 -143 112.5 -192t198.5 -3q-21 507 -21 744q0 25 17.5 42t42.5 17t42 -17t17 -42q0 -211 19 -707q13 -355 14 -436q12 6 27 6q25 0 43 -16.5t18 -40.5q8 -243 8 -449q-2 -25 -19 -42t-42 -17t-42.5 17
t-17.5 42v174q-16 -8 -30 -8q-25 0 -42.5 17.5t-17.5 42.5q0 216 -12 550q-152 -49 -265.5 27t-164.5 256q-55 186 -55 584z" />
    <glyph glyph-name="uni04B7" unicode="&#x4b7;" horiz-adv-x="698" 
d="M-63 904q-3 140 6 206q0 24 18 40.5t43 16.5q24 0 40.5 -18t16.5 -43q-18 -261 15 -387q24 -82 76 -118t151 -26h16q-3 205 -12 480q0 25 17 43t41 18q25 0 43 -16.5t18 -40.5q12 -439 18 -768q25 0 43.5 -17t18.5 -41q8 -243 8 -305q-2 -25 -19 -42t-42 -17t-42 17
t-16 42v62h-10q-25 0 -42 17t-17 42q0 120 -4 410q-2 -2 -7 -2q-284 -26 -354 231q-21 76 -24 216z" />
    <glyph glyph-name="uni04B8" unicode="&#x4b8;" horiz-adv-x="784" 
d="M-16 1483q0 25 17 42t42 17t42 -17t17 -42q0 -378 52 -549q42 -149 114 -193l-4 140q0 25 17 43t41 18q25 0 43 -16.5t18 -40.5l4 -166q37 6 78 20q-21 507 -21 744q0 25 17.5 42t42.5 17t42 -17t17 -42q0 -211 19 -707q18 -472 18 -710q0 -25 -17 -42.5t-42 -17.5
t-42.5 17.5t-17.5 42.5q0 216 -12 550q-45 -13 -78 -16v-164q-2 -25 -19 -42t-42 -17t-42.5 17t-17.5 42v174q-80 26 -139.5 100t-91.5 189q-55 186 -55 584z" />
    <glyph glyph-name="uni04B9" unicode="&#x4b9;" horiz-adv-x="628" 
d="M-63 904q-3 140 6 206q0 24 18 40.5t43 16.5q24 0 40.5 -18t16.5 -43q-18 -261 15 -387q21 -75 63 -111v76q0 25 17 43t41 18q25 0 43 -16.5t18 -40.5l4 -115q27 0 41 2h16q-3 205 -12 480q0 25 17 43t41 18q25 0 43 -16.5t18 -40.5q18 -612 18 -1010q0 -25 -17 -42
t-42 -17t-42 17t-17 42q0 120 -4 410q-2 -2 -7 -2q-16 -2 -49 -2v-72q-2 -25 -19 -42t-42 -17t-42 17t-16 42v90q-140 47 -186 215q-21 76 -24 216z" />
    <glyph glyph-name="uni04BA" unicode="&#x4ba;" horiz-adv-x="671" 
d="M0 1423q6 -43 6 -206q-3 -166 0 -209q6 -351 6 -502q0 -135 9.5 -295.5t9.5 -175.5q0 -24 18 -41t43 -17q24 0 41 18.5t17 43.5v9q-1 8 -1.5 24.5t-1.5 40.5t-2 57.5t-2 73t-2 90t-1.5 105.5t-1.5 122.5t-1 138.5q87 5 105 5q30 -1 44 -3t29 -10.5t22.5 -26.5t14.5 -49
q23 -116 10 -399l-6 -158q0 -25 17.5 -42t42.5 -17t42 17t17 42l6 152q14 310 -14 428q-24 119 -91.5 153.5t-244.5 26.5q-8 167 -8 402q3 121 -4 211q-1 25 -20 41t-44 14q-25 -1 -41 -20t-14 -44z" />
    <glyph glyph-name="uni04BB" unicode="&#x4bb;" horiz-adv-x="634" 
d="M-16 537q0 -22 4 -154q6 -196 6 -332q0 -25 17 -42t42 -17t42.5 17t17.5 42q0 93 -9 391q113 18 138 17q55 -2 73 -51q12 -31 15 -84q6 -25 -2 -134q-1 -12 -4 -37t-7 -51.5t-4 -29.5q-2 -25 14 -45t40 -21q25 -2 44.5 13.5t20.5 39.5q0 7 6 54l8 67q0 6 1 17t2 28t2 31
q2 43 -2 78q-15 220 -187 241q-52 6 -160 -12q-6 240 11 453q2 25 -14 44.5t-40 20.5q-25 2 -44.5 -13.5t-20.5 -39.5q-16 -207 -10 -491z" />
    <glyph glyph-name="uni04BC" unicode="&#x4bc;" horiz-adv-x="882" 
d="M-16 1006q-1 -58 1.5 -95.5t11 -80t29.5 -74t54 -56.5q18 -12 55 -18q2 -1 7 -2t8 -2v-66q0 -445 98 -551q23 -25 73.5 -48t88.5 -29q104 -15 161 61q46 62 68 148q25 113 25 284q0 25 -17.5 42.5t-42.5 17.5t-42 -17.5t-17 -42.5q0 -155 -23 -258q-17 -68 -40 -95.5
t-56 -21.5q-19 2 -52 16.5t-40 24.5q-33 37 -47 162q-19 130 -19 307v52l105 -9q126 -4 166 -4q47 0 61 2q19 0 25 2q21 3 39 21q38 40 34 192q-6 137 -42 289.5t-89 245.5q-38 69 -91.5 101t-103 24.5t-93 -50.5t-64.5 -114q-11 -34 -14 -66l-13 -75q-3 -37 -6 -47
q-18 -115 -28 -377q-2 2 -9 2q-28 22 -36.5 65t-6.5 135q0 25 -16.5 43.5t-40.5 18.5q-25 0 -43 -16.5t-18 -40.5zM270 782q9 236 31 373l6 57q8 61 21 119q21 74 71 80q3 3 13 0q4 -2 22 -20q9 -9 29 -45q43 -77 77 -220t40 -262q2 -40 -2 -88v-6h-39q-137 0 -269 12z" />
    <glyph glyph-name="uni04BD" unicode="&#x4bd;" horiz-adv-x="755" 
d="M29 717q4 -32 4 -53q3 -59 18 -93q40 -62 135 -82v-28q-3 -120 0 -199q5 -115 39 -178.5t125 -85.5q82 -19 130 27.5t63 132.5q10 58 10 123v55q-2 23 -2 37q0 25 -17 42t-42 17t-42.5 -17t-17.5 -42q0 -157 -6 -195q-9 -47 -23 -61q-7 -7 -24 -4q-41 10 -55 41t-19 114
q-3 76 0 189v24q43 1 76 5.5t71 20.5t62 43t40.5 75.5t16.5 115.5q0 127 -51 232q-17 37 -31.5 60.5t-42.5 46t-63 26.5q-118 13 -162 -143q-9 -39 -18.5 -176t-9.5 -177q-27 9 -37 19v6q-6 54 -6 65v25q-3 9 -3 12q-2 25 -20 41t-43 15t-41 -20t-14 -44v-12zM309 600
q5 44 13 191q6 117 14 143q11 32 16 39q4 8 10 14h9l14 -14q17 -21 29 -49q39 -79 39 -183q0 -48 -9.5 -77.5t-32 -42.5t-43 -16.5t-59.5 -4.5z" />
    <glyph glyph-name="uni04BE" unicode="&#x4be;" horiz-adv-x="882" 
d="M-16 1006q0 24 18 40.5t43 16.5q24 0 40.5 -18.5t16.5 -43.5q-2 -92 6.5 -135t36.5 -65q7 0 9 -2q10 262 28 377q3 10 6 47l13 75q3 32 14 66q21 71 64.5 114t93 50.5t103 -24.5t91.5 -101q53 -93 89 -245.5t42 -289.5q4 -152 -34 -192q-18 -18 -39 -21q-6 -2 -25 -2
q-14 -2 -61 -2q-40 0 -166 4l-105 9v-52q0 -177 19 -307q14 -125 47 -162q7 -10 40 -24.5t52 -16.5q33 -6 56 21.5t40 95.5q23 104 23 258q0 25 17 42.5t42 17.5t42.5 -17.5t17.5 -42.5q0 -171 -25 -284q-22 -86 -68 -148q-39 -55 -108 -61q-100 -151 10 -291
q15 -20 11.5 -44.5t-23.5 -39.5q-19 -15 -43 -11.5t-39 21.5q-143 190 -39 385q-67 29 -92 57q-98 106 -98 551v66q-3 1 -8 2t-7 2q-37 6 -55 18q-33 25 -54 56.5t-29.5 74t-11 80t-1.5 95.5zM270 782q132 -12 269 -12h39v6q4 48 2 88q-6 119 -40 262t-77 220q-20 36 -29 45
q-18 18 -22 20q-10 3 -13 0q-50 -6 -71 -80q-13 -58 -21 -119l-6 -57q-22 -137 -31 -373z" />
    <glyph glyph-name="uni04BF" unicode="&#x4bf;" horiz-adv-x="755" 
d="M29 717v12q-2 25 14 44t41 20t43 -15t20 -41q0 -3 3 -12v-25q0 -11 6 -65v-6q10 -10 37 -19q0 40 9.5 177t18.5 176q44 156 162 143q35 -4 63 -26.5t42.5 -46t31.5 -60.5q51 -105 51 -232q0 -67 -16.5 -115.5t-40.5 -75.5t-62 -43t-71 -20.5t-76 -5.5v-24q-3 -113 0 -189
q5 -83 19 -114t55 -41q17 -3 24 4q14 14 23 61q6 38 6 195q0 25 17.5 42t42.5 17t42 -17t17 -42q0 -14 2 -37v-55q0 -65 -10 -123q-11 -68 -44.5 -113t-88.5 -51q-110 -155 2 -301q15 -20 11 -44.5t-24 -39.5q-19 -15 -43 -11.5t-39 21.5q-147 197 -28 404q-55 30 -77.5 88
t-25.5 151q-3 79 0 199v28q-95 20 -135 82q-15 34 -18 93q0 21 -4 53zM309 600q39 1 59.5 4.5t43 16.5t32 42.5t9.5 77.5q0 104 -39 183q-12 28 -29 49l-14 14h-9q-6 -6 -10 -14q-5 -7 -16 -39q-8 -26 -14 -143q-8 -147 -13 -191z" />
    <glyph glyph-name="uni04C0" unicode="&#x4c0;" 
d="M-47 18q0 -25 16.5 -43t40.5 -18q83 -3 215 12q6 -2 15 -2q14 0 26 6q156 17 209 17q25 0 42.5 17t17.5 42t-17.5 42.5t-42.5 17.5q-61 0 -178 -13q-5 91 -10 135q-12 137 -15 197q-6 0 0 469v475q109 0 154 2q24 0 40.5 18.5t16.5 43.5q0 24 -18 40.5t-43 16.5
q-41 -2 -391 -2q-25 0 -42.5 -17t-17.5 -42t17.5 -42.5t42.5 -17.5h123v-4q0 -168 -2 -297t-2 -350q0 -288 18 -500q3 -29 5 -56.5t3 -50.5t2 -30q-109 -10 -164 -8q-25 0 -43 -17t-18 -41z" />
    <glyph glyph-name="uni04C1" unicode="&#x4c1;" horiz-adv-x="921" 
d="M-63 1393l47 -150l59 -186q72 -245 72 -307q0 -38 -27 -121q-6 -16 -13.5 -40.5t-8.5 -27.5q-21 -68 -66 -254l-55 -231q-6 -24 6.5 -45t36.5 -27t44.5 6.5t26.5 36.5l56 227q49 202 65 254q0 4 21 62q13 43 26 92q8 -2 23 -2q3 -21 18 -649q0 -24 18.5 -41t43.5 -17
q24 0 40.5 18.5t16.5 43.5l-18 637q14 2 51 2h8q16 -124 72 -323t125 -333q12 -23 36 -29.5t46 5.5q21 10 28 34t-4 44q-74 143 -137 387q-16 61 -27.5 107.5t-18 91t-11 72t-1.5 65t4 56t11 58.5t15 58t21.5 70.5t24.5 80.5q55 185 64 299q2 25 -14 44t-41 20
q-25 2 -44 -14.5t-20 -41.5q-6 -109 -57 -272q-59 -192 -78 -291q-4 -40 -4 -69h-2q-35 0 -49 -2v157q0 64 -2 127q-3 174 10 271q2 25 -12.5 44.5t-38.5 22.5q-25 3 -44 -11.5t-24 -39.5q-13 -108 -10 -291q2 -66 2 -123v-149l-12 4h-7q-18 114 -71 289l-60 186
q-22 63 -47 147q-7 24 -28.5 35.5t-45.5 5.5q-24 -7 -35 -28t-5 -45zM102 1790q19 -100 75.5 -166.5t133.5 -73.5q81 -7 145 51t93 164q6 23 -6 44.5t-35 27.5q-25 6 -46.5 -6t-27.5 -37q-21 -73 -51 -100q-31 -28 -59 -25q-32 2 -63 40t-44 106q-5 23 -24.5 37t-42.5 10
q-25 -6 -39.5 -27t-8.5 -45z" />
    <glyph glyph-name="uni04C2" unicode="&#x4c2;" horiz-adv-x="974" 
d="M-41 1021q-5 -24 8 -44q98 -150 152 -260q23 -49 37.5 -89t23 -70t6.5 -61.5t-4 -50.5t-16.5 -50t-24 -47.5t-32.5 -55.5q-1 -2 -8 -14.5t-17.5 -30.5t-22.5 -37q-44 -74 -59 -102q-11 -20 -3 -44t30 -34q22 -12 45 -5.5t35 29.5q13 31 55 97l49 81q69 122 86 207
q1 2 2 7t2 8h23q-6 -240 4 -408q1 -25 19.5 -41t43.5 -14t41 20t15 43q-10 177 -5 406q27 0 39 2q3 -32 9 -57q33 -113 126 -275l60 -106q12 -23 36 -30t46 5q21 10 28 34t-4 44l-65 115q-36 66 -52.5 96.5t-34 71.5t-26.5 73q-4 15 -5.5 33.5t1 42.5t5 45.5t9.5 53.5
t11.5 53t14 57t14.5 54t15.5 55.5t14.5 50.5q33 123 39 149q6 23 -7 44.5t-36 27.5q-25 5 -46.5 -9t-25.5 -38q-10 -41 -39 -146q-65 -224 -77 -321l-45 -6q3 52 0 141q-3 195 12 285q4 25 -10 44.5t-39 24.5q-25 4 -45 -10t-25 -39q-16 -100 -12 -315q3 -95 0 -138h-33
q-41 186 -231 469q-14 20 -38 25t-44 -8q-20 -14 -25 -38zM160 1425q19 -100 75.5 -166t133.5 -73q81 -7 144.5 50.5t92.5 164.5q6 23 -6 44.5t-35 27.5q-25 6 -46 -6t-27 -37q-21 -73 -52 -101q-30 -27 -59 -24q-32 2 -63 40t-44 105q-5 23 -24.5 37t-42.5 10
q-25 -6 -39 -27t-8 -45z" />
    <glyph glyph-name="uni04C7" unicode="&#x4c7;" horiz-adv-x="667" 
d="M14 1442q-5 -71 2 -240q11 -172 11 -229q0 -258 -4 -459q-1 -82 -3 -237.5t-2 -208.5q0 -25 17.5 -42.5t42.5 -17.5t42 17.5t17 42.5q0 127 8 604q95 8 211 -2q5 -175 9 -701q0 -121 -15 -209q-11 -54 -31 -84q-13 -17 -26 -14q-15 0 -19 2h-2q-4 23 -10 41q-6 23 -28 33
t-46 4t-34 -28t-4 -48q0 -2 4 -15t11 -32t13 -29q20 -28 62.5 -41t92.5 0.5t83 57.5q33 49 49.5 132.5t17.5 231.5q0 696 -34 1440q0 24 -18.5 40.5t-43.5 14.5q-24 0 -40.5 -18t-16.5 -43q8 -173 22 -617q-119 11 -207 3q2 165 -8 417q-10 150 -4 226q1 24 -15 42.5
t-40 20.5q-25 2 -44 -14t-20 -41z" />
    <glyph glyph-name="uni04C8" unicode="&#x4c8;" 
d="M45 1036q27 -128 27 -381q0 -139 2 -180q2 -98 26 -299l13 -133q1 -24 20.5 -39.5t44.5 -13.5q24 1 39.5 20.5t13.5 44.5q-1 9 -6 51.5t-8 77.5q-22 194 -24 291q75 2 206 -8q21 -304 15 -500q-6 -165 -25 -227q-13 -40 -30 -47t-60 16q-23 11 -46.5 4t-33.5 -28
q-12 -22 -5 -46t28 -36q100 -47 164.5 -18.5t95.5 118.5q24 74 30 260q6 198 -16 541q-10 144 -18.5 269.5t-12.5 190t-4 70.5q0 24 -18 41t-43 17q-24 0 -41 -18.5t-17 -43.5q2 -74 27 -442q-108 9 -199 6v135q-2 6 -2 62q-2 33 -2 71q-6 93 -12 133q-8 38 -10 62
q-6 25 -26.5 39t-43.5 10q-25 -6 -39 -26.5t-10 -43.5z" />
    <glyph glyph-name="uni04CB" unicode="&#x4cb;" horiz-adv-x="784" 
d="M-16 1483q0 25 17 42t42 17t42 -17t17 -42q0 -378 52 -549q39 -143 112.5 -192t198.5 -3q-21 507 -21 744q0 25 17.5 42t42.5 17t42 -17t17 -42q0 -211 19 -707q18 -472 18 -710q0 -25 -17 -42.5t-42 -17.5l-15 2q2 -49 2 -145q-2 -25 -19 -42.5t-42 -17.5t-41.5 17.5
t-15.5 42.5q0 116 -9 383q0 25 17 43t41 18l20 -2q-1 63 -10 311q-158 -49 -268 26.5t-162 256.5q-55 186 -55 584z" />
    <glyph glyph-name="uni04CC" unicode="&#x4cc;" horiz-adv-x="628" 
d="M-63 904q-3 140 6 206q0 24 18 40.5t43 16.5q24 0 40.5 -18t16.5 -43q-18 -261 15 -387q24 -82 76 -118t151 -26h16q-3 205 -12 480q0 25 17 43t41 18q25 0 43 -16.5t18 -40.5q18 -612 18 -1010q0 -25 -17 -42t-42 -17q-10 0 -14 2v-64q-2 -25 -19.5 -42t-42.5 -17
t-41.5 17t-15.5 42q0 64 -8 301q0 25 16.5 43.5t40.5 18.5q13 0 21 -4v172q-2 -2 -7 -2q-284 -26 -354 231q-21 76 -24 216z" />
    <glyph glyph-name="uni04CF" unicode="&#x4cf;" horiz-adv-x="417" 
d="M106 1014q9 -341 9 -991q0 -25 17 -42.5t42 -17.5t42 17.5t17 42.5q0 687 -8 995q0 24 -18 40.5t-43 16.5q-24 0 -41 -18t-17 -43z" />
    <glyph glyph-name="uni04D0" unicode="&#x4d0;" horiz-adv-x="735" 
d="M-2 1872q19 -100 75.5 -166.5t133.5 -73.5q81 -7 144.5 50.5t92.5 164.5q6 23 -6 44.5t-35 27.5q-25 6 -46 -6t-27 -37q-21 -73 -51 -100q-31 -28 -60 -25q-32 2 -62.5 39.5t-43.5 105.5q-5 23 -25 37.5t-43 10.5q-25 -6 -39 -27t-8 -45zM20 1184q3 -70 3 -76
q0 -160 14 -557l8 -254q11 -161 -10 -256q-6 -25 6 -45.5t37 -26.5t45.5 6t26.5 37q28 108 14 289q-3 34 -12 358q6 -2 16 -2q30 0 135 -6q66 -3 109 -6q7 -233 8 -268q3 -71 0 -115q-4 -130 12 -246q5 -25 25 -39t45 -10q25 5 39 25t10 45q-15 102 -12 221q3 52 0 123
q-15 550 -56 827q-11 74 -32.5 132t-57.5 103.5t-91 67.5t-126 15q-69 -6 -98.5 -29t-46.5 -92q-14 -61 -11 -221zM139 1188q-3 142 6 190q2 14 11 27q14 0 32 2q76 7 117.5 -47t59.5 -168q30 -217 41 -428q-234 12 -238 12q-9 0 -21 -4q-6 194 -6 336q0 33 -2 80z" />
    <glyph glyph-name="uni04D1" unicode="&#x4d1;" horiz-adv-x="753" 
d="M16 641q-28 -194 4 -376.5t115 -241.5q75 -52 138 -34t106 95l12 25q16 -57 64 -86q6 -3 10 -7l6 -4q2 0 4 -2q19 -13 45 -10q25 5 39 25t10 45q-1 7 -2.5 12t-4.5 10t-4.5 7t-8 6.5t-9 6t-13 7t-15.5 8.5h-2q-6 17 -12 66q-13 88 -13 276q-2 117 -10 197v69l-6 121
q-1 7 -2 20.5t-2 18.5q-1 3 -2 9t-2 9l-8 17q8 21 -0.5 43.5t-28.5 32.5q-176 83 -291 -54q-87 -104 -117 -311zM90 1372q19 -100 75.5 -166t133.5 -73q81 -7 145 51t93 164q6 23 -6 44t-35 27q-25 6 -46.5 -6t-27.5 -37q-21 -73 -51 -100q-31 -28 -60 -25q-32 2 -62.5 40
t-43.5 106q-5 23 -25 37t-43 10q-25 -6 -39 -27t-8 -45zM134 627.5q26 171.5 89 249.5q46 55 113 36q-6 -17 -2 -69q2 -10 2 -19q4 -68 16 -139l4 -29q-2 -155 -21.5 -299t-60.5 -219q-19 -31 -31.5 -35.5t-37.5 13.5q-49 37 -70 184q-27 155 -1 326.5z" />
    <glyph glyph-name="uni04D2" unicode="&#x4d2;" horiz-adv-x="735" 
d="M-4 1626q-8 -26 1.5 -48.5t33.5 -29.5q24 -8 46 1t29 32l23 57q8 25 -1 48t-32 30q-25 8 -48 -1t-30 -32zM20 1184q3 -70 3 -76q0 -160 14 -557l8 -254q11 -161 -10 -256q-6 -25 6 -45.5t37 -26.5t45.5 6t26.5 37q28 108 14 289q-3 34 -12 358q6 -2 16 -2q30 0 135 -6
q66 -3 109 -6q7 -233 8 -268q3 -71 0 -115q-4 -130 12 -246q5 -25 25 -39t45 -10q25 5 39 25t10 45q-15 102 -12 221q3 52 0 123q-15 550 -56 827q-11 74 -32.5 132t-57.5 103.5t-91 67.5t-126 15q-69 -6 -98.5 -29t-46.5 -92q-14 -61 -11 -221zM139 1188q-3 142 6 190
q2 14 11 27q14 0 32 2q76 7 117.5 -47t59.5 -168q30 -217 41 -428q-234 12 -238 12q-9 0 -21 -4q-6 194 -6 336q0 33 -2 80zM311 1616q-6 -24 6.5 -45t36.5 -27t45 6.5t27 36.5l16 64q6 23 -6 44t-35 27q-25 6 -46 -6t-27 -37z" />
    <glyph glyph-name="uni04D3" unicode="&#x4d3;" horiz-adv-x="753" 
d="M16 641q-28 -194 4 -376.5t115 -241.5q75 -52 138 -34t106 95l12 25q16 -57 64 -86q6 -3 10 -7l6 -4q2 0 4 -2q19 -13 45 -10q25 5 39 25t10 45q-1 7 -2.5 12t-4.5 10t-4.5 7t-8 6.5t-9 6t-13 7t-15.5 8.5h-2q-6 17 -12 66q-13 88 -13 276q-2 117 -10 197v69l-6 121
q-1 7 -2 20.5t-2 18.5q-1 3 -2 9t-2 9l-8 17q8 21 -0.5 43.5t-28.5 32.5q-176 83 -291 -54q-87 -104 -117 -311zM88 1178q-8 -26 1.5 -48.5t33.5 -29.5q24 -8 46.5 1t29.5 32l22 57q8 25 -1 48t-32 30q-25 8 -47.5 -1t-29.5 -32zM134 627.5q26 171.5 89 249.5q46 55 113 36
q-6 -17 -2 -69q2 -10 2 -19q4 -68 16 -139l4 -29q-2 -155 -21.5 -299t-60.5 -219q-19 -31 -31.5 -35.5t-37.5 13.5q-49 37 -70 184q-27 155 -1 326.5zM403 1167q-6 -24 6.5 -44.5t36.5 -26.5t45 6.5t27 36.5l17 63q6 23 -6 44.5t-35 27.5q-25 6 -46.5 -6t-27.5 -37z" />
    <glyph glyph-name="uni04D4" unicode="&#x4d4;" horiz-adv-x="1495" 
d="M20 1184q3 -70 3 -76q0 -160 14 -557l8 -254q11 -161 -10 -256q-6 -25 6 -45.5t37 -26.5t45.5 6t26.5 37q28 108 14 289q-3 34 -12 358q6 -2 16 -2q30 0 135 -6q66 -3 109 -6q7 -233 8 -268q3 -71 0 -115q-4 -130 12 -246q5 -25 25 -39t45 -10q25 5 39 25t10 45
q-15 102 -12 221q3 52 0 123q-15 550 -56 827q-11 74 -32.5 132t-57.5 103.5t-91 67.5t-126 15q-69 -6 -98.5 -29t-46.5 -92q-14 -61 -11 -221zM139 1188q-3 142 6 190q2 14 11 27q14 0 32 2q76 7 117.5 -47t59.5 -168q30 -217 41 -428q-234 12 -238 12q-9 0 -21 -4
q-6 194 -6 336q0 33 -2 80zM858 1223q-2 -167 16 -598q9 -178 9 -195v-43q-1 -11 -2 -38.5t-2 -41.5q-5 -165 -5 -207q5 -47 5 -49q0 -33 16 -51q26 -31 94 -35q96 -4 195 4l67 4q25 0 42.5 17.5t17.5 42.5t-17.5 42t-42.5 17l-69 -4q-105 -8 -185 -4h-2q0 10 -2 18
q0 65 4 205q1 15 2 43t2 41v43l-10 223h8q45 2 90.5 5t67 4.5t27.5 1.5q25 0 42 17t17 42t-17 42t-42 17q-8 0 -193 -10h-4l-6 156q-6 209 -4 291q0 75 2 100q0 17 4 29v4q6 6 16 8q27 6 70 6q78 -3 148 -24q24 -6 45 5t28 35q6 24 -5.5 45.5t-35.5 28.5q-90 26 -176 29
q-157 4 -199 -82q-16 -35 -16 -184z" />
    <glyph glyph-name="uni04D5" unicode="&#x4d5;" horiz-adv-x="1386" 
d="M16 641q-28 -194 4 -376.5t115 -241.5q75 -52 138 -34t106 95l12 25q16 -57 64 -86q6 -3 10 -7l6 -4q2 0 4 -2q19 -13 45 -10q25 5 39 25t10 45q-1 7 -2.5 12t-4.5 10t-4.5 7t-8 6.5t-9 6t-13 7t-15.5 8.5h-2q-6 17 -12 66q-13 88 -13 276q-2 117 -10 197v69l-6 121
q-1 7 -2 20.5t-2 18.5q-1 3 -2 9t-2 9l-8 17q8 21 -0.5 43.5t-28.5 32.5q-176 83 -291 -54q-87 -104 -117 -311zM134 627.5q26 171.5 89 249.5q46 55 113 36q-6 -17 -2 -69q2 -10 2 -19q4 -68 16 -139l4 -29q-2 -155 -21.5 -299t-60.5 -219q-19 -31 -31.5 -35.5t-37.5 13.5
q-49 37 -70 184q-27 155 -1 326.5zM784 346q6 -49 11 -80t13.5 -70.5t20 -65t29 -52t42 -44.5t56.5 -30q50 -21 105.5 -6.5t97.5 63.5q17 19 15 43t-21 41t-43 15t-41 -21q-32 -39 -74 -22.5t-61 76.5q-36 107 -45 309q35 -2 92 -2q63 0 86 2q58 4 78 22q60 51 57 166
q-2 92 -43 190.5t-100 145.5q-94 73 -180 2q-64 -52 -91 -186q-42 -185 -4 -496zM887 621q0 118 18.5 204.5t50.5 112.5q8 8 11 4q7 0 18 -8q36 -30 66.5 -105t31.5 -143q3 -44 -10 -63q-4 -2 -16 -2q-27 -3 -76 -3q-39 0 -94 3z" />
    <glyph glyph-name="uni04D6" unicode="&#x4d6;" horiz-adv-x="741" 
d="M100 1827q19 -100 75.5 -166.5t133.5 -73.5q81 -7 145 51t93 164q6 23 -6 44.5t-35 27.5q-25 6 -46.5 -6t-27.5 -37q-21 -73 -51 -100q-31 -28 -59 -25q-32 2 -63 40t-44 105q-5 23 -25 37t-43 10q-25 -6 -39 -26.5t-8 -44.5zM104 1223q-2 -149 17 -598q8 -159 8 -195
v-43q-1 -11 -2 -38.5t-2 -41.5q-4 -132 -4 -207q1 -8 2 -25t2 -24q0 -33 16 -51q26 -31 95 -35q96 -4 194 4l68 4q25 0 42 17.5t17 42.5t-17 42t-42 17l-70 -4q-105 -8 -184 -4h-2q0 10 -2 18q0 65 4 205q1 15 2 43t2 41v43l-10 223h8q45 3 90 5.5t66.5 4t27.5 1.5
q25 0 42 17t17 42t-17 42t-42 17q-7 0 -192 -10h-5l-6 156q-6 209 -4 291q0 75 2 100q0 17 4 29v4q6 6 17 8q27 6 69 6q78 -3 148 -24q24 -6 45.5 5t28.5 35q6 24 -5.5 45.5t-35.5 28.5q-90 26 -177 29q-156 4 -198 -82q-17 -38 -17 -184z" />
    <glyph glyph-name="uni04D7" unicode="&#x4d7;" horiz-adv-x="614" 
d="M-39 1386q19 -100 75.5 -166t133.5 -73q81 -7 145 51t93 164q6 23 -6 44.5t-35 27.5q-25 6 -46.5 -6t-27.5 -37q-21 -74 -51 -101t-60 -24q-32 2 -62.5 39.5t-43.5 105.5q-5 23 -25 37t-43 10q-25 -6 -39 -27t-8 -45zM12 346q6 -49 11 -80t13.5 -70.5t20 -65t29 -52
t42 -44.5t56.5 -30q50 -21 105.5 -6.5t97.5 63.5q17 19 15 43t-21 41t-43 15t-41 -21q-32 -39 -74 -22.5t-61 76.5q-36 107 -45 309q35 -2 92 -2q63 0 86 2q58 4 78 22q60 51 57 166q-2 92 -43 190.5t-100 145.5q-43 34 -89 35.5t-92 -33.5q-62 -51 -90 -186
q-42 -185 -4 -496zM115 621q0 118 18.5 204.5t50.5 112.5q8 8 11 4q7 0 18 -8q36 -30 66.5 -105t31.5 -143q3 -44 -10 -63q-4 -2 -16 -2q-27 -3 -76 -3q-38 0 -94 3z" />
    <glyph glyph-name="uni04D8" unicode="&#x4d8;" horiz-adv-x="786" 
d="M70 541q2 -130 52.5 -269t121.5 -206q119 -104 221 -5q70 65 110 265q27 140 27 329t-22 373q-8 72 -13.5 114.5t-16 99.5t-24.5 92.5t-35 73t-51 63t-69 42.5q-62 30 -129 9t-119 -90q-20 -25 -17 -60t27 -59q21 -24 49.5 -21.5t50.5 29.5q38 56 90 33t74 -109
q48 -170 56 -438q-41 4 -113 4q-75 0 -104 -4q-68 -4 -95 -31q-74 -74 -71 -235zM217 545q-8 57 12 92q4 4 19 4h92h115q0 -167 -23 -291.5t-61 -159.5q-11 -11 -13 -6q-9 0 -22 13q-44 40 -81 146.5t-38 201.5z" />
    <glyph glyph-name="afii10846" unicode="&#x4d9;" horiz-adv-x="614" 
d="M-4 365q2 -92 43 -190.5t100 -145.5q94 -73 180 -2q64 52 91 186q42 185 4 496q-6 49 -11 80t-13.5 70.5t-20 65t-29 52t-42 44.5t-56.5 30q-50 21 -105.5 6t-97.5 -64q-17 -19 -15 -43t21 -41t43 -15t41 21q32 39 74 23t61 -76q36 -107 45 -309q-35 2 -92 2
q-63 0 -86 -2q-57 -4 -78 -23q-60 -51 -57 -165zM115 369q-3 44 10 63q4 2 16 2q18 2 76 2q57 0 94 -2q0 -118 -18.5 -204.5t-50.5 -112.5q-8 -7 -11 -4q-7 0 -18 8q-36 30 -66.5 105t-31.5 143z" />
    <glyph glyph-name="uni04DA" unicode="&#x4da;" horiz-adv-x="786" 
d="M33 1366l22 57q7 23 30 32t48 1l6 -2q50 56 112 71t120 -12q45 -18 86 -59q11 -8 18 -22q47 -62 67.5 -153.5t37.5 -250.5q22 -184 22 -373t-27 -329q-40 -200 -110 -265q-102 -99 -221 5q-71 67 -121.5 206t-52.5 269q-3 161 71 235q27 27 95 31q29 4 104 4q72 0 113 -4
q-8 268 -56 438q-9 30 -14 41q-37 16 -37 53q-27 24 -58 19.5t-55 -37.5q-21 -25 -48 -29t-48 17q-21 -35 -69 -21q-24 7 -33.5 29.5t-1.5 48.5zM217 545q1 -95 38 -201.5t81 -146.5q13 -13 22 -13q2 -5 13 6q38 35 61 159.5t23 291.5h-207q-15 0 -19 -4q-20 -35 -12 -92z
" />
    <glyph glyph-name="uni04DB" unicode="&#x4db;" horiz-adv-x="616" 
d="M-16 1190q-8 -26 1 -48.5t33 -29.5q24 -8 46.5 1t29.5 32l23 57q8 25 -1 48t-32 30q-25 8 -48 -1t-30 -32zM-4 365q2 -92 43 -190.5t100 -145.5q94 -73 180 -2q64 52 91 186q42 185 4 496q-6 49 -11 80t-13.5 70.5t-20 65t-29 52t-42 44.5t-56.5 30q-50 21 -105.5 6
t-97.5 -64q-17 -19 -15 -43t21 -41t43 -15t41 21q32 39 74 23t61 -76q36 -107 45 -309q-35 2 -92 2q-63 0 -86 -2q-57 -4 -78 -23q-60 -51 -57 -165zM115 369q-3 44 10 63q4 2 16 2q18 2 76 2q57 0 94 -2q0 -118 -18.5 -204.5t-50.5 -112.5q-8 -7 -11 -4q-7 0 -18 8
q-36 30 -66.5 105t-31.5 143zM299 1180q-6 -24 6.5 -45t36.5 -27t45 6.5t27 36.5l16 63q6 23 -6 44.5t-35 27.5q-25 6 -46.5 -6t-27.5 -37z" />
    <glyph glyph-name="uni04DC" unicode="&#x4dc;" horiz-adv-x="921" 
d="M-63 1393l47 -150l59 -186q72 -245 72 -307q0 -38 -27 -121q-6 -16 -13.5 -40.5t-8.5 -27.5q-21 -68 -66 -254l-55 -231q-6 -24 6.5 -45t36.5 -27t44.5 6.5t26.5 36.5l56 227q49 202 65 254q0 4 21 62q13 43 26 92q8 -2 23 -2q3 -21 18 -649q0 -24 18.5 -41t43.5 -17
q24 0 40.5 18.5t16.5 43.5l-18 637q14 2 51 2h8q16 -124 72 -323t125 -333q12 -23 36 -29.5t46 5.5q21 10 28 34t-4 44q-74 143 -137 387q-16 61 -27.5 107.5t-18 91t-11 72t-1.5 65t4 56t11 58.5t15 58t21.5 70.5t24.5 80.5q55 185 64 299q2 25 -14 44t-41 20
q-25 2 -44 -14.5t-20 -41.5q-6 -109 -57 -272q-59 -192 -78 -291q-4 -40 -4 -69h-2q-35 0 -49 -2v157q0 64 -2 127q-3 174 10 271q2 25 -12.5 44.5t-38.5 22.5q-25 3 -44 -11.5t-24 -39.5q-13 -108 -10 -291q2 -66 2 -123v-149l-12 4h-7q-18 114 -71 289l-60 186
q-22 63 -47 147q-7 24 -28.5 35.5t-45.5 5.5q-24 -7 -35 -28t-5 -45zM94 1559q-8 -26 1.5 -48.5t33.5 -29.5q24 -8 46.5 0.5t29.5 31.5l22 58q8 26 -0.5 48.5t-31.5 29.5q-25 8 -48 -1t-30 -32zM410 1548q-6 -24 6.5 -44.5t36.5 -26.5t44.5 6.5t26.5 36.5l17 63
q6 23 -6 44.5t-35 27.5q-25 6 -46.5 -6t-27.5 -37z" />
    <glyph glyph-name="uni04DD" unicode="&#x4dd;" horiz-adv-x="974" 
d="M-41 1021q-5 -24 8 -44q98 -150 152 -260q23 -49 37.5 -89t23 -70t6.5 -61.5t-4 -50.5t-16.5 -50t-24 -47.5t-32.5 -55.5q-1 -2 -8 -14.5t-17.5 -30.5t-22.5 -37q-44 -74 -59 -102q-11 -20 -3 -44t30 -34q22 -12 45 -5.5t35 29.5q13 31 55 97l49 81q69 122 86 207
q1 2 2 7t2 8h23q-6 -240 4 -408q1 -25 19.5 -41t43.5 -14t41 20t15 43q-10 177 -5 406q27 0 39 2q3 -32 9 -57q33 -113 126 -275l60 -106q12 -23 36 -30t46 5q21 10 28 34t-4 44l-65 115q-36 66 -52.5 96.5t-34 71.5t-26.5 73q-4 15 -5.5 33.5t1 42.5t5 45.5t9.5 53.5
t11.5 53t14 57t14.5 54t15.5 55.5t14.5 50.5q33 123 39 149q6 23 -7 44.5t-36 27.5q-25 5 -46.5 -9t-25.5 -38q-10 -41 -39 -146q-65 -224 -77 -321l-45 -6q3 52 0 141q-3 195 12 285q4 25 -10 44.5t-39 24.5q-25 4 -45 -10t-25 -39q-16 -100 -12 -315q3 -95 0 -138h-33
q-41 186 -231 469q-14 20 -38 25t-44 -8q-20 -14 -25 -38zM162 1235q-8 -26 1.5 -48.5t33.5 -29.5q24 -8 46 1t29 32l23 57q8 25 -1 48t-32 30q-25 8 -48 -1t-30 -32zM477 1225q-6 -24 6.5 -45t36.5 -27t45 6.5t27 36.5l16 64q6 23 -6 44t-35 27q-25 6 -46 -6t-27 -37z" />
    <glyph glyph-name="uni04DE" unicode="&#x4de;" horiz-adv-x="634" 
d="M-2 324q0 -54 0.5 -79.5t4 -64.5t10.5 -61t20 -47.5t33 -46.5q37 -37 73 -48q73 -21 146 21q91 52 135 147q11 32 20 72q11 54 11 160q0 8 -1 19.5t-2 29.5t-2 31l-4 57q-6 121 -39 188q-18 40 -45 64q41 47 52 84q32 91 35.5 218t-21.5 220q-19 75 -64.5 131t-105.5 74
q-72 20 -131 -20t-90 -132q-17 -49 -21 -124.5t4 -112.5q1 -25 20 -41t44 -14q25 1 41 19.5t14 43.5q-9 138 8 193q17 51 45 69q16 10 33 4q26 -8 51 -40.5t37 -77.5q20 -79 17.5 -187t-27.5 -186q-5 -15 -57 -44.5t-90 -33.5q-9 0 -29 -4q-6 0 -14 -2q-39 -3 -68 -23
q-33 -26 -25 -71t50 -58q26 -6 56.5 -0.5t108.5 25.5q24 7 37 10q16 -9 27 -35q26 -57 29 -141q0 -2 4 -68t4 -133q-3 -69 -23 -114q-25 -60 -76.5 -89.5t-80.5 0.5q-23 23 -29 66t-6 152q0 25 -17.5 42t-42.5 17t-42 -17t-17 -42zM0 1595q-8 -26 1.5 -48t33.5 -29
q24 -8 46.5 0.5t29.5 31.5l22 58q8 25 -1 48t-32 30q-25 8 -47.5 -1t-29.5 -32zM315 1585q-6 -24 6.5 -45t36.5 -27t45 6.5t27 36.5l16 64q6 24 -5.5 45t-34.5 27q-25 6 -46.5 -6t-27.5 -37z" />
    <glyph glyph-name="uni04DF" unicode="&#x4df;" horiz-adv-x="630" 
d="M-23 168q0 -15 5 -55q10 -56 46 -92.5t87 -47.5q100 -21 180 50q50 44 76 128.5t26 165.5q0 111 -45 187l21 28q39 72 43 246q0 175 -39 246q-29 51 -86.5 77.5t-118 17t-96.5 -53.5q-63 -80 -66 -272v-37q-2 -14 -2 -37q0 -21 -2 -29q-2 -25 14 -43.5t41 -19.5
q25 -2 44 14t20 41q0 17 4 27v79q3 156 39 203q11 13 35 10q50 -7 65 -27t23 -75q13 -117 -4 -240q-6 -46 -17 -65q-10 -17 -16 -21h-14q-17 2 -39 -2q-37 -10 -51 -45t6 -61q17 -24 41 -28t45 5q4 0 8 2q5 -9 16 -41q13 -50 13 -86q0 -56 -19 -118.5t-43 -85.5
q-37 -32 -74 -24.5t-43 44.5q-5 3 -2 62q2 39 2 75q0 25 -17 42.5t-42 17.5t-42 -17.5t-17 -42.5q0 -18 -2 -41q-3 -35 -3 -61zM-2 1247q-8 -26 1.5 -48.5t33.5 -29.5q24 -8 46.5 1t29.5 32l22 58q8 25 -1 47.5t-32 29.5q-26 8 -48.5 -0.5t-29.5 -31.5zM313 1237
q-6 -24 6.5 -45t36.5 -27t45 6.5t27 36.5l16 64q6 23 -6 44t-35 27q-25 6 -46 -6t-27 -37z" />
    <glyph glyph-name="uni04E0" unicode="&#x4e0;" horiz-adv-x="770" 
d="M8 475q-30 -276 51 -418q41 -72 105 -101.5t133 -10.5q137 35 219 213q42 90 59 200t5.5 215t-65.5 190t-144 118q-22 9 -115 30q-2 2 -8 2q8 24 24 48q22 35 97 147q76 117 94 156q51 112 -12 168q-9 9 -25 12q-2 2 -8 2h-10q-4 2 -19 2q-10 -2 -47 -2q-14 -1 -41.5 -2
t-38.5 -2q-52 -2 -168 -19q-25 -4 -38.5 -23t-10.5 -44q3 -24 22 -38.5t44 -12.5q103 15 159 18q10 1 37.5 2t40.5 2h12l-6 -14q-22 -50 -84 -137q-95 -146 -100 -154q-59 -98 -43 -152q9 -33 34.5 -48.5t65.5 -24.5q26 -6 49 -12.5t37 -10.5t15 -4q59 -22 92 -67t39 -128
q18 -208 -43 -351t-148 -165q-63 -15 -106 58q-62 111 -35 346q2 25 -13 43.5t-40 21.5q-24 3 -42.5 -12.5t-23.5 -40.5z" />
    <glyph glyph-name="uni04E1" unicode="&#x4e1;" horiz-adv-x="698" 
d="M10 10q-2 -68 2 -166q15 -244 138 -278q57 -18 104 -7.5t84 38t66 75t48.5 104.5t32.5 126q25 125 28 287t-15 212q-33 160 -174 160q-6 -2 -17 -2l84 156q65 120 84 168q14 35 20.5 58.5t3 52.5t-23.5 48q-16 16 -45 19q-9 3 -24 0q-8 0 -54 -4q-19 0 -39 -4t-24 -4h-4
q-3 -1 -39 -5q-7 -1 -22 -2t-21 -2q-73 -9 -78 -12l-2 -2h-53q-25 0 -42.5 -17t-17.5 -42t17.5 -42.5t42.5 -17.5h51q23 0 29 2q41 9 69 13q72 8 78 8h4q1 1 2.5 1.5t4.5 1t5 1.5q5 0 33 4q15 0 21 2h2l-4 -12q-12 -30 -78 -156l-86 -162q-16 -32 -29 -61q-2 -5 -8 -29
q-7 -32 9.5 -58t55.5 -30q10 -2 37 2q51 7 63 7t27 -7q19 -19 27 -57q12 -41 12 -187q-2 -152 -28 -279.5t-74 -191.5q-45 -56 -111 -38q-13 3 -28 43q-28 73 -25 282q2 12 2 45t2 45v29q0 25 -17 42t-42 17t-42.5 -17t-17.5 -42q0 -65 -4 -115z" />
    <glyph glyph-name="uni04E2" unicode="&#x4e2;" horiz-adv-x="765" 
d="M16 1622q0 -24 18.5 -40.5t43.5 -16.5q237 8 444 8q25 0 42.5 17t17.5 42t-17.5 42.5t-42.5 17.5q-175 0 -448 -9q-24 0 -41 -18t-17 -43zM35 98q2 2 6 17l2 12l4 6v66q1 13 4.5 81t7 138t4.5 106q18 563 -16 934q-3 25 13 46t42 22q25 2 46 -15t22 -41q36 -406 16 -950
q0 -25 -2 -41q45 175 103 461q30 151 49 234q3 20 24 94q21 104 23 116v33q-3 22 6 43q18 43 70 43q47 0 67 -45q9 -27 11 -45q12 -74 12 -270q0 -229 16 -565q13 -403 13 -566q0 -25 -18.5 -43t-43.5 -18q-26 0 -44.5 18t-18.5 43q0 157 -13 523q-12 338 -12 475l-63 -305
q-48 -230 -113 -445l-43 -123l-31 -78q-2 -4 -5 -10.5t-5 -10.5t-4 -7l-12 -19q-21 -19 -48.5 -20.5t-48.5 16.5q-37 32 -20 90z" />
    <glyph glyph-name="uni04E3" unicode="&#x4e3;" horiz-adv-x="653" 
d="M-96 1219q0 -24 18 -41t43 -17q237 8 445 8q25 0 42 17.5t17 42.5t-17 42t-42 17q-206 0 -449 -8q-24 0 -40.5 -18t-16.5 -43zM-45 1018q34 -469 37 -658q2 -24 -2 -133q-4 -113 -2 -141v-8q-4 -4 -4 -25q-11 -58 34 -80q25 -11 48 -4t36 27q8 8 9 12q5 7 12 29
q2 5 7 19.5t10.5 29.5t9.5 31q26 75 73 239l74 267q2 -39 2 -574q0 -25 17 -42t42 -17t42.5 17t17.5 42q0 94 2 172v185q0 210 -10 346v22q-2 14 -2 47q-4 58 -17 127q-7 26 -14 37q-19 32 -49.5 40t-53.5 -13q-9 -6 -12 -15q-8 -11 -8 -22q-4 -10 -6 -23q-3 -25 -12 -65
q-1 -4 -4.5 -19t-4.5 -24l-6 -39l-4 -21q-18 -81 -106 -391q-5 135 -37 633q-1 25 -20 41t-44 14q-25 -1 -41 -19.5t-14 -43.5z" />
    <glyph glyph-name="uni04E4" unicode="&#x4e4;" horiz-adv-x="761" 
d="M35 98q2 2 6 17l2 12l4 6v66q1 13 4.5 81t7 138t4.5 106q18 563 -16 934q-3 25 13 46t42 22q25 2 46 -15t22 -41q36 -406 16 -950q0 -25 -2 -41q45 175 103 461q30 151 49 234q3 20 24 94q21 104 23 116v33q-3 22 6 43q18 43 70 43q47 0 67 -45q9 -27 11 -45
q12 -74 12 -270q0 -229 16 -565q13 -403 13 -566q0 -25 -18.5 -43t-43.5 -18q-26 0 -44.5 18t-18.5 43q0 157 -13 523q-12 338 -12 475l-63 -305q-48 -230 -113 -445l-43 -123l-31 -78q-2 -4 -5 -10.5t-5 -10.5t-4 -7l-12 -19q-21 -19 -48.5 -20.5t-48.5 16.5q-37 32 -20 90
zM86 1647q-8 -26 1.5 -48.5t33.5 -29.5q24 -8 46.5 1t29.5 32l22 57q8 25 -1 48t-32 30q-25 8 -47.5 -1t-29.5 -32zM401 1636q-6 -24 6.5 -44.5t36.5 -26.5t45 6.5t27 36.5l16 63q6 24 -5.5 45t-34.5 27q-25 6 -46.5 -6t-27.5 -37z" />
    <glyph glyph-name="uni04E5" unicode="&#x4e5;" horiz-adv-x="604" 
d="M-45 1018q34 -469 37 -658q2 -24 -2 -133q-4 -113 -2 -141v-8q-4 -4 -4 -25q-11 -58 34 -80q25 -11 48 -4t36 27q8 8 9 12q5 7 12 29q2 5 7 19.5t10.5 29.5t9.5 31q26 75 73 239l74 267q2 -39 2 -574q0 -25 17 -42t42 -17t42.5 17t17.5 42q0 94 2 172v185q0 210 -10 346
v22q-2 14 -2 47q-4 58 -17 127q-7 26 -14 37q-19 32 -49.5 40t-53.5 -13q-9 -6 -12 -15q-8 -11 -8 -22q-4 -10 -6 -23q-3 -25 -12 -65q-1 -4 -4.5 -19t-4.5 -24l-6 -39l-4 -21q-18 -81 -106 -391q-5 135 -37 633q-1 25 -20 41t-44 14q-25 -1 -41 -19.5t-14 -43.5zM-45 1233
q-8 -26 1.5 -48.5t33.5 -29.5q24 -8 46.5 1t29.5 32l22 57q8 25 -1 48t-32 30q-25 8 -48 -1t-30 -32zM270 1223q-6 -24 6.5 -45t36.5 -27t45 6.5t27 36.5l16 63q6 23 -6 44.5t-35 27.5q-25 6 -46 -6t-27 -37z" />
    <glyph glyph-name="uni04E6" unicode="&#x4e6;" horiz-adv-x="778" 
d="M145 1614q-8 -26 1.5 -48.5t33.5 -29.5q24 -8 46.5 1t29.5 32l23 57q8 25 -1 48t-32 30q-25 8 -48 -1t-30 -32zM158 1268q-36 -258 12 -881q2 -14 2 -76q0 -69 2 -92q12 -126 84 -186q82 -67 150.5 -61t107.5 79q44 75 47 228l4 131q6 209 6 436q-3 447 -69 555
q-8 15 -29 33q-1 20 -15.5 34t-35.5 19q-9 1 -27.5 4t-25 4t-20.5 3t-20 2t-16.5 0.5t-16.5 -0.5t-14.5 -3t-16 -5t-15.5 -7q-40 -23 -61 -77t-33 -140zM262 942q-3 183 14 311q9 63 21 101q6 15 12 24q10 3 33 0q12 0 18 -2l5 -4q10 -10 28 -24l8 -9q51 -85 54 -493
q0 -228 -6 -434l-5 -133q-3 -115 -30 -170q-10 -16 -19 -19q-17 -3 -59 33q-22 18 -32.5 53.5t-11.5 59t-1 75.5q0 70 -2 84q-24 317 -27 547zM461 1604q-6 -24 6.5 -45t36.5 -27t44.5 6.5t26.5 36.5l17 63q6 23 -6 44.5t-35 27.5q-25 6 -46.5 -6t-27.5 -37z" />
    <glyph glyph-name="uni04E7" unicode="&#x4e7;" horiz-adv-x="651" 
d="M8 1221q-8 -26 1.5 -48.5t33.5 -29.5q24 -8 46.5 1t29.5 32l22 57q8 26 -0.5 48.5t-31.5 29.5q-25 8 -48 -1t-30 -32zM47.5 477q5.5 -179 28.5 -305q27 -165 96 -201q38 -22 99.5 -23t101.5 27q61 50 78 197q19 123 16 285q-2 155 -16 292.5t-37 192.5q-20 53 -41 74
q-9 9 -30.5 22t-27.5 15q-18 24 -49 24h-33q-30 0 -40 -2q-49 -9 -87 -65q-36 -55 -51 -215q-13 -139 -7.5 -318zM166 480.5q-5 172.5 8 303.5q12 131 31 160q3 4 7 9t5 5h27q2 -2 4 -2l35 -22l8 -4l12 -33q16 -44 31 -170q32 -344 0 -537q-8 -53 -21 -90q-6 -22 -14 -30
q-8 -2 -29 -2q-24 0 -39 6q-6 6 -14 26q-15 33 -24 95q-22 113 -27 285.5zM324 1210q-6 -24 6.5 -44.5t36.5 -26.5t44.5 6.5t26.5 36.5l17 63q6 23 -6 44.5t-35 27.5q-25 6 -46.5 -6t-27.5 -37z" />
    <glyph glyph-name="uni04E8" unicode="&#x4e8;" horiz-adv-x="757" 
d="M158 1268q12 86 33 140t61 77q8 4 15.5 7t16 5t14.5 3t16.5 0.5t16.5 -0.5t20 -2t20.5 -3t25 -4t27.5 -4q21 -5 35.5 -19t15.5 -34q21 -18 29 -33q66 -108 69 -555v-94v-19v-2l-6 -321l-4 -131q-3 -153 -47 -228q-39 -73 -107.5 -79t-150.5 61q-72 60 -84 186
q-2 23 -2 92q0 62 -2 76q-48 623 -12 881zM264 834q60 -6 120.5 -14t70.5 -9v35q-3 408 -54 493l-8 9q-18 14 -28 24l-5 4q-6 2 -18 2q-23 3 -33 0q-6 -9 -12 -24q-12 -38 -21 -101q-17 -133 -12 -311v-108zM268 713q8 -134 21 -318q2 -14 2 -84q0 -52 1 -75.5t11.5 -59
t32.5 -53.5q42 -36 59 -33q9 3 19 19q27 55 30 170l5 133l6 280q-48 7 -187 21z" />
    <glyph glyph-name="uni04E9" unicode="&#x4e9;" horiz-adv-x="651" 
d="M47 504v12q-3 161 8 279q15 160 51 215q38 56 87 65q10 2 40 2h33q31 0 49 -24q6 -2 27.5 -15t30.5 -22q21 -21 41 -74q21 -52 35.5 -180.5t17.5 -276.5v-18v-10q3 -162 -16 -285q-17 -147 -78 -197q-40 -28 -101.5 -27t-99.5 23q-69 36 -96 201q-26 153 -29 332z
M164 565q41 -3 182 -20q-3 97 -12 182q-15 126 -31 170l-12 33l-8 4l-35 22q-2 0 -4 2h-27q-1 0 -5 -5t-7 -9q-19 -29 -31 -160q-10 -110 -10 -219zM166 446q6 -147 27 -251q9 -62 24 -95q8 -20 14 -26q15 -6 39 -6q21 0 29 2q8 8 14 30q13 37 21 90q14 88 14 234
q-90 12 -182 22z" />
    <glyph glyph-name="uni04EA" unicode="&#x4ea;" horiz-adv-x="757" 
d="M125 1622q-8 -26 1.5 -48.5t33.5 -29.5q24 -8 46.5 1t29.5 32l22 57q8 25 -1 48t-32 30q-25 8 -48 -1t-30 -32zM158 1268q12 86 33 140t61 77q8 4 15.5 7t16 5t14.5 3t16.5 0.5t16.5 -0.5t20 -2t20.5 -3t25 -4t27.5 -4q21 -5 35.5 -19t15.5 -34q21 -18 29 -33
q66 -108 69 -555v-115l-6 -321l-4 -131q-3 -153 -47 -228q-39 -73 -107.5 -79t-150.5 61q-72 60 -84 186q-2 23 -2 92q0 62 -2 76q-48 623 -12 881zM264 834q60 -6 120.5 -14t70.5 -9v35q-3 408 -54 493l-8 9q-18 14 -28 24l-5 4q-6 2 -18 2q-23 3 -33 0q-6 -9 -12 -24
q-12 -38 -21 -101q-17 -133 -12 -311v-108zM268 713q8 -134 21 -318q2 -14 2 -84q0 -52 1 -75.5t11.5 -59t32.5 -53.5q42 -36 59 -33q9 3 19 19q27 55 30 170l5 133l6 280q-48 7 -187 21zM440 1612q-6 -24 6.5 -45t36.5 -27t45 6.5t27 36.5l16 64q6 23 -6 44t-35 27
q-25 6 -46 -6t-27 -37z" />
    <glyph glyph-name="uni04EB" unicode="&#x4eb;" horiz-adv-x="651" 
d="M12 1194q-8 -26 1.5 -48.5t33.5 -29.5q24 -8 46.5 1t29.5 32l22 57q8 26 -0.5 48.5t-31.5 29.5q-25 8 -48 -1t-30 -32zM47 504v12q-3 161 8 279q15 160 51 215q38 56 87 65q10 2 40 2h33q31 0 49 -24q6 -2 27.5 -15t30.5 -22q21 -21 41 -74q21 -52 35.5 -180.5
t17.5 -276.5v-18v-10q3 -162 -16 -285q-17 -147 -78 -197q-40 -28 -101.5 -27t-99.5 23q-69 36 -96 201q-26 153 -29 332zM164 565q41 -3 182 -20q-3 97 -12 182q-15 126 -31 170l-12 33l-8 4l-35 22q-2 0 -4 2h-27q-1 0 -5 -5t-7 -9q-19 -29 -31 -160q-10 -110 -10 -219z
M166 446q6 -147 27 -251q9 -62 24 -95q8 -20 14 -26q15 -6 39 -6q21 0 29 2q8 8 14 30q13 37 21 90q14 88 14 234q-90 12 -182 22zM328 1184q-6 -24 6.5 -45t36.5 -27t44.5 6.5t26.5 36.5l17 64q6 23 -6 44t-35 27q-25 6 -46.5 -6t-27.5 -37z" />
    <glyph glyph-name="uni04EE" unicode="&#x4ee;" horiz-adv-x="704" 
d="M-45 1542q0 -24 18 -40.5t43 -16.5q237 8 445 8q25 0 42 17t17 42t-17 42.5t-42 17.5q-206 0 -449 -8q-24 0 -40.5 -18.5t-16.5 -43.5zM-33 82q-6 -25 6 -46.5t37 -27.5q101 -26 170 -26q122 0 185 75q51 59 68.5 208t17.5 425q0 200 -15 508q-6 120 -6 143q0 24 -18 41
t-43 17q-24 0 -41 -18.5t-17 -43.5t6 -133q15 -362 15 -465q-121 133 -169.5 266.5t-74.5 380.5q-1 24 -20.5 40t-44.5 14q-24 -1 -40 -21t-14 -45q14 -146 32.5 -237.5t55.5 -186.5q36 -97 97.5 -182.5t162.5 -181.5q9 -9 15 -11q-4 -375 -58 -440q-27 -35 -96 -35
q-42 0 -139 23q-23 6 -44.5 -6t-27.5 -35z" />
    <glyph glyph-name="uni04EF" unicode="&#x4ef;" horiz-adv-x="733" 
d="M-16 1225q0 -24 18 -41t43 -17q267 9 444 9q25 0 42.5 17t17.5 42t-17.5 42t-42.5 17q-205 0 -448 -8q-24 0 -40.5 -18t-16.5 -43zM14 1006q135 -472 199 -758q34 -157 47 -193l2 -8q-36 -244 -98 -414q-8 -24 2 -46t33 -29q24 -8 46 1.5t29 32.5q63 172 101 402
q24 21 35 67q9 36 18 97q10 66 16 131q4 32 5 35q34 280 38 440q3 107 -2 197q-3 35 -12 51q-17 36 -54.5 37.5t-62.5 -33.5q-9 -15 -12 -39l-4 -39q-7 -48 -10 -205q-3 -136 -11 -192l-18 -152q-68 290 -172 649q-6 24 -28 35.5t-46 5.5t-35.5 -27.5t-5.5 -45.5z" />
    <glyph glyph-name="uni04F0" unicode="&#x4f0;" horiz-adv-x="634" 
d="M-33 82q-6 -25 6 -46.5t37 -27.5q101 -26 170 -26q122 0 185 75q51 59 68.5 208t17.5 425q0 200 -15 508q-6 120 -6 143q0 24 -18 41t-43 17q-24 0 -41 -18.5t-17 -43.5t6 -133q15 -362 15 -465q-121 133 -169.5 266.5t-74.5 380.5q-1 24 -20.5 40t-44.5 14
q-24 -1 -40 -21t-14 -45q14 -146 32.5 -237.5t55.5 -186.5q36 -97 97.5 -182.5t162.5 -181.5q9 -9 15 -11q-4 -375 -58 -440q-27 -35 -96 -35q-42 0 -139 23q-23 6 -44.5 -6t-27.5 -35zM-12 1561q-8 -26 1.5 -48.5t33.5 -29.5q24 -8 46 1t29 32l23 57q8 25 -1 48t-32 30
q-25 8 -48 -1t-30 -32zM303 1550q-6 -24 6.5 -44.5t36.5 -26.5t45 6.5t27 36.5l16 63q6 23 -6 44.5t-35 27.5q-25 6 -46.5 -6t-27.5 -37z" />
    <glyph glyph-name="uni04F1" unicode="&#x4f1;" horiz-adv-x="671" 
d="M14 1006q135 -472 199 -758q34 -157 47 -193l2 -8q-36 -244 -98 -414q-8 -24 2 -46t33 -29q24 -8 46 1.5t29 32.5q63 172 101 402q24 21 35 67q9 36 18 97q10 66 16 131q4 32 5 35q34 280 38 440q3 107 -2 197q-3 35 -12 51q-17 36 -54.5 37.5t-62.5 -33.5
q-9 -15 -12 -39l-4 -39q-7 -48 -10 -205q-3 -136 -11 -192l-18 -152q-68 290 -172 649q-6 24 -28 35.5t-46 5.5t-35.5 -27.5t-5.5 -45.5zM33 1284q-8 -26 1.5 -48.5t33.5 -29.5q24 -8 46 1t29 32l23 57q8 25 -1 48t-32 30q-25 8 -48 -1t-30 -32zM348 1274q-6 -24 6.5 -45
t36.5 -27t45 6.5t27 36.5l16 64q6 23 -6 44t-35 27q-25 6 -46 -6t-27 -37z" />
    <glyph glyph-name="uni04F2" unicode="&#x4f2;" horiz-adv-x="794" 
d="M-33 82q-6 -25 6 -46.5t37 -27.5q101 -26 170 -26q122 0 185 75q51 59 68.5 208t17.5 425q0 200 -15 508q-6 120 -6 143q0 24 -18 41t-43 17q-24 0 -41 -18.5t-17 -43.5t6 -133q15 -362 15 -465q-121 133 -169.5 266.5t-74.5 380.5q-1 24 -20.5 40t-44.5 14
q-24 -1 -40 -21t-14 -45q14 -146 32.5 -237.5t55.5 -186.5q36 -97 97.5 -182.5t162.5 -181.5q9 -9 15 -11q-4 -375 -58 -440q-27 -35 -96 -35q-42 0 -139 23q-23 6 -44.5 -6t-27.5 -35zM-30.5 1541q6.5 -24 28.5 -36t45 -6t35 29q112 198 201 307q17 19 14.5 44t-21.5 40
q-20 15 -45.5 12.5t-38.5 -22.5q-91 -111 -213 -324q-12 -20 -5.5 -44zM287 1502q6 -24 28 -36t45 -6t35 29q112 198 201 307q17 19 15 44t-21 40q-20 15 -45.5 12.5t-38.5 -22.5q-91 -111 -213 -324q-12 -20 -6 -44z" />
    <glyph glyph-name="uni04F3" unicode="&#x4f3;" horiz-adv-x="849" 
d="M14 1006q135 -472 199 -758q34 -157 47 -193l2 -8q-36 -244 -98 -414q-8 -24 2 -46t33 -29q24 -8 46 1.5t29 32.5q63 172 101 402q24 21 35 67q9 36 18 97q10 66 16 131q4 32 5 35q34 280 38 440q3 107 -2 197q-3 35 -12 51q-17 36 -54.5 37.5t-62.5 -33.5
q-9 -15 -12 -39l-4 -39q-7 -48 -10 -205q-3 -136 -11 -192l-18 -152q-68 290 -172 649q-6 24 -28 35.5t-46 5.5t-35.5 -27.5t-5.5 -45.5zM25 1189q6 -24 28 -36t45 -6t35 29q112 198 201 307q17 19 15 44t-21 40q-20 15 -45.5 12t-38.5 -23q-93 -113 -213 -323
q-12 -20 -6 -44zM342.5 1150q6.5 -24 28.5 -36t45 -6t35 29q115 202 200 307q17 19 15 44t-21 40q-20 15 -45.5 12.5t-38.5 -22.5q-91 -111 -213 -324q-12 -20 -5.5 -44z" />
    <glyph glyph-name="uni04F4" unicode="&#x4f4;" horiz-adv-x="784" 
d="M-16 1483q0 -398 55 -584q51 -180 164.5 -256t265.5 -27q12 -334 12 -550q0 -25 17.5 -42.5t42.5 -17.5t42 17.5t17 42.5q0 238 -18 710q-19 496 -19 707q0 25 -17 42t-42 17t-42.5 -17t-17.5 -42q0 -237 21 -744q-125 -46 -198.5 3t-112.5 192q-52 171 -52 549
q0 25 -17 42t-42 17t-42 -17t-17 -42zM70 1675q-8 -26 1 -48.5t33 -29.5q24 -8 46.5 1t29.5 32l23 58q8 25 -1 47.5t-32 29.5q-26 8 -48.5 -0.5t-29.5 -31.5zM385 1665q-6 -24 6.5 -45t36.5 -27t45 6.5t27 36.5l16 64q6 23 -6 44.5t-35 27.5q-25 6 -46.5 -6t-27.5 -37z" />
    <glyph glyph-name="uni04F5" unicode="&#x4f5;" horiz-adv-x="628" 
d="M-63 904q3 -140 24 -216q70 -257 354 -231q5 0 7 2q4 -290 4 -410q0 -25 17 -42t42 -17t42 17t17 42q0 398 -18 1010q0 24 -18 40.5t-43 16.5q-24 0 -41 -18t-17 -43q9 -275 12 -480h-16q-99 -10 -151 26t-76 118q-33 126 -15 387q0 25 -16.5 43t-40.5 18
q-25 0 -43 -16.5t-18 -40.5q-9 -66 -6 -206zM-41 1305q-8 -26 1.5 -48.5t33.5 -29.5q24 -8 46.5 1t29.5 32l22 57q8 25 -1 48t-32 30q-25 8 -47.5 -1t-29.5 -32zM274 1294q-6 -24 6.5 -44.5t36.5 -26.5t45 6.5t27 36.5l17 63q6 23 -6 44.5t-35 27.5q-25 6 -46.5 -6
t-27.5 -37z" />
    <glyph glyph-name="uni04F7" unicode="&#x4f7;" horiz-adv-x="512" 
d="M1.5 413q0.5 279 4.5 443q0 55 4 105l2 34q0 11 2 13q1 2 5 12.5t6 15.5q26 37 62.5 52.5t80.5 14.5t104 -5q25 -1 41.5 -20t14.5 -44t-19.5 -40.5t-42.5 -14.5q-84 6 -96 4q-17 0 -41 -8v-19q-4 -50 -4 -102q-6 -346 -4 -586q4 2 14 2q25 0 43.5 -16.5t18.5 -40.5
q8 -243 8 -305q-2 -25 -19.5 -42.5t-42.5 -17.5t-41.5 17.5t-15.5 42.5v59q-2 0 -6 -1t-6 -1q-25 -3 -44 12.5t-22 40.5q-7 116 -6.5 395z" />
    <glyph glyph-name="uni04F8" unicode="&#x4f8;" horiz-adv-x="1103" 
d="M57 1434q13 -55 21 -107q16 -117 20 -233q8 -220 8 -244q1 -25 21 -244q18 -196 20 -233q0 -27 -2 -62q-2 -68 -2 -104q-2 -45 -2 -105q2 -16 2 -39q1 -3 2 -9t2 -9q3 -18 13 -31q42 -57 186 -45q126 11 170 45q68 50 102 172q26 100 31 226.5t-14 242.5q-20 114 -60 175
t-108 88q-41 18 -91 22.5t-72 2t-81 -10.5q-12 370 -51 530q-6 23 -26.5 36t-43.5 7q-25 -6 -38 -26t-7 -45zM227 811q4 0 6 2q71 20 141.5 8t100.5 -55q27 -43 43 -140t12 -206q-1 -113 -25.5 -198t-58.5 -113l-34 -11q-89 -19 -146 -10q-2 0 -4 2t-2 14q0 56 2 99
q0 36 2 104q2 37 2 70q-2 39 -20 244q-17 140 -19 190zM289 1573q-8 -26 1.5 -48.5t33.5 -29.5q24 -8 46 1t29 32l23 57q8 25 -1 48t-32 30q-25 8 -48 -1t-30 -32zM604 1563q-6 -24 6.5 -45t36.5 -27t45 6.5t27 36.5l16 63q6 23 -6 44.5t-35 27.5q-25 6 -46 -6t-27 -37z
M784 1456q18 -149 11 -448q-4 -176 -4 -191q0 -128 6 -389q4 -348 4 -389q0 -25 17 -42t42 -17t42.5 17t17.5 42q0 48 -2 185t-3 204q-6 261 -6 389q0 7 4 187q6 265 -10 464q-1 24 -20.5 40t-44.5 14q-24 -1 -40 -21t-14 -45z" />
    <glyph glyph-name="uni04F9" unicode="&#x4f9;" horiz-adv-x="909" 
d="M51 1032q0 -125 19 -397q15 -215 20 -326v-145q4 -137 60 -174q43 -28 135 -17q85 13 127.5 51t70.5 140q23 90 25.5 201.5t-16.5 197.5q-25 105 -77.5 146t-142.5 41q-12 2 -59 -2h-16q-11 0 -17 -3q-10 185 -10 287q0 25 -17 42.5t-42 17.5t-42.5 -17.5t-17.5 -42.5z
M182 1231q-8 -26 1.5 -48.5t33.5 -29.5q24 -8 46.5 1t29.5 32l22 57q8 26 -0.5 48.5t-31.5 29.5q-25 8 -48 -1t-30 -32zM188 629q11 0 19 2h14q31 3 49 0q51 0 71.5 -16t33.5 -78q17 -75 15 -170.5t-21 -171.5q-18 -71 -39 -86q-11 -9 -46 -15t-59 -6q-4 0 -6 2t-2 8
q-5 21 -8 72v143q-1 26 -4 69t-8 116.5t-9 130.5zM498 1221q-6 -24 6.5 -45t36.5 -27t44.5 6.5t26.5 36.5l17 63q6 23 -6 44.5t-35 27.5q-25 6 -46.5 -6t-27.5 -37zM598 1055q8 -303 8 -992q0 -25 17.5 -42t42.5 -17t42 17t17 42q0 688 -8 996q0 24 -18.5 40.5t-43.5 16.5
q-24 0 -40.5 -18t-16.5 -43z" />
    <glyph glyph-name="uni04FE" unicode="&#x4fe;" horiz-adv-x="829" 
d="M-47 831q-3 -25 10.5 -44t38.5 -23q91 -13 182 -16q-137 -419 -196 -719q-6 -25 8 -45t39 -25q23 -6 42.5 7.5t24.5 37.5q58 280 185 676q156 -359 241 -631q7 -23 29 -34t47 -3q23 6 34 27.5t5 46.5q-85 272 -256 662l94 4q25 2 41 20t15 43t-20 41t-44 14l-125 -6
q173 517 207 637q6 24 -5 45.5t-34 28.5q-25 6 -47 -5.5t-29 -35.5q-60 -205 -168 -524q-120 268 -206 485q-7 23 -29.5 32t-46.5 1q-24 -7 -33.5 -29.5t-1.5 -48.5q81 -201 252 -586q-93 3 -189 19q-25 2 -43.5 -13t-21.5 -39z" />
    <glyph glyph-name="uni04FF" unicode="&#x4ff;" horiz-adv-x="643" 
d="M-90.5 24.5q8.5 -22.5 31.5 -32.5q23 -11 45 -3t32 31q54 119 103 256l69 197q17 -42 76 -207l78 -207q7 -23 29.5 -31.5t48.5 -0.5q23 7 32 29.5t1 47.5q-24 60 -80 220q-66 177 -88 227q27 -2 67 -2q25 0 42.5 17t17.5 42t-17.5 42.5t-42.5 17.5q-18 0 -84 4l39 92
q64 153 92 248q6 23 -5 44.5t-34 28.5q-25 6 -46.5 -5.5t-28.5 -35.5q-28 -94 -88 -235l-13 -31q-90 184 -116 283q-6 24 -27.5 35.5t-46.5 5.5q-24 -6 -35.5 -27.5t-5.5 -46.5q29 -105 145 -346q-75 0 -137 -16q-24 -6 -35.5 -27.5t-5.5 -46.5q6 -24 27.5 -35.5t46.5 -5.5
q44 12 102 12q-5 -10 -90 -248q-53 -152 -96 -245q-11 -23 -2.5 -45.5z" />
    <glyph glyph-name="uni2000" unicode="&#x2000;" horiz-adv-x="997" 
 />
    <glyph glyph-name="uni2001" unicode="&#x2001;" horiz-adv-x="1994" 
 />
    <glyph glyph-name="uni2002" unicode="&#x2002;" horiz-adv-x="997" 
 />
    <glyph glyph-name="uni2003" unicode="&#x2003;" horiz-adv-x="1994" 
 />
    <glyph glyph-name="uni2004" unicode="&#x2004;" horiz-adv-x="664" 
 />
    <glyph glyph-name="uni2005" unicode="&#x2005;" horiz-adv-x="498" 
 />
    <glyph glyph-name="uni2006" unicode="&#x2006;" horiz-adv-x="332" 
 />
    <glyph glyph-name="uni2007" unicode="&#x2007;" horiz-adv-x="332" 
 />
    <glyph glyph-name="uni2008" unicode="&#x2008;" horiz-adv-x="249" 
 />
    <glyph glyph-name="uni2009" unicode="&#x2009;" horiz-adv-x="398" 
 />
    <glyph glyph-name="uni200A" unicode="&#x200a;" horiz-adv-x="110" 
 />
    <glyph glyph-name="uni2010" unicode="&#x2010;" horiz-adv-x="739" 
d="M20 563q1 -25 20 -41t44 -14l414 12q24 0 40.5 18.5t16.5 43.5q0 24 -18 40.5t-43 16.5l-418 -12q-25 -1 -41.5 -20t-14.5 -44z" />
    <glyph glyph-name="uni2011" unicode="&#x2011;" horiz-adv-x="739" 
d="M20 563q1 -25 20 -41t44 -14l414 12q24 0 40.5 18.5t16.5 43.5q0 24 -18 40.5t-43 16.5l-418 -12q-25 -1 -41.5 -20t-14.5 -44z" />
    <glyph glyph-name="figuredash" unicode="&#x2012;" horiz-adv-x="739" 
d="M20 563q1 -25 20 -41t44 -14l414 12q24 0 40.5 18.5t16.5 43.5q0 24 -18 40.5t-43 16.5l-418 -12q-25 -1 -41.5 -20t-14.5 -44z" />
    <glyph glyph-name="endash" unicode="&#x2013;" horiz-adv-x="1249" 
d="M80 678q0 -25 18 -41t43 -14q1 0 36 -0.5t91.5 -1t131.5 -1.5t155 -2t163.5 -1.5t155.5 -0.5h132q24 0 41.5 18.5t17.5 43.5q0 24 -18 40.5t-43 16.5q-87 -1 -193.5 -0.5t-227 1.5t-217 2t-164.5 2l-67 1q-25 -1 -41 -19.5t-14 -43.5z" />
    <glyph glyph-name="emdash" unicode="&#x2014;" horiz-adv-x="1597" 
d="M-166 678q0 -24 18.5 -40.5t43.5 -14.5l68 -1q69 0 177 -0.5t247 -1.5t281.5 -2t279.5 -1.5t240.5 -0.5h164.5q24 0 41.5 18.5t17.5 43.5q0 24 -18 40.5t-43 16.5h-165.5t-241 0.5t-280 1t-282.5 1.5t-248 1.5t-176.5 1t-69.5 0.5q-25 -1 -41 -19.5t-14 -43.5z" />
    <glyph glyph-name="quoteleft" unicode="&#x2018;" horiz-adv-x="483" 
d="M53 1235q-5 -90 9.5 -161.5t54.5 -98.5q53 -35 93 -25t64 46t25 83q1 63 -27.5 99t-72.5 36q-13 3 -29 -4q0 13 2 19q3 75 16 114l11 27l28 -8q24 -6 45 8t27 39q4 23 -10 43t-37 25q-2 2 -4 2t-2 2q-4 0 -6 2q-2 1 -6.5 2t-6.5 2q-40 12 -69 0q-93 -34 -105 -252z" />
    <glyph glyph-name="quoteright" unicode="&#x2019;" horiz-adv-x="507" 
d="M49 1354q-8 -88 30 -133t105 -9q8 4 11 7l-2 -7q-18 -54 -51.5 -104t-61.5 -68q-23 -13 -28 -36.5t9 -45.5q12 -21 36 -26.5t44 6.5q49 31 95 97.5t69 140.5q25 77 17 153q-13 86 -99 133q-54 28 -91.5 18.5t-58 -42.5t-24.5 -84zM168 1352q2 2 2 4h2z" />
    <glyph glyph-name="quotedblleft" unicode="&#x201c;" horiz-adv-x="724" 
d="M49 1028q3 -27 17 -43q31 -35 71 -35t70.5 21.5t52.5 52.5q32 43 19 84q-11 28 -35 37t-51 2l12 47q39 137 59 217q4 24 -10.5 44.5t-38.5 25.5q-24 4 -44.5 -10.5t-25.5 -38.5q0 -9 -55 -207l-31 -125q-2 -9 -3.5 -18t-2.5 -18t-2 -13q-2 -8 -2 -23zM330 1051
q6 -33 34 -52t64 -6q28 11 58 48t42 67q27 74 -28 106q-19 10 -25 11q30 104 35 121l20 61l5 16q4 12 4 13q6 23 -6 44t-35 27q-25 6 -46.5 -6t-27.5 -37l-2 -2l-6 -18l-19 -62q-84 -260 -67 -331z" />
    <glyph glyph-name="quotedblright" unicode="&#x201d;" horiz-adv-x="716" 
d="M32 1326q-10 -61 13 -95q20 -26 53 -29q-8 -26 -20 -55q-24 -60 -25 -64q-8 -24 2 -46t33 -29q24 -8 46.5 1.5t29.5 32.5l24 60l27 69q31 96 16 162q-3 30 -22 58q-15 21 -35.5 34.5t-49 13t-54.5 -23.5q-28 -28 -38 -89zM298 1293.5q0 -54.5 38 -87.5q17 -13 33 -16
q-5 -17 -31 -84q-8 -24 1 -45.5t32 -30.5t45.5 -0.5t32.5 31.5q39 90 55 170v6q8 12 10 18l6 15q2 4 2 8l2 2q12 20 7 44t-25 36q-12 44 -46 68.5t-73 17t-63 -50.5q-26 -47 -26 -101.5z" />
    <glyph glyph-name="bullet" unicode="&#x2022;" horiz-adv-x="1083" 
d="M328 675.5q4 49.5 18 86.5q45 112 127 156q21 11 67 22.5t70 11.5q57 0 92.5 -4t74 -20t60.5 -45.5t38.5 -82.5t21.5 -130q5 -76 -12.5 -134t-50 -93t-81 -56t-102 -26.5t-116.5 -0.5q-57 5 -101 36.5t-66.5 77.5t-33 99t-6.5 102.5z" />
    <glyph glyph-name="ellipsis" unicode="&#x2026;" horiz-adv-x="479" 
d="M106 160q0 25 17 43t41 18q31 0 49 -24q56 -30 74 -76q13 -24 5 -57.5t-34 -51.5q-67 -36 -115 23q-34 43 -37 125z" />
    <glyph glyph-name="uni202F" unicode="&#x202f;" horiz-adv-x="398" 
 />
    <glyph glyph-name="uni205F" unicode="&#x205f;" horiz-adv-x="498" 
 />
    <glyph glyph-name="Euro" unicode="&#x20ac;" horiz-adv-x="675" 
d="M-139 575q5 -25 24.5 -39t44.5 -10q48 11 80 13q18 -205 70 -367q22 -62 63 -111q28 -35 64.5 -57t78 -27t81.5 17q54 29 77.5 87.5t32.5 141.5q2 21 4.5 43t3.5 33.5t2 15.5q6 24 -7.5 45t-37.5 27q-24 4 -44 -9.5t-25 -37.5q-11 -67 -15 -102q-13 -117 -49 -140
q-11 -4 -26 2q-27 11 -52.5 42t-35.5 67q-51 155 -66 346q59 6 178 14q25 1 41 20t14 44q-1 25 -19.5 41t-43.5 14q-69 -5 -178 -16v22h2q108 15 176 15q25 0 42 17t17 42t-17 42t-42 17q-75 0 -180 -12q3 160 20 313q12 140 66 197q43 43 74 43q31 -3 63 -49
q39 -59 27 -186q-2 -25 13.5 -45t39.5 -21q25 -2 44.5 13.5t20.5 39.5q15 150 -41 256q-56 103 -158.5 110t-176.5 -89q-35 -46 -58 -114t-33.5 -154.5t-14.5 -159t-5 -170.5q-28 -4 -72 -8q-24 -3 -39 -21q-15 -20 -13 -44.5t22 -39.5q17 -13 45.5 -13.5t58.5 5.5v-21
l-92 -12q-25 -5 -39 -25t-10 -45z" />
    <glyph glyph-name="uniE000" unicode="&#xe000;" horiz-adv-x="1167" 
d="M0 0v1167h1167v-1167h-1167z" />
  </font>
</defs>
</svg>
