<?xml version="1.0" encoding="iso-8859-1"?>
<!-- Generator: Adobe Illustrator 19.0.0, SVG Export Plug-In . SVG Version: 6.00 Build 0)  -->
<svg version="1.1" id="Capa_1" xmlns="http://www.w3.org/2000/svg" xmlns:xlink="http://www.w3.org/1999/xlink" x="0px" y="0px"
	 viewBox="0 0 512 512" style="enable-background:new 0 0 512 512;" xml:space="preserve">
<circle style="fill:#FFD071;" cx="144.1" cy="349.07" r="144.1"/>
<path style="fill:#F7B657;" d="M288.21,349.074c0,79.585-64.515,144.101-144.101,144.101c-6.414,0-12.736-0.423-18.933-1.229
	c70.63-9.275,125.157-69.711,125.157-142.872s-54.527-133.596-125.157-142.882c6.197-0.806,12.519-1.229,18.933-1.229
	C223.694,204.963,288.21,269.489,288.21,349.074z"/>
<circle style="fill:#63CFF1;" cx="367.89" cy="349.07" r="144.1"/>
<path style="fill:#33BDDD;" d="M512,349.074c0,79.585-64.515,144.101-144.101,144.101c-6.414,0-12.736-0.423-18.933-1.229
	c70.63-9.275,125.157-69.711,125.157-142.872s-54.527-133.596-125.157-142.882c6.197-0.806,12.519-1.229,18.933-1.229
	C447.485,204.963,512,269.489,512,349.074z"/>
<circle style="fill:#FF6E5E;" cx="255.73" cy="162.93" r="144.1"/>
<path style="fill:#F4584D;" d="M399.832,162.936c0,79.585-64.515,144.101-144.101,144.101c-6.414,0-12.736-0.423-18.933-1.229
	c70.63-9.275,125.157-69.711,125.157-142.872S307.428,29.34,236.798,20.054c6.197-0.806,12.519-1.229,18.933-1.229
	C335.317,18.825,399.832,83.351,399.832,162.936z"/>
<path style="fill:#E6EAEE;" d="M394.483,199.742c-8.633-1.511-17.488-2.277-26.319-2.277c-2.277,0-4.546,0.055-6.807,0.154
	c-0.133-0.007-0.265-0.02-0.4-0.02c-0.39,0-0.769,0.039-1.143,0.096c-29.668,1.596-57.787,11.695-81.777,29.457
	c-7.978,5.907-15.283,12.495-21.859,19.675c-6.576-7.179-13.881-13.767-21.859-19.675c-24.131-17.866-52.44-27.977-82.3-29.482
	c-0.32-0.042-0.643-0.07-0.974-0.07c-0.076,0-0.149,0.009-0.225,0.011c-2.202-0.094-4.411-0.145-6.628-0.145
	c-8.832,0-17.687,0.767-26.319,2.277c-0.095,0.017-0.185,0.043-0.279,0.063c-0.444,0.059-0.889,0.152-1.331,0.294
	c-3.942,1.272-6.106,5.499-4.833,9.441c9.771,30.275,28.521,56.328,54.22,75.342c16.809,12.436,35.644,21.106,55.616,25.734
	c-3.275,12.48-4.974,25.405-4.974,38.452c0,34.802,12.087,68.797,34.036,95.723c1.482,1.819,3.641,2.762,5.818,2.762
	c1.666,0,3.342-0.552,4.734-1.687c0.478-0.389,0.887-0.83,1.243-1.301c0.011-0.013,0.023-0.024,0.034-0.037
	c21.811-26.879,33.823-60.78,33.823-95.46c0-13.12-1.719-26.114-5.031-38.657c50.102-11.919,91.617-48.814,108.533-99.187
	c0.002-0.005,0.003-0.011,0.005-0.017c0.533-0.821,0.913-1.761,1.092-2.786C401.292,204.343,398.563,200.456,394.483,199.742z
	 M143.544,240.933c-5.957-8.557-10.922-17.797-14.802-27.599c4.903-0.549,9.855-0.839,14.802-0.862V240.933z M175.796,273.695
	c-0.407-0.294-0.822-0.572-1.227-0.871c-5.737-4.244-11.086-8.879-16.026-13.862v-45.733c5.836,0.605,11.596,1.568,17.252,2.903
	v57.563H175.796z M208.505,291.17c-6.074-2.238-11.983-4.93-17.708-8.036v-62.52c6.07,2.203,11.982,4.848,17.708,7.917V291.17z
	 M256.177,270.776c6.045,8.635,11.073,17.973,15.001,27.878c-5.085,0.574-10.238,0.883-15.448,0.883
	c-4.909,0-9.775-0.28-14.592-0.788C245.073,288.809,250.113,279.438,256.177,270.776z M276.16,313.161
	c1.342,4.924,2.41,9.927,3.197,14.985h-46.444c0.78-5.019,1.841-9.982,3.169-14.869c6.468,0.832,13.026,1.26,19.651,1.26
	C262.637,314.537,269.457,314.067,276.16,313.161z M223.505,295.732v-57.866c0.628,0.449,1.266,0.88,1.888,1.341
	c7.726,5.72,14.734,12.162,20.996,19.198c-8.659,11.604-15.569,24.366-20.575,37.839
	C225.044,296.075,224.271,295.917,223.505,295.732z M256.13,427.614c-4.348-6.189-8.164-12.717-11.413-19.507h22.836
	C264.303,414.9,260.478,421.424,256.13,427.614z M273.661,393.107h-35.054c-1.969-5.784-3.558-11.7-4.741-17.708h44.537
	C277.218,381.407,275.63,387.323,273.661,393.107z M280.501,360.399h-48.733c-0.315-3.76-0.477-7.539-0.477-11.33
	c0-2,0.045-3.997,0.133-5.99c0.312,0.04,0.628,0.067,0.951,0.067h48.474c0.086,1.97,0.129,3.945,0.129,5.923
	C280.978,352.86,280.816,356.64,280.501,360.399z M288.495,295.564c-0.7,0.173-1.406,0.329-2.11,0.49
	c-4.994-13.382-11.867-26.062-20.468-37.598c6.274-7.056,13.3-13.514,21.045-19.249c0.505-0.374,1.024-0.722,1.533-1.089
	L288.495,295.564L288.495,295.564z M321.204,282.856c-5.686,3.102-11.599,5.814-17.708,8.089v-62.222
	c5.726-3.09,11.636-5.762,17.708-7.985V282.856z M353.456,258.432c-5.336,5.457-11.103,10.456-17.252,14.933V216.21
	c5.655-1.351,11.416-2.326,17.252-2.947V258.432z M368.456,240.2v-27.732c4.777,0.01,9.559,0.271,14.299,0.773
	C378.951,222.861,374.148,231.891,368.456,240.2z"/>
<g>
</g>
<g>
</g>
<g>
</g>
<g>
</g>
<g>
</g>
<g>
</g>
<g>
</g>
<g>
</g>
<g>
</g>
<g>
</g>
<g>
</g>
<g>
</g>
<g>
</g>
<g>
</g>
<g>
</g>
</svg>
