<?xml version="1.0"?>
<svg xmlns="http://www.w3.org/2000/svg" xmlns:xlink="http://www.w3.org/1999/xlink" version="1.1" id="Layer_1" x="0px" y="0px" viewBox="0 0 508 508" style="enable-background:new 0 0 508 508;" xml:space="preserve" width="512px" height="512px" class=""><g><g>
	<g>
		<path d="M319.5,164.8l-95.2-42.4c-4.3-1.9-9.3-1-12.6,2.3c-3.3,3.3-4.3,8.3-2.3,12.6l42.4,95.2c2.5,5.7,9.3,8.4,15,5.7    c5.4-2.5,8-9.2,5.6-14.9l-9.6-21.5l25.9-25.9l21.5,9.6c5.7,2.5,12.4,0,15-5.7C327.7,174.1,325.2,167.4,319.5,164.8z M252.9,179.6    L242,155.2l24.5,10.9L252.9,179.6z" data-original="#000000" class="active-path" data-old_color="#000000fill:#000000fill:#000000fill:#000000fill:#000000fill:#000000fill:#000000fill:#000000fill:#000000fill:#000000fill:#000000fill:#000000fill:#000000fill:#000000fill:#000000fill:#000000fill:#000000fill:#000000fill:#000000fill:#000000fill:#000000fill:#000000fill:#000000fill:#000000fill:#000000fill:#000000fill:#000000fill:#000000fill:#000000fill:#fffffffill:#FFFFFFfill:#000000fill:#000000fill:#000000fill:#000000fill:#000000fill:#000000fill:#000000fill:#000000fill:#000000fill:#000000fill:#000000fill:#000000fill:#000000fill:#000000fill:#000000fill:#000000fill:#000000fill:#000000fill:#000000fill:#000000fill:#000000fill:#000000fill:#000000fill:#000000fill:#000000fill:#000000fill:#000000fill:#000000fill:#000000fill:#000000fill:#000000fill:#000000fill:#000000fill:#000000fill:#000000fill:#000000fill:#000000fill:#000000fill:#000000fill:#000000fill:#000000" fill="#ffffff"/>
	</g>
</g><g>
	<g>
		<path d="M453.9,239.9h-83l34.5-34.5c21.1-21.1,21.1-55.4,0-76.5L292.2,15.8C282,5.6,268.4,0,254,0c-14.4,0-28,5.6-38.2,15.8    L102.7,128.9c-21.1,21.1-21.1,55.4,0,76.5l34.5,34.5h-83C24.3,239.9,0,264.2,0,294v159.9C0,483.7,24.3,508,54.1,508H214    c15.8,0,30.1-6.9,40-17.8c9.9,10.9,24.1,17.8,40,17.8h159.9c29.8,0,54.1-24.3,54.1-54.1V294C508,264.2,483.7,239.9,453.9,239.9z     M239.9,453.9c0,14.3-11.6,25.9-25.9,25.9H54.1c-14.3,0-25.9-11.6-25.9-25.9V294c0-14.3,11.6-25.9,25.9-25.9h111.3l50.4,50.4    c6.8,6.8,15.1,11.6,24.1,14V453.9z M254,306.1c-6.9,0-13.4-2.7-18.3-7.6l-113.1-113c-10.1-10.1-10.1-26.5,0-36.6L235.7,35.8    c4.9-4.9,11.4-7.6,18.3-7.6s13.4,2.7,18.3,7.6l113.1,113.1c10.1,10.1,10.1,26.5,0,36.6L272.3,298.6    C267.4,303.4,260.9,306.1,254,306.1z M479.8,453.9L479.8,453.9c0,14.3-11.6,25.9-25.9,25.9H294c-14.3,0-25.9-11.6-25.9-25.9V332.5    c9-2.4,17.3-7.2,24.1-14l50.4-50.4h111.3c14.3,0,25.9,11.6,25.9,25.9V453.9z" data-original="#000000" class="active-path" data-old_color="#000000fill:#000000fill:#000000fill:#000000fill:#000000fill:#000000fill:#000000fill:#000000fill:#000000fill:#000000fill:#000000fill:#000000fill:#000000fill:#000000fill:#000000fill:#000000fill:#000000fill:#000000fill:#000000fill:#000000fill:#000000fill:#000000fill:#000000fill:#000000fill:#000000fill:#000000fill:#000000fill:#000000fill:#000000fill:#fffffffill:#FFFFFFfill:#000000fill:#000000fill:#000000fill:#000000fill:#000000fill:#000000fill:#000000fill:#000000fill:#000000fill:#000000fill:#000000fill:#000000fill:#000000fill:#000000fill:#000000fill:#000000fill:#000000fill:#000000fill:#000000fill:#000000fill:#000000fill:#000000fill:#000000fill:#000000fill:#000000fill:#000000fill:#000000fill:#000000fill:#000000fill:#000000fill:#000000fill:#000000fill:#000000fill:#000000fill:#000000fill:#000000fill:#000000fill:#000000fill:#000000fill:#000000fill:#000000" fill="#ffffff"/>
	</g>
</g><g>
	<g>
		<path d="M170.3,349.8c0-19.8-16-35.8-35.6-35.8h-25.5c-6.3,0-11.3,5.1-11.3,11.3v48.6c0,0,0,0,0,0.1c0,0,0,0,0,0.1v48.6    c0,6.3,5.1,11.3,11.3,11.3h25.5c19.6,0,35.6-16,35.6-35.6c0-9.4-3.7-18-9.8-24.3C166.5,367.7,170.3,359.2,170.3,349.8z     M134.7,411.2h-14.2v-25.9h14.2c7.1,0,12.9,5.8,12.9,12.9C147.6,405.4,141.8,411.2,134.7,411.2z M134.7,362.5h-14.2v-25.9h14.2    c7.1,0,12.9,5.8,12.9,12.9C147.6,356.7,141.8,362.5,134.7,362.5z" data-original="#000000" class="active-path" data-old_color="#000000fill:#000000fill:#000000fill:#000000fill:#000000fill:#000000fill:#000000fill:#000000fill:#000000fill:#000000fill:#000000fill:#000000fill:#000000fill:#000000fill:#000000fill:#000000fill:#000000fill:#000000fill:#000000fill:#000000fill:#000000fill:#000000fill:#000000fill:#000000fill:#000000fill:#000000fill:#000000fill:#000000fill:#000000fill:#fffffffill:#FFFFFFfill:#000000fill:#000000fill:#000000fill:#000000fill:#000000fill:#000000fill:#000000fill:#000000fill:#000000fill:#000000fill:#000000fill:#000000fill:#000000fill:#000000fill:#000000fill:#000000fill:#000000fill:#000000fill:#000000fill:#000000fill:#000000fill:#000000fill:#000000fill:#000000fill:#000000fill:#000000fill:#000000fill:#000000fill:#000000fill:#000000fill:#000000fill:#000000fill:#000000fill:#000000fill:#000000fill:#000000fill:#000000fill:#000000fill:#000000fill:#000000fill:#000000" fill="#ffffff"/>
	</g>
</g><g>
	<g>
		<path d="M406.1,399.3c-7,7.7-17,12-27.4,12c-20.6,0-37.3-16.7-37.3-37.3s16.7-37.3,37.3-37.3c12,0,22.9,5.5,30,15.1    c3.7,5,10.8,6.1,15.9,2.4c5-3.7,6.1-10.8,2.4-15.9c-11.3-15.2-29.4-24.3-48.3-24.3c-33.1,0-60,26.9-60,60c0,33.1,26.9,60,60,60    c16.7,0,32.8-7.1,44.1-19.4c4.2-4.6,3.9-11.8-0.7-16C417.5,394.4,410.3,394.7,406.1,399.3z" data-original="#000000" class="active-path" data-old_color="#000000fill:#000000fill:#000000fill:#000000fill:#000000fill:#000000fill:#000000fill:#000000fill:#000000fill:#000000fill:#000000fill:#000000fill:#000000fill:#000000fill:#000000fill:#000000fill:#000000fill:#000000fill:#000000fill:#000000fill:#000000fill:#000000fill:#000000fill:#000000fill:#000000fill:#000000fill:#000000fill:#000000fill:#000000fill:#fffffffill:#FFFFFFfill:#000000fill:#000000fill:#000000fill:#000000fill:#000000fill:#000000fill:#000000fill:#000000fill:#000000fill:#000000fill:#000000fill:#000000fill:#000000fill:#000000fill:#000000fill:#000000fill:#000000fill:#000000fill:#000000fill:#000000fill:#000000fill:#000000fill:#000000fill:#000000fill:#000000fill:#000000fill:#000000fill:#000000fill:#000000fill:#000000fill:#000000fill:#000000fill:#000000fill:#000000fill:#000000fill:#000000fill:#000000fill:#000000fill:#000000fill:#000000fill:#000000" fill="#ffffff"/>
	</g>
</g></g> </svg>
